<?xml version="1.0" encoding="utf-8"?>
<!-- Generator: Adobe Illustrator 25.3.1, SVG Export Plug-In . SVG Version: 6.00 Build 0)  -->
<svg version="1.1" id="Logo" xmlns="http://www.w3.org/2000/svg" xmlns:xlink="http://www.w3.org/1999/xlink" x="0px" y="0px"
	 viewBox="0 0 100 100" style="enable-background:new 0 0 100 100;" xml:space="preserve">
<style type="text/css">
	.st0{fill:url(#SVGID_1_);}
	.st1{fill:url(#SVGID_2_);}
	.st2{fill:url(#SVGID_3_);}
	.st3{fill:url(#SVGID_4_);}
	.st4{fill:url(#SVGID_5_);}
	.st5{fill:url(#SVGID_6_);}
	.st6{fill:url(#SVGID_7_);}
	.st7{fill:url(#SVGID_8_);}
	.st8{fill:url(#SVGID_9_);}
	.st9{fill:url(#SVGID_10_);}
	.st10{fill:url(#SVGID_11_);}
</style>
<g>
	
		<linearGradient id="SVGID_1_" gradientUnits="userSpaceOnUse" x1="107.8703" y1="94.7045" x2="80.8364" y2="0.9017" gradientTransform="matrix(1 0 0 -1 -41.69 97.9)">
		<stop  offset="0.31" style="stop-color:#0DA152"/>
		<stop  offset="0.92" style="stop-color:#EEEA4B"/>
	</linearGradient>
	<path class="st0" d="M44.3,92.1L44.3,92.1c-0.5,0.6-1.3,0.7-1.9,0.4c-1.2-0.6-2.4-0.9-3.7-1.1c-0.8-0.1-1.4-0.8-1.4-1.5v-0.1
		c0-0.9,0.7-1.6,1.6-1.6c0.1,0,0.1,0,0.2,0c1.7,0.2,3.3,0.7,4.8,1.4c0.8,0.4,1.1,1.3,0.7,2.1C44.5,91.8,44.4,91.9,44.3,92.1z"/>
	
		<linearGradient id="SVGID_2_" gradientUnits="userSpaceOnUse" x1="108.824" y1="94.5686" x2="81.9565" y2="1.3499" gradientTransform="matrix(1 0 0 -1 -41.69 97.9)">
		<stop  offset="0.31" style="stop-color:#0DA152"/>
		<stop  offset="0.92" style="stop-color:#EEEA4B"/>
	</linearGradient>
	<path class="st1" d="M50.7,85.6L50.7,85.6c-0.6,0.6-1.5,0.7-2.1,0.2c-3-2-6.4-3.1-9.9-3.4c-0.8-0.1-1.4-0.7-1.4-1.6v-0.1
		c0-0.9,0.7-1.6,1.6-1.6c0,0,0.1,0,0.1,0c4.1,0.3,8,1.7,11.5,3.9c0.7,0.5,0.9,1.4,0.5,2.2C50.9,85.4,50.8,85.5,50.7,85.6z"/>
	
		<linearGradient id="SVGID_3_" gradientUnits="userSpaceOnUse" x1="110.0168" y1="95.2569" x2="83.0359" y2="1.6452" gradientTransform="matrix(1 0 0 -1 -41.69 97.9)">
		<stop  offset="0.31" style="stop-color:#0DA152"/>
		<stop  offset="0.92" style="stop-color:#EEEA4B"/>
	</linearGradient>
	<path class="st2" d="M57.1,79.2L57.1,79.2c-0.7,0.6-1.5,0.7-2.2,0.2c-4.7-3.5-10.3-5.5-16.1-5.8c-0.8,0-1.5-0.7-1.5-1.6V72
		c0-0.9,0.7-1.6,1.5-1.6c0,0,0,0,0.1,0c6.5,0.3,12.8,2.6,18,6.5c0.7,0.5,0.8,1.5,0.3,2.2C57.2,79.1,57.2,79.2,57.1,79.2z"/>
	
		<linearGradient id="SVGID_4_" gradientUnits="userSpaceOnUse" x1="111.2259" y1="96.0755" x2="84.0469" y2="1.7771" gradientTransform="matrix(1 0 0 -1 -41.69 97.9)">
		<stop  offset="0.31" style="stop-color:#0DA152"/>
		<stop  offset="0.92" style="stop-color:#EEEA4B"/>
	</linearGradient>
	<path class="st3" d="M63.4,73L63.4,73c-0.7,0.7-1.6,0.7-2.2,0.2C54.9,68,47,65.1,38.9,64.8c-0.8,0-1.5-0.7-1.5-1.6v-0.1
		c0-0.9,0.7-1.6,1.5-1.6c0,0,0,0,0,0c8.9,0.3,17.4,3.5,24.3,9.1c0.7,0.6,0.7,1.5,0.2,2.2C63.5,72.9,63.4,72.9,63.4,73z"/>
	
		<linearGradient id="SVGID_5_" gradientUnits="userSpaceOnUse" x1="107.4794" y1="102.4249" x2="78.0242" y2="0.2291" gradientTransform="matrix(1 0 0 -1 -41.69 97.9)">
		<stop  offset="0.31" style="stop-color:#0DA152"/>
		<stop  offset="0.92" style="stop-color:#EEEA4B"/>
	</linearGradient>
	<path class="st4" d="M84.9,47.1c-3.6,5.7-8.5,13.3-11.5,18.1c-1.3,2.1-4.1,2.6-6.1,1.3c-0.1-0.1-0.2-0.2-0.4-0.3
		c-10.4-8.1-31-13.5-49.3-8.8c-1.3,0.3-2.6-0.5-3-1.8c-0.2-0.7-0.1-1.4,0.3-1.9l11.6-18.2c1.3-2.1,4.1-2.6,6.1-1.3
		c0.2,0.1,0.4,0.3,0.6,0.4c13.5,12,33.6,13,48.4,8.3c1.5-0.5,3,0.3,3.5,1.8C85.5,45.5,85.4,46.4,84.9,47.1z"/>
	
		<linearGradient id="SVGID_6_" gradientUnits="userSpaceOnUse" x1="104.4273" y1="101.6494" x2="77.2872" y2="7.4713" gradientTransform="matrix(1 0 0 -1 -41.69 97.9)">
		<stop  offset="0.31" style="stop-color:#0DA152"/>
		<stop  offset="0.92" style="stop-color:#EEEA4B"/>
	</linearGradient>
	<path class="st5" d="M62.5,10.3L62.5,10.3c0,1-0.7,1.7-1.6,1.7c-0.1,0-0.1,0-0.2,0c-1.7-0.2-3.3-0.7-4.8-1.4
		c-0.8-0.4-1-1.4-0.6-2.1c0.1-0.1,0.2-0.3,0.3-0.4L55.7,8c0.5-0.5,1.2-0.6,1.8-0.3c1.2,0.6,2.4,0.9,3.7,1.1
		C61.9,8.9,62.5,9.5,62.5,10.3z"/>
	
		<linearGradient id="SVGID_7_" gradientUnits="userSpaceOnUse" x1="103.2475" y1="101.143" x2="76.3374" y2="7.7791" gradientTransform="matrix(1 0 0 -1 -41.69 97.9)">
		<stop  offset="0.31" style="stop-color:#0DA152"/>
		<stop  offset="0.92" style="stop-color:#EEEA4B"/>
	</linearGradient>
	<path class="st6" d="M62.5,19.2v0.1c0,0.9-0.7,1.6-1.6,1.6c0,0-0.1,0-0.1,0c-4.1-0.3-8.1-1.6-11.5-3.9c-0.7-0.5-0.9-1.5-0.4-2.2
		c0.1-0.1,0.1-0.2,0.2-0.2l0.1-0.1c0.5-0.5,1.4-0.6,2-0.2c3,2,6.4,3.1,9.9,3.4C61.9,17.7,62.5,18.4,62.5,19.2z"/>
	
		<linearGradient id="SVGID_8_" gradientUnits="userSpaceOnUse" x1="102.1599" y1="100.8024" x2="75.218" y2="7.3217" gradientTransform="matrix(1 0 0 -1 -41.69 97.9)">
		<stop  offset="0.31" style="stop-color:#0DA152"/>
		<stop  offset="0.92" style="stop-color:#EEEA4B"/>
	</linearGradient>
	<path class="st7" d="M62.5,28.1L62.5,28.1c0,0.9-0.7,1.6-1.5,1.6c0,0,0,0-0.1,0c-6.5-0.3-12.8-2.5-18-6.4c-0.7-0.5-0.9-1.5-0.3-2.2
		c0-0.1,0.1-0.1,0.2-0.2l0.1-0.1c0.6-0.6,1.5-0.6,2.1-0.1c4.7,3.5,10.3,5.6,16.1,5.8C61.9,26.6,62.5,27.3,62.5,28.1z"/>
	
		<linearGradient id="SVGID_9_" gradientUnits="userSpaceOnUse" x1="101.2047" y1="100.7951" x2="73.9973" y2="6.3941" gradientTransform="matrix(1 0 0 -1 -41.69 97.9)">
		<stop  offset="0.31" style="stop-color:#0DA152"/>
		<stop  offset="0.92" style="stop-color:#EEEA4B"/>
	</linearGradient>
	<path class="st8" d="M62.5,36.9L62.5,36.9c0,1-0.7,1.7-1.5,1.7c0,0,0,0,0,0c-8.2-0.3-16-3-22.7-7.8c-0.6-0.4-1.1-0.9-1.7-1.3
		c-0.7-0.5-0.8-1.5-0.2-2.2c0,0,0.1-0.1,0.1-0.1l0.1-0.1c0.6-0.6,1.5-0.6,2.1-0.1c1.8,1.4,3.7,2.7,5.8,3.8
		c5.1,2.8,10.7,4.4,16.5,4.6C61.8,35.4,62.5,36.1,62.5,36.9z"/>
	
		<linearGradient id="SVGID_10_" gradientUnits="userSpaceOnUse" x1="64.04" y1="103.8372" x2="34.914" y2="2.7883" gradientTransform="matrix(1 0 0 -1 0 99.26)">
		<stop  offset="0.31" style="stop-color:#0DA152"/>
		<stop  offset="0.92" style="stop-color:#EEEA4B"/>
	</linearGradient>
	<circle class="st9" cx="62.2" cy="2" r="1.6"/>
	
		<linearGradient id="SVGID_11_" gradientUnits="userSpaceOnUse" x1="67.3443" y1="102.8845" x2="38.2183" y2="1.8356" gradientTransform="matrix(1 0 0 -1 0 99.26)">
		<stop  offset="0.31" style="stop-color:#0DA152"/>
		<stop  offset="0.92" style="stop-color:#EEEA4B"/>
	</linearGradient>
	<circle class="st10" cx="38" cy="98" r="1.6"/>
</g>
</svg>
