<svg id="Logo" xmlns="http://www.w3.org/2000/svg" xmlns:xlink="http://www.w3.org/1999/xlink" viewBox="0 0 200.09 280.74"><defs><style>.cls-1{fill:url(#linear-gradient);}.cls-2{fill:url(#linear-gradient-2);}.cls-3{fill:url(#linear-gradient-3);}.cls-4{fill:url(#linear-gradient-4);}.cls-5{fill:url(#linear-gradient-5);}.cls-6{fill:url(#linear-gradient-6);}.cls-7{fill:url(#linear-gradient-7);}.cls-8{fill:url(#linear-gradient-8);}.cls-9{fill:url(#linear-gradient-9);}.cls-10{fill:url(#linear-gradient-10);}.cls-11{fill:url(#linear-gradient-11);}</style><linearGradient id="linear-gradient" x1="187.45" y1="9.51" x2="111.08" y2="274.5" gradientUnits="userSpaceOnUse"><stop offset="0.31" stop-color="#0da152"/><stop offset="0.92" stop-color="#eeea4b"/></linearGradient><linearGradient id="linear-gradient-2" x1="190.2" y1="9.91" x2="114.3" y2="273.25" xlink:href="#linear-gradient"/><linearGradient id="linear-gradient-3" x1="193.55" y1="7.96" x2="117.33" y2="272.41" xlink:href="#linear-gradient"/><linearGradient id="linear-gradient-4" x1="196.94" y1="5.64" x2="120.16" y2="272.03" xlink:href="#linear-gradient"/><linearGradient id="linear-gradient-5" x1="186.38" y1="-12.29" x2="103.17" y2="276.41" xlink:href="#linear-gradient"/><linearGradient id="linear-gradient-6" x1="177.72" y1="-10.11" x2="101.05" y2="255.94" xlink:href="#linear-gradient"/><linearGradient id="linear-gradient-7" x1="174.42" y1="-8.67" x2="98.4" y2="255.08" xlink:href="#linear-gradient"/><linearGradient id="linear-gradient-8" x1="171.34" y1="-7.71" x2="95.23" y2="256.37" xlink:href="#linear-gradient"/><linearGradient id="linear-gradient-9" x1="168.64" y1="-7.69" x2="91.78" y2="258.99" xlink:href="#linear-gradient"/><linearGradient id="linear-gradient-10" x1="139.74" y1="-13.8" x2="57.46" y2="271.66" xlink:href="#linear-gradient"/><linearGradient id="linear-gradient-11" x1="149.07" y1="-11.11" x2="66.79" y2="274.35" xlink:href="#linear-gradient"/></defs><path class="cls-1" d="M125.64,260.57l-.24.23a4.32,4.32,0,0,1-5,.87A31.82,31.82,0,0,0,110,258.6a4.4,4.4,0,0,1-3.91-4.36V254a4.42,4.42,0,0,1,4.91-4.4,43.17,43.17,0,0,1,13.58,3.93A4.39,4.39,0,0,1,125.64,260.57Z" transform="translate(-41.69 -1.36)"/><path class="cls-2" d="M143.88,242.32l-.22.22A4.49,4.49,0,0,1,138,243a57.38,57.38,0,0,0-28-9.47,4.36,4.36,0,0,1-4-4.38v-.39a4.44,4.44,0,0,1,4.78-4.41,67.23,67.23,0,0,1,32.38,11.13A4.43,4.43,0,0,1,143.88,242.32Z" transform="translate(-41.69 -1.36)"/><path class="cls-3" d="M161.86,224.34l-.25.26a4.45,4.45,0,0,1-5.85.33,82,82,0,0,0-45.42-16.37,4.44,4.44,0,0,1-4.29-4.39v-.42a4.38,4.38,0,0,1,4.52-4.41,91.75,91.75,0,0,1,50.77,18.3A4.45,4.45,0,0,1,161.86,224.34Z" transform="translate(-41.69 -1.36)"/><path class="cls-4" d="M179.6,206.6l-.27.27a4.41,4.41,0,0,1-5.93.25,106,106,0,0,0-63-23.7,4.43,4.43,0,0,1-4.32-4.4v-.24a4.4,4.4,0,0,1,4.51-4.42,115.51,115.51,0,0,1,68.77,25.75A4.38,4.38,0,0,1,179.6,206.6Z" transform="translate(-41.69 -1.36)"/><path class="cls-5" d="M240.5,133.44c-10.24,16.05-24,37.65-32.61,51.12a12.48,12.48,0,0,1-18.27,3c-29.38-22.84-87.55-38-139.29-24.9a6.93,6.93,0,0,1-7.53-10.46l32.91-51.55a12.49,12.49,0,0,1,18.9-2.46c38.21,34,94.79,36.67,136.8,23.53A7.88,7.88,0,0,1,240.5,133.44Z" transform="translate(-41.69 -1.36)"/><path class="cls-6" d="M177.12,29.59v.26a4.42,4.42,0,0,1-4.9,4.4,40.91,40.91,0,0,1-13.56-4,4.4,4.4,0,0,1-1-7l.18-.18a4.32,4.32,0,0,1,4.95-.88,32.75,32.75,0,0,0,10.48,3.11A4.4,4.4,0,0,1,177.12,29.59Z" transform="translate(-41.69 -1.36)"/><path class="cls-7" d="M177.12,54.67v.41a4.45,4.45,0,0,1-4.78,4.41,66.08,66.08,0,0,1-32.42-11.15,4.43,4.43,0,0,1-.65-6.8l.25-.25a4.47,4.47,0,0,1,5.65-.48,57.91,57.91,0,0,0,28,9.49A4.34,4.34,0,0,1,177.12,54.67Z" transform="translate(-41.69 -1.36)"/><path class="cls-8" d="M177.12,79.94h0a4.37,4.37,0,0,1-4.52,4.4A91.92,91.92,0,0,1,121.86,66.2a4.44,4.44,0,0,1-.54-6.71l.23-.23a4.44,4.44,0,0,1,5.86-.33,81.44,81.44,0,0,0,45.53,16.52A4.46,4.46,0,0,1,177.12,79.94Z" transform="translate(-41.69 -1.36)"/><path class="cls-9" d="M177.12,104.81v.26a4.4,4.4,0,0,1-4.51,4.42,116,116,0,0,1-64-22c-1.57-1.21-3.14-2.43-4.68-3.68a4.41,4.41,0,0,1-.35-6.55l.28-.28a4.42,4.42,0,0,1,5.92-.26,105.55,105.55,0,0,0,16.32,10.77,105.18,105.18,0,0,0,46.73,13A4.42,4.42,0,0,1,177.12,104.81Z" transform="translate(-41.69 -1.36)"/><circle class="cls-10" cx="134.42" cy="4.66" r="4.66"/><circle class="cls-11" cx="66.3" cy="276.07" r="4.66"/></svg>