<svg xmlns="http://www.w3.org/2000/svg" viewBox="0 0 750 500"><g id="freepik--background-simple--inject-2"><path d="M713.12,425.68c5.67-64.74,2.35-132.83-11.65-196.24C681.66,139.68,625.91,73,536.36,46.09c-48.62-14.62-103.95-20.18-151.86,0-57.18,24.14-85.11,85-119.54,132.44-8.24,11.36-16.54,18.34-31.07,18.08-18.2-.33-36.51-4.13-54.77-2.77-30.64,2.27-42.65,24.38-48.55,51.59-2.11,9.73-5.49,20-13.49,25.89-3.34,2.47-7.27,4-11.15,5.5-31,12-50.15,19.74-65.27,50-10.5,36.73-7.87,100.57-7.87,100.57H721.87Z" style="fill:#50B615"></path><path d="M713.12,425.68c5.67-64.74,2.35-132.83-11.65-196.24C681.66,139.68,625.91,73,536.36,46.09c-48.62-14.62-103.95-20.18-151.86,0-57.18,24.14-85.11,85-119.54,132.44-8.24,11.36-16.54,18.34-31.07,18.08-18.2-.33-36.51-4.13-54.77-2.77-30.64,2.27-42.65,24.38-48.55,51.59-2.11,9.73-5.49,20-13.49,25.89-3.34,2.47-7.27,4-11.15,5.5-31,12-50.15,19.74-65.27,50-10.5,36.73-7.87,100.57-7.87,100.57H721.87Z" style="fill:#fff;opacity:0.8"></path></g><g id="freepik--Clouds--inject-2"><path d="M430,118.61c-7.34-33-45.37-57.58-78.51-52.87-8.26,1.18-16.3,4.27-22.51,10-8.46,7.78-6.45,16.62-10.64,26.27-1.17,2.68-3.44,5.06-6.32,5.55-8.24,1.42-14.88-6.8-23.23-6.86-6.24-.05-14.22,3.4-17.7,8.79-3.24,5-1,13.78-6.81,17.11-6.53,3.72-14.46-3.36-21.52-.8-8.76,3.19-4.78,9.56-8,13.54s-9.56,2.4-18.33,1.6-15.93,9.56-15.93,9.56H477s2.39-4-8-19.92-24.7-4.78-31.07-4.78S430,118.62,430,118.61Z" style="fill:none;stroke:#263238;stroke-miterlimit:10"></path><path d="M656.58,164.33c-4-17.87-24.57-31.18-42.53-28.63a22.43,22.43,0,0,0-12.18,5.4c-4.59,4.22-3.5,9-5.77,14.23a4.89,4.89,0,0,1-3.42,3c-4.47.76-8.06-3.69-12.58-3.72-3.38,0-7.71,1.84-9.59,4.76-1.76,2.72-.53,7.46-3.69,9.27-3.54,2-7.83-1.82-11.65-.43-4.75,1.72-2.59,5.17-4.32,7.33s-5.18,1.3-9.93.87-8.63,5.17-8.63,5.17H682s1.3-2.15-4.31-10.78-13.38-2.59-16.83-2.59S656.58,164.34,656.58,164.33Z" style="fill:none;stroke:#263238;stroke-miterlimit:10"></path><path d="M223.41,231c-2.75-12.33-16.95-21.51-29.33-19.75a15.47,15.47,0,0,0-8.41,3.73c-3.16,2.9-2.41,6.21-4,9.81a3.34,3.34,0,0,1-2.35,2.07c-3.08.53-5.56-2.54-8.68-2.56a8.4,8.4,0,0,0-6.61,3.28c-1.21,1.88-.37,5.15-2.55,6.39-2.44,1.4-5.4-1.25-8-.29-3.27,1.19-1.78,3.57-3,5.06s-3.57.89-6.85.59-5.95,3.57-5.95,3.57H241s.89-1.49-3-7.44-9.23-1.78-11.61-1.78S223.41,231,223.41,231Z" style="fill:none;stroke:#263238;stroke-miterlimit:10"></path></g><g id="freepik--Trees--inject-2"><path d="M458.22,173.4c-64.08,0-116,51.59-116,115.23a114.39,114.39,0,0,0,29.53,76.81,88.53,88.53,0,0,1,40.64,3.7,111.45,111.45,0,0,1,39.47,23.05h10.39a111.56,111.56,0,0,1,39.47-23.05,88.57,88.57,0,0,1,42.71-3.38,114.34,114.34,0,0,0,29.83-77.13C574.24,225,522.3,173.4,458.22,173.4Z" style="fill:#50B615"></path><path d="M458.22,173.4c-64.08,0-116,51.59-116,115.23a114.39,114.39,0,0,0,29.53,76.81,88.53,88.53,0,0,1,40.64,3.7,111.45,111.45,0,0,1,39.47,23.05h10.39a111.56,111.56,0,0,1,39.47-23.05,88.57,88.57,0,0,1,42.71-3.38,114.34,114.34,0,0,0,29.83-77.13C574.24,225,522.3,173.4,458.22,173.4Z" style="fill:#fff;opacity:0.5"></path><path d="M512.23,334.85q-5.36,2.59-10.6,5.38a104.4,104.4,0,0,0-10.14,6.25c-1.21.84-2.4,1.71-3.58,2.58l19-35.41-26.08,40.84q-4,3.19-7.78,6.51c-4.21,3.67-8.31,7.4-12.32,11.25l-1.33-38.41,27.29-41.54L459.2,328,458,293.65l-2,38.47h0l-2,38.56q-5.22-4.95-10.66-9.69c-2.86-2.48-5.78-4.93-8.76-7.3L410,311.57l18.12,37.17c-1-.76-2.07-1.52-3.14-2.26a104.24,104.24,0,0,0-10.13-6.25q-5.24-2.79-10.6-5.38a217.33,217.33,0,0,0-21.95-9.28,214.81,214.81,0,0,1,21.15,10.55q5.13,2.89,10.12,6a98.9,98.9,0,0,1,9.39,6.67,204.85,204.85,0,0,1,17,15.31c4.73,4.69,9.32,9.54,13.7,14.47l-2.49,48.93h11.43L461,380.51c4.9-5.6,10.11-11.13,15.47-16.45a206.46,206.46,0,0,1,17-15.31,99,99,0,0,1,9.4-6.67c3.32-2.05,6.7-4,10.11-6a215,215,0,0,1,21.16-10.55A217.33,217.33,0,0,0,512.23,334.85Z" style="fill:#263238"></path><path d="M96,255c-43.5,0-78.76,35-78.76,78.22a77.65,77.65,0,0,0,20,52.13,60.09,60.09,0,0,1,27.59,2.51A75.56,75.56,0,0,1,91.7,403.52h7.06a75.76,75.76,0,0,1,26.79-15.65,60.17,60.17,0,0,1,29-2.29,77.6,77.6,0,0,0,20.25-52.35C174.79,290,139.53,255,96,255Z" style="fill:#50B615"></path><path d="M96,255c-43.5,0-78.76,35-78.76,78.22a77.65,77.65,0,0,0,20,52.13,60.09,60.09,0,0,1,27.59,2.51A75.56,75.56,0,0,1,91.7,403.52h7.06a75.76,75.76,0,0,1,26.79-15.65,60.17,60.17,0,0,1,29-2.29,77.6,77.6,0,0,0,20.25-52.35C174.79,290,139.53,255,96,255Z" style="fill:#fff;opacity:0.5"></path><path d="M132.7,364.6c-2.43,1.17-4.83,2.38-7.2,3.65a69.72,69.72,0,0,0-6.88,4.24c-.82.57-1.63,1.16-2.43,1.75l12.9-24-17.7,27.72c-1.8,1.44-3.56,2.92-5.29,4.42-2.86,2.49-5.64,5-8.36,7.64l-.9-26.08,18.52-28.2L96.7,360l-.8-23.34-1.33,26.11h0l-1.33,26.17c-2.37-2.24-4.78-4.42-7.24-6.57-2-1.69-3.92-3.35-6-5L63.31,348.79,75.61,374c-.71-.51-1.41-1-2.13-1.53a69.72,69.72,0,0,0-6.88-4.24c-2.37-1.27-4.77-2.48-7.2-3.65a145.84,145.84,0,0,0-14.9-6.3,145.51,145.51,0,0,1,14.36,7.16c2.32,1.31,4.61,2.65,6.87,4A68.5,68.5,0,0,1,72.1,374a137.85,137.85,0,0,1,11.57,10.4c3.2,3.18,6.32,6.47,9.29,9.82l-1.69,33.21H99l-1.1-31.87c3.33-3.8,6.87-7.55,10.5-11.16A139.31,139.31,0,0,1,120,374a68.65,68.65,0,0,1,6.38-4.53c2.26-1.39,4.55-2.73,6.87-4a145.51,145.51,0,0,1,14.36-7.16A145.84,145.84,0,0,0,132.7,364.6Z" style="fill:#263238"></path></g><g id="freepik--House--inject-2"><rect x="501.47" y="360.82" width="119.62" height="50.79" style="fill:#c2c2c2;stroke:#263238;stroke-miterlimit:10"></rect><rect x="483.34" y="357.54" width="140.89" height="6.71" style="fill:#fff;stroke:#263238;stroke-miterlimit:10"></rect><polygon points="521.24 312.39 473.42 359.62 577.21 359.62 576.41 363.99 624.43 363.99 624.43 310.04 523.43 310.04 521.24 312.39" style="fill:#263238;stroke:#263238;stroke-miterlimit:10"></polygon><rect x="523.1" y="310.04" width="102.05" height="33.86" style="fill:#50B615;stroke:#263238;stroke-miterlimit:10"></rect><polygon points="661.57 315.18 513.29 315.18 526.83 268.94 661.57 268.94 661.57 315.18" style="fill:#263238;stroke:#263238;stroke-miterlimit:10"></polygon><rect x="532.83" y="317.28" width="12.84" height="24.79" style="fill:#263238;stroke:#263238;stroke-miterlimit:10"></rect><rect x="533.82" y="318.19" width="4.74" height="6.97" style="fill:#fff;stroke:#263238;stroke-miterlimit:10"></rect><rect x="539.92" y="318.19" width="4.74" height="6.97" style="fill:#fff;stroke:#263238;stroke-miterlimit:10"></rect><rect x="533.82" y="326.13" width="4.74" height="6.97" style="fill:#fff;stroke:#263238;stroke-miterlimit:10"></rect><rect x="539.92" y="326.13" width="4.74" height="6.97" style="fill:#fff;stroke:#263238;stroke-miterlimit:10"></rect><rect x="533.82" y="334.07" width="4.74" height="6.97" style="fill:#fff;stroke:#263238;stroke-miterlimit:10"></rect><rect x="539.92" y="334.07" width="4.74" height="6.97" style="fill:#fff;stroke:#263238;stroke-miterlimit:10"></rect><rect x="562.41" y="317.28" width="12.84" height="24.79" style="fill:#263238;stroke:#263238;stroke-miterlimit:10"></rect><rect x="563.41" y="318.19" width="4.74" height="6.97" style="fill:#fff;stroke:#263238;stroke-miterlimit:10"></rect><rect x="569.51" y="318.19" width="4.74" height="6.97" style="fill:#fff;stroke:#263238;stroke-miterlimit:10"></rect><rect x="563.41" y="326.13" width="4.74" height="6.97" style="fill:#fff;stroke:#263238;stroke-miterlimit:10"></rect><rect x="569.51" y="326.13" width="4.74" height="6.97" style="fill:#fff;stroke:#263238;stroke-miterlimit:10"></rect><rect x="563.41" y="334.07" width="4.74" height="6.97" style="fill:#fff;stroke:#263238;stroke-miterlimit:10"></rect><rect x="569.51" y="334.07" width="4.74" height="6.97" style="fill:#fff;stroke:#263238;stroke-miterlimit:10"></rect><rect x="591.99" y="317.28" width="12.84" height="24.79" style="fill:#263238;stroke:#263238;stroke-miterlimit:10"></rect><rect x="592.99" y="318.19" width="4.74" height="6.97" style="fill:#fff;stroke:#263238;stroke-miterlimit:10"></rect><rect x="599.09" y="318.19" width="4.74" height="6.97" style="fill:#fff;stroke:#263238;stroke-miterlimit:10"></rect><rect x="592.99" y="326.13" width="4.74" height="6.97" style="fill:#fff;stroke:#263238;stroke-miterlimit:10"></rect><rect x="599.09" y="326.13" width="4.74" height="6.97" style="fill:#fff;stroke:#263238;stroke-miterlimit:10"></rect><rect x="592.99" y="334.07" width="4.74" height="6.97" style="fill:#fff;stroke:#263238;stroke-miterlimit:10"></rect><rect x="599.09" y="334.07" width="4.74" height="6.97" style="fill:#fff;stroke:#263238;stroke-miterlimit:10"></rect><rect x="482.74" y="411.6" width="141.56" height="15.86" style="fill:#50B615;stroke:#263238;stroke-miterlimit:10"></rect><rect x="577.84" y="411.6" width="46.46" height="15.86" style="fill:#fff;stroke:#263238;stroke-miterlimit:10"></rect><rect x="577.84" y="411.6" width="46.46" height="10.32" style="fill:#fff;stroke:#263238;stroke-miterlimit:10"></rect><rect x="577.84" y="411.6" width="46.46" height="4.83" style="fill:#fff;stroke:#263238;stroke-miterlimit:10"></rect><rect x="696.27" y="350.29" width="28.58" height="77.1" style="fill:#50B615;stroke:#263238;stroke-miterlimit:10"></rect><polygon points="693.31 352.89 737.17 352.89 693.64 314.58 693.31 352.89" style="fill:#263238;stroke:#263238;stroke-miterlimit:10"></polygon><rect x="699.88" y="369.35" width="12.84" height="24.79" style="fill:#263238;stroke:#263238;stroke-miterlimit:10"></rect><rect x="700.88" y="370.26" width="4.74" height="6.97" style="fill:#fff;stroke:#263238;stroke-miterlimit:10"></rect><rect x="706.98" y="370.26" width="4.74" height="6.97" style="fill:#fff;stroke:#263238;stroke-miterlimit:10"></rect><rect x="700.88" y="378.2" width="4.74" height="6.97" style="fill:#fff;stroke:#263238;stroke-miterlimit:10"></rect><rect x="706.98" y="378.2" width="4.74" height="6.97" style="fill:#fff;stroke:#263238;stroke-miterlimit:10"></rect><rect x="700.88" y="386.14" width="4.74" height="6.97" style="fill:#fff;stroke:#263238;stroke-miterlimit:10"></rect><rect x="706.98" y="386.14" width="4.74" height="6.97" style="fill:#fff;stroke:#263238;stroke-miterlimit:10"></rect><polygon points="705.12 307.16 694.99 314.25 694.99 291.81 705.12 307.16" style="fill:#c2c2c2;stroke:#263238;stroke-miterlimit:10"></polygon><polygon points="613.5 307.16 623.62 314.25 623.62 291.81 613.5 307.16" style="fill:#c2c2c2;stroke:#263238;stroke-miterlimit:10"></polygon><polygon points="696.27 427.39 620.07 427.39 620.07 297.53 658.37 252.56 696.27 297.53 696.27 427.39" style="fill:#50B615;stroke:#263238;stroke-miterlimit:10"></polygon><polygon points="678.1 275.98 658.37 252.56 638.42 275.98 678.1 275.98" style="fill:#c2c2c2;stroke:#263238;stroke-miterlimit:10"></polygon><rect x="620.07" y="389.49" width="76.2" height="37.9" style="fill:#fff;stroke:#263238;stroke-miterlimit:10"></rect><rect x="638.37" y="367.71" width="12.85" height="31.1" style="fill:#263238;stroke:#263238;stroke-miterlimit:10"></rect><rect x="639.37" y="368.86" width="4.75" height="8.75" style="fill:#fff;stroke:#263238;stroke-miterlimit:10"></rect><rect x="645.48" y="368.86" width="4.75" height="8.75" style="fill:#fff;stroke:#263238;stroke-miterlimit:10"></rect><rect x="639.37" y="378.82" width="4.75" height="8.75" style="fill:#fff;stroke:#263238;stroke-miterlimit:10"></rect><rect x="645.48" y="378.82" width="4.75" height="8.75" style="fill:#fff;stroke:#263238;stroke-miterlimit:10"></rect><rect x="639.37" y="388.78" width="4.75" height="8.75" style="fill:#fff;stroke:#263238;stroke-miterlimit:10"></rect><rect x="645.48" y="388.78" width="4.75" height="8.75" style="fill:#fff;stroke:#263238;stroke-miterlimit:10"></rect><rect x="651.47" y="367.71" width="12.85" height="31.1" style="fill:#263238;stroke:#263238;stroke-miterlimit:10"></rect><rect x="652.47" y="368.86" width="4.75" height="8.75" style="fill:#fff;stroke:#263238;stroke-miterlimit:10"></rect><rect x="658.58" y="368.86" width="4.75" height="8.75" style="fill:#fff;stroke:#263238;stroke-miterlimit:10"></rect><rect x="652.47" y="378.82" width="4.75" height="8.75" style="fill:#fff;stroke:#263238;stroke-miterlimit:10"></rect><rect x="658.58" y="378.82" width="4.75" height="8.75" style="fill:#fff;stroke:#263238;stroke-miterlimit:10"></rect><rect x="652.47" y="388.78" width="4.75" height="8.75" style="fill:#fff;stroke:#263238;stroke-miterlimit:10"></rect><rect x="658.58" y="388.78" width="4.75" height="8.75" style="fill:#fff;stroke:#263238;stroke-miterlimit:10"></rect><rect x="664.58" y="367.71" width="12.85" height="31.1" style="fill:#263238;stroke:#263238;stroke-miterlimit:10"></rect><rect x="665.58" y="368.86" width="4.75" height="8.75" style="fill:#fff;stroke:#263238;stroke-miterlimit:10"></rect><rect x="671.68" y="368.86" width="4.75" height="8.75" style="fill:#fff;stroke:#263238;stroke-miterlimit:10"></rect><rect x="665.58" y="378.82" width="4.75" height="8.75" style="fill:#fff;stroke:#263238;stroke-miterlimit:10"></rect><rect x="671.68" y="378.82" width="4.75" height="8.75" style="fill:#fff;stroke:#263238;stroke-miterlimit:10"></rect><rect x="665.58" y="388.78" width="4.75" height="8.75" style="fill:#fff;stroke:#263238;stroke-miterlimit:10"></rect><rect x="671.68" y="388.78" width="4.75" height="8.75" style="fill:#fff;stroke:#263238;stroke-miterlimit:10"></rect><rect x="636.14" y="401.79" width="43.26" height="2.98" style="fill:#fff;stroke:#263238;stroke-miterlimit:10"></rect><polygon points="612.16 309.42 612.54 309.42 659.06 253.88 705.47 309.27 707.98 306.17 659.06 247.78 609.72 306.69 612.16 309.42" style="fill:#263238;stroke:#263238;stroke-miterlimit:10"></polygon><rect x="485.73" y="366.44" width="3.56" height="42.5" style="fill:#fff;stroke:#263238;stroke-miterlimit:10"></rect><rect x="485" y="364.47" width="5.02" height="2.81" style="fill:#fff;stroke:#263238;stroke-miterlimit:10"></rect><rect x="485" y="408.81" width="5.02" height="2.81" style="fill:#fff;stroke:#263238;stroke-miterlimit:10"></rect><rect x="515.38" y="366.44" width="3.56" height="42.5" style="fill:#fff;stroke:#263238;stroke-miterlimit:10"></rect><rect x="514.65" y="364.47" width="5.03" height="2.81" style="fill:#fff;stroke:#263238;stroke-miterlimit:10"></rect><rect x="514.65" y="408.81" width="5.03" height="2.81" style="fill:#fff;stroke:#263238;stroke-miterlimit:10"></rect><rect x="548.12" y="366.44" width="3.56" height="42.5" style="fill:#fff;stroke:#263238;stroke-miterlimit:10"></rect><rect x="547.39" y="364.47" width="5.02" height="2.81" style="fill:#fff;stroke:#263238;stroke-miterlimit:10"></rect><rect x="547.39" y="408.81" width="5.02" height="2.81" style="fill:#fff;stroke:#263238;stroke-miterlimit:10"></rect><rect x="580.87" y="366.44" width="3.56" height="42.5" style="fill:#fff;stroke:#263238;stroke-miterlimit:10"></rect><rect x="580.14" y="364.47" width="5.03" height="2.81" style="fill:#fff;stroke:#263238;stroke-miterlimit:10"></rect><rect x="580.14" y="408.81" width="5.03" height="2.81" style="fill:#fff;stroke:#263238;stroke-miterlimit:10"></rect><rect x="613.61" y="366.44" width="3.56" height="42.5" style="fill:#fff;stroke:#263238;stroke-miterlimit:10"></rect><rect x="612.88" y="364.47" width="5.03" height="2.81" style="fill:#fff;stroke:#263238;stroke-miterlimit:10"></rect><rect x="612.88" y="408.81" width="5.03" height="2.81" style="fill:#fff;stroke:#263238;stroke-miterlimit:10"></rect><rect x="592.83" y="369.59" width="14.85" height="41.84" style="fill:#878787;stroke:#263238;stroke-miterlimit:10"></rect><rect x="593.84" y="372.83" width="12.84" height="24.79" style="fill:#263238;stroke:#263238;stroke-miterlimit:10"></rect><rect x="594.84" y="373.74" width="4.74" height="6.97" style="fill:#fff;stroke:#263238;stroke-miterlimit:10"></rect><rect x="600.94" y="373.74" width="4.74" height="6.97" style="fill:#fff;stroke:#263238;stroke-miterlimit:10"></rect><rect x="594.84" y="381.68" width="4.74" height="6.97" style="fill:#fff;stroke:#263238;stroke-miterlimit:10"></rect><rect x="600.94" y="381.68" width="4.74" height="6.97" style="fill:#fff;stroke:#263238;stroke-miterlimit:10"></rect><rect x="594.84" y="389.62" width="4.74" height="6.97" style="fill:#fff;stroke:#263238;stroke-miterlimit:10"></rect><rect x="600.94" y="389.62" width="4.74" height="6.97" style="fill:#fff;stroke:#263238;stroke-miterlimit:10"></rect><rect x="652.26" y="301.24" width="12.85" height="31.1" style="fill:#263238;stroke:#263238;stroke-miterlimit:10"></rect><rect x="653.26" y="302.38" width="4.75" height="8.75" style="fill:#fff;stroke:#263238;stroke-miterlimit:10"></rect><rect x="659.37" y="302.38" width="4.75" height="8.75" style="fill:#fff;stroke:#263238;stroke-miterlimit:10"></rect><rect x="653.26" y="312.34" width="4.75" height="8.75" style="fill:#fff;stroke:#263238;stroke-miterlimit:10"></rect><rect x="659.37" y="312.34" width="4.75" height="8.75" style="fill:#fff;stroke:#263238;stroke-miterlimit:10"></rect><rect x="653.26" y="322.3" width="4.75" height="8.75" style="fill:#fff;stroke:#263238;stroke-miterlimit:10"></rect><rect x="659.37" y="322.3" width="4.75" height="8.75" style="fill:#fff;stroke:#263238;stroke-miterlimit:10"></rect><polygon points="634.75 363.29 633.76 383.73 635.35 383.73 636.54 363.29 634.75 363.29" style="fill:#fff;stroke:#263238;stroke-miterlimit:10"></polygon><polygon points="683.97 363.29 680.99 383.73 682.58 383.73 685.75 363.29 683.97 363.29" style="fill:#fff;stroke:#263238;stroke-miterlimit:10"></polygon><polygon points="690.91 364.88 633.96 364.88 631.18 343.85 685.55 343.85 690.91 364.88" style="fill:#263238;stroke:#263238;stroke-miterlimit:10"></polygon></g><g id="freepik--Tractor--inject-2"><rect x="51.62" y="390.4" width="17.26" height="22.67" style="fill:#263238;stroke:#263238;stroke-miterlimit:10;stroke-width:0.75px"></rect><rect x="58.22" y="391.96" width="1.04" height="21.11" style="fill:#fff;stroke:#263238;stroke-miterlimit:10;stroke-width:0.75px"></rect><rect x="51.62" y="390.4" width="17.26" height="1.69" style="fill:#50B615;stroke:#263238;stroke-miterlimit:10;stroke-width:0.75px"></rect><path d="M61.16,418.37h27.2V408.05s-6.07-4-19.58-2.8v5.69H63s-1.74-6.27-5.79-8-12.54-1.84-18,6.56h1.07a8,8,0,0,1,5.49-1.84h9.84v10.71Z" style="fill:#50B615;stroke:#263238;stroke-miterlimit:10;stroke-width:0.75px"></path><polygon points="65.5 407.57 65.5 402.65 64.35 401.39 62.61 402.07 63.79 400.78 65.6 398.79 64.93 400.33 66.76 400.91 66.76 399.27 67.81 399.27 67.81 391.96 52.69 391.96 52.69 398.11 54.8 398.11 54.8 400.33 59.72 400.33 59.72 402.94 52.69 402.94 52.69 413.06 67.81 413.06 67.81 407.57 65.5 407.57" style="fill:#fff;stroke:#263238;stroke-miterlimit:10;stroke-width:0.75px"></polygon><path d="M62.9,412v9.17h5.5V412Zm4.86,1.06v1.84H63.54v-1.84Zm0,2.41v1.74H63.54v-1.74Zm-4.22,4.63v-2.31h4.22v2.31Z" style="fill:#50B615;stroke:#263238;stroke-miterlimit:10;stroke-width:0.75px"></path><path d="M39.17,409.5s3.86-5.7,12.45-5.6,10,6.37,10,6.37v3H45.15L44.77,408s-3.38.39-4.53,1.55Z" style="fill:#263238;stroke:#263238;stroke-miterlimit:10;stroke-width:0.75px"></path><circle cx="50.84" cy="416.44" r="11" style="fill:#263238;stroke:#263238;stroke-miterlimit:10;stroke-width:0.75px"></circle><circle cx="50.84" cy="416.44" r="6.41" style="fill:#fff;stroke:#263238;stroke-miterlimit:10;stroke-width:0.75px"></circle><circle cx="82" cy="419.53" r="7.91" transform="translate(-336.97 334.74) rotate(-67.5)" style="fill:#263238;stroke:#263238;stroke-miterlimit:10;stroke-width:0.75px"></circle><path d="M86.61,419.53a4.61,4.61,0,1,0-4.61,4.6A4.61,4.61,0,0,0,86.61,419.53Z" style="fill:#fff;stroke:#263238;stroke-miterlimit:10;stroke-width:0.75px"></path></g><g id="freepik--farm-house--inject-2"><polygon points="302.19 312.59 319.9 327.32 334.63 370.71 320.69 370.71 302.19 312.59" style="fill:#263238;stroke:#263238;stroke-miterlimit:10"></polygon><rect x="305.6" y="346.82" width="100.75" height="40.55" style="fill:#c2c2c2;stroke:#263238;stroke-miterlimit:10"></rect><rect x="305.6" y="386.92" width="95.75" height="40.55" style="fill:#50B615;stroke:#263238;stroke-miterlimit:10"></rect><rect x="305.6" y="386.92" width="33.36" height="40.55" style="fill:#263238;stroke:#263238;stroke-miterlimit:10"></rect><rect x="305.6" y="386.92" width="95.75" height="5.53" style="fill:#263238;stroke:#263238;stroke-miterlimit:10"></rect><polygon points="305.6 387.36 332.03 387.36 331.91 381.26 320.17 346.82 305.6 346.82 305.6 387.36" style="fill:#263238;stroke:#263238;stroke-miterlimit:10"></polygon><rect x="305.6" y="383.97" width="100.75" height="3.39" style="fill:#fff;stroke:#263238;stroke-miterlimit:10"></rect><polygon points="331.91 381.26 331.91 427.46 142.55 427.46 142.55 381.26 149.17 381.26 149 381.05 172.8 314.03 215.45 293.49 236.69 283.26 259.54 294.26 300.58 314.03 324.27 381.05 324.1 381.26 331.91 381.26" style="fill:#50B615;stroke:#263238;stroke-miterlimit:10"></polygon><rect x="330.91" y="381.26" width="2" height="46.2" style="fill:#fff;stroke:#263238;stroke-miterlimit:10"></rect><rect x="141.55" y="381.26" width="2" height="46.2" style="fill:#fff;stroke:#263238;stroke-miterlimit:10"></rect><rect x="269.75" y="394.06" width="11.12" height="13.89" style="fill:#fff;stroke:#263238;stroke-miterlimit:10"></rect><rect x="271.94" y="396.8" width="6.73" height="8.41" style="fill:#263238"></rect><line x1="275.23" y1="395.05" x2="275.23" y2="406.7" style="fill:none;stroke:#fff;stroke-miterlimit:10"></line><line x1="270.41" y1="401.13" x2="279.79" y2="401.13" style="fill:none;stroke:#fff;stroke-miterlimit:10"></line><rect x="297.3" y="394.06" width="11.12" height="13.89" style="fill:#fff;stroke:#263238;stroke-miterlimit:10"></rect><rect x="299.5" y="396.8" width="6.73" height="8.41" style="fill:#263238"></rect><line x1="302.79" y1="395.05" x2="302.79" y2="406.7" style="fill:none;stroke:#fff;stroke-miterlimit:10"></line><line x1="297.97" y1="401.13" x2="307.35" y2="401.13" style="fill:none;stroke:#fff;stroke-miterlimit:10"></line><rect x="221.76" y="344.91" width="27.79" height="30.33" style="fill:#fff;stroke:#263238;stroke-miterlimit:10"></rect><rect x="225.18" y="348.64" width="20.96" height="22.87" style="fill:#263238"></rect><line x1="223.06" y1="374.19" x2="247.61" y2="347.71" style="fill:none;stroke:#fff;stroke-miterlimit:10"></line><line x1="248.02" y1="373.07" x2="223.54" y2="347.31" style="fill:none;stroke:#fff;stroke-miterlimit:10"></line><rect x="356.64" y="392.45" width="16.27" height="17.75" style="fill:#fff;stroke:#263238;stroke-miterlimit:10"></rect><rect x="358.64" y="394.63" width="12.27" height="13.39" style="fill:#263238"></rect><line x1="357.4" y1="409.58" x2="371.77" y2="394.08" style="fill:none;stroke:#fff;stroke-miterlimit:10"></line><line x1="372.01" y1="408.93" x2="357.68" y2="393.85" style="fill:none;stroke:#fff;stroke-miterlimit:10"></line><rect x="356.64" y="409.71" width="16.27" height="17.75" style="fill:#fff;stroke:#263238;stroke-miterlimit:10"></rect><rect x="358.64" y="411.89" width="12.27" height="13.39" style="fill:#263238"></rect><line x1="357.4" y1="426.84" x2="371.77" y2="411.34" style="fill:none;stroke:#fff;stroke-miterlimit:10"></line><line x1="372.01" y1="426.19" x2="357.68" y2="411.11" style="fill:none;stroke:#fff;stroke-miterlimit:10"></line><rect x="269.13" y="314.45" width="11.12" height="13.89" style="fill:#fff;stroke:#263238;stroke-miterlimit:10"></rect><rect x="271.33" y="317.19" width="6.73" height="8.41" style="fill:#263238"></rect><line x1="274.62" y1="315.44" x2="274.62" y2="327.09" style="fill:none;stroke:#fff;stroke-miterlimit:10"></line><line x1="269.8" y1="321.52" x2="279.18" y2="321.52" style="fill:none;stroke:#fff;stroke-miterlimit:10"></line><rect x="187.54" y="314.45" width="11.12" height="13.89" style="fill:#fff;stroke:#263238;stroke-miterlimit:10"></rect><rect x="189.74" y="317.19" width="6.73" height="8.41" style="fill:#263238"></rect><line x1="193.03" y1="315.44" x2="193.03" y2="327.09" style="fill:none;stroke:#fff;stroke-miterlimit:10"></line><line x1="188.21" y1="321.52" x2="197.59" y2="321.52" style="fill:none;stroke:#fff;stroke-miterlimit:10"></line><rect x="158.73" y="394.06" width="11.11" height="13.89" style="fill:#fff;stroke:#263238;stroke-miterlimit:10"></rect><rect x="160.92" y="396.8" width="6.73" height="8.41" style="fill:#263238"></rect><line x1="164.21" y1="395.05" x2="164.21" y2="406.7" style="fill:none;stroke:#fff;stroke-miterlimit:10"></line><line x1="159.4" y1="401.13" x2="168.77" y2="401.13" style="fill:none;stroke:#fff;stroke-miterlimit:10"></line><rect x="186.29" y="394.06" width="11.11" height="13.89" style="fill:#fff;stroke:#263238;stroke-miterlimit:10"></rect><rect x="188.48" y="396.8" width="6.73" height="8.41" style="fill:#263238"></rect><line x1="191.77" y1="395.05" x2="191.77" y2="406.7" style="fill:none;stroke:#fff;stroke-miterlimit:10"></line><line x1="186.95" y1="401.13" x2="196.33" y2="401.13" style="fill:none;stroke:#fff;stroke-miterlimit:10"></line><rect x="192.51" y="392.03" width="80.38" height="35.43" style="fill:#fff;stroke:#263238;stroke-miterlimit:10"></rect><rect x="207.69" y="392.03" width="50.02" height="35.43" style="fill:#263238;stroke:#263238;stroke-miterlimit:10"></rect><polygon points="259.54 294.26 259.54 330.18 215.45 330.18 215.45 293.49 236.69 283.26 259.54 294.26" style="fill:none;stroke:#fff;stroke-miterlimit:10"></polygon><polygon points="157.23 380.66 180.38 315.48 241.98 285.81 237.24 283.52 214.65 293.88 173.41 313.74 150.14 379.26 149.63 379.26 149 381.05 149.17 381.26 144.83 381.26 144.83 383.26 159.34 383.26 157.23 380.66" style="fill:#263238;stroke:#263238;stroke-miterlimit:10"></polygon><polygon points="334.76 383.26 319.91 383.26 322.01 380.66 298.97 315.48 236.69 285.48 174.41 315.48 151.26 380.66 153.37 383.26 138.86 383.26 138.86 379.26 147.51 379.26 171.19 312.59 236.69 281.04 302.19 312.59 325.76 379.26 334.76 379.26 334.76 383.26" style="fill:#fff;stroke:#263238;stroke-miterlimit:10"></polygon><polygon points="325.88 383.26 331.91 383.26 331.91 381.26 327.5 381.26 325.88 383.26" style="fill:#fff;stroke:#263238;stroke-miterlimit:10"></polygon></g><g id="freepik--Windmill--inject-2"><polygon points="124.3 131.31 130.88 153.9 135.05 152.14 132.2 126.83 124.3 131.31" style="fill:#263238"></polygon><polygon points="112.02 138.81 125.92 157.79 129.24 154.72 117.9 131.91 112.02 138.81" style="fill:#263238"></polygon><polygon points="103.04 150.07 122.59 163.14 124.66 159.12 106.2 141.56 103.04 150.07" style="fill:#263238"></polygon><polygon points="98.45 163.71 121.3 169.31 121.86 164.82 98.51 154.64 98.45 163.71" style="fill:#263238"></polygon><polygon points="98.8 178.1 122.18 175.55 121.18 171.14 95.76 169.55 98.8 178.1" style="fill:#263238"></polygon><polygon points="104.05 191.51 125.15 181.11 122.7 177.31 98.27 184.51 104.05 191.51" style="fill:#263238"></polygon><polygon points="113.58 202.3 129.85 185.31 126.24 182.58 105.75 197.71 113.58 202.3" style="fill:#263238"></polygon><polygon points="126.22 209.19 135.69 187.66 131.38 186.33 117.29 207.55 126.22 209.19" style="fill:#263238"></polygon><polygon points="140.45 211.34 141.99 187.87 137.48 188.09 131.5 212.85 140.45 211.34" style="fill:#263238"></polygon><polygon points="154.56 208.5 147.99 185.91 143.82 187.67 146.67 212.98 154.56 208.5" style="fill:#263238"></polygon><polygon points="166.85 201 152.94 182.02 149.63 185.09 160.96 207.91 166.85 201" style="fill:#263238"></polygon><polygon points="175.83 189.74 156.27 176.67 154.21 180.69 172.66 198.25 175.83 189.74" style="fill:#263238"></polygon><polygon points="180.42 176.1 157.57 170.5 157.01 174.99 180.35 185.18 180.42 176.1" style="fill:#263238"></polygon><polygon points="180.07 161.71 156.68 164.26 157.69 168.67 183.11 170.26 180.07 161.71" style="fill:#263238"></polygon><polygon points="174.81 148.3 153.71 158.7 156.16 162.5 180.59 155.3 174.81 148.3" style="fill:#263238"></polygon><polygon points="165.29 137.51 149.02 154.5 152.62 157.23 173.12 142.1 165.29 137.51" style="fill:#263238"></polygon><polygon points="152.65 130.62 143.17 152.15 147.49 153.48 161.58 132.26 152.65 130.62" style="fill:#263238"></polygon><polygon points="138.41 128.47 136.87 151.94 141.39 151.72 147.37 126.96 138.41 128.47" style="fill:#263238"></polygon><circle cx="139.43" cy="169.91" r="32.92" style="fill:none;stroke:#263238;stroke-miterlimit:10"></circle><circle cx="139.43" cy="169.91" r="18.2" style="fill:none;stroke:#263238;stroke-miterlimit:10"></circle><line x1="139.23" y1="175.04" x2="105.89" y2="427.42" style="fill:none;stroke:#263238;stroke-miterlimit:10"></line><line x1="139.23" y1="175.04" x2="172.57" y2="427.42" style="fill:none;stroke:#263238;stroke-miterlimit:10"></line><line x1="139.23" y1="175.04" x2="139.23" y2="427.46" style="fill:none;stroke:#263238;stroke-miterlimit:10;stroke-width:3px"></line><polygon points="133.81 177.51 144.65 177.51 144.65 171.59 136.27 156.8 131.83 156.8 133.81 171.1 133.81 177.51" style="fill:#263238;stroke:#263238;stroke-miterlimit:10"></polygon><polygon points="86.48 172.09 95.35 181.45 89.44 194.76 52.46 205.12 49.5 174.55 86.48 172.09" style="fill:#c2c2c2;stroke:#263238;stroke-miterlimit:10"></polygon><line x1="139.23" y1="182.44" x2="79.08" y2="182.44" style="fill:#fff;stroke:#263238;stroke-miterlimit:10"></line><line x1="123.45" y1="226.81" x2="154.51" y2="226.81" style="fill:#fff;stroke:#263238;stroke-miterlimit:10;stroke-width:2px"></line><line x1="129.86" y1="246.53" x2="149.12" y2="246.53" style="fill:#fff;stroke:#263238;stroke-miterlimit:10"></line><line x1="127.36" y1="268.29" x2="151.62" y2="268.29" style="fill:#fff;stroke:#263238;stroke-miterlimit:10"></line><line x1="123.11" y1="299.56" x2="155.87" y2="299.56" style="fill:#fff;stroke:#263238;stroke-miterlimit:10"></line><line x1="117.61" y1="339.58" x2="161.37" y2="339.58" style="fill:#fff;stroke:#263238;stroke-miterlimit:10"></line><line x1="110.59" y1="387.11" x2="167.13" y2="387.11" style="fill:#fff;stroke:#263238;stroke-miterlimit:10"></line></g><g id="freepik--Floor--inject-2"><line x1="21.2" y1="427.46" x2="740.94" y2="427.46" style="fill:#fff;stroke:#263238;stroke-miterlimit:10"></line></g></svg>
