<svg xmlns="http://www.w3.org/2000/svg" viewBox="0 0 750 500"><g id="freepik--background-complete--inject-2"><polygon points="76.44 356.61 59.96 348.58 54.5 324.49 49.9 325.56 53.89 348.32 38.1 339.25 34.64 342.62 55.54 353.91 76.44 362.22 76.44 356.61" style="fill:#ebebeb"></polygon><polygon points="83.1 423.53 71.03 423.53 74.15 321.47 86.22 321.47 83.1 423.53" style="fill:#ebebeb"></polygon><path d="M76.89,67.59c0,1.4-32.4,88.11-32.4,88.11l16.2-14L37.35,202.32l15.38-18.18-18.12,76,8.78-7.93L28,305.81l13.18-14L28,331.92l104.33-6.53-24.71-75.52,14.93,14-19.32-55,9.88,4.66L90.62,142.65l10.43,6.06Z" style="fill:#e0e0e0"></path><path d="M80.39,222.36a7.25,7.25,0,0,1-.52,1.29c-.41.9-1,2.07-1.63,3.51L72.4,239.31l-.26.53-.32-.51a57.3,57.3,0,0,1-4.26-8c-.46-1.08-.89-2.15-1.26-3.18l.64,0c-2.88,6.23-5.7,11.66-7.82,15.51-1.06,1.93-1.94,3.46-2.57,4.51l-.73,1.2a1.85,1.85,0,0,1-.3.41,10.32,10.32,0,0,1,.81-1.69l2.38-4.59c2-3.89,4.75-9.33,7.6-15.56l.35-.76.29.78c.37,1,.79,2.08,1.25,3.15a60.9,60.9,0,0,0,4.19,8l-.58,0c2.43-4.83,4.53-9,6.06-12.06l1.81-3.45A7.32,7.32,0,0,1,80.39,222.36Z" style="fill:#ebebeb"></path><path d="M91.51,190a4.43,4.43,0,0,1-.59-.94l-1.5-2.65c-1.3-2.25-3.19-5.4-5.65-8.91l.6-.07c-.52,1.71-1.08,3.54-1.67,5.45-.37,1.19-.73,2.35-1.07,3.47l-.24.77-.39-.73c-2.22-4.2-4.15-7.91-5.5-10.56l-1.57-3.14a5.73,5.73,0,0,1-.49-1.17,5.58,5.58,0,0,1,.71,1.08c.46.82,1,1.84,1.75,3.07,1.46,2.62,3.46,6.29,5.71,10.49l-.63,0c.34-1.12.7-2.28,1.06-3.47.6-1.9,1.17-3.74,1.7-5.44l.2-.65.39.58a85.46,85.46,0,0,1,5.46,9.05c.6,1.15,1,2.07,1.33,2.72A4,4,0,0,1,91.51,190Z" style="fill:#ebebeb"></path><path d="M76.73,123.56a21.61,21.61,0,0,1-1.85,3.09c-1.21,1.88-2.95,4.51-4.95,7.48l-.46.68-.16-.77q-.27-1.29-.57-2.67c-.32-1.58-.63-3.09-.92-4.5l.59.1c-1.86,2.5-3.48,4.64-4.65,6.15a19.4,19.4,0,0,1-2,2.35,16,16,0,0,1,1.61-2.53c1.08-1.56,2.63-3.74,4.45-6.26l.44-.61.15.71c.3,1.4.63,2.92,1,4.49.19.92.38,1.81.56,2.67l-.62-.09c2-3,3.84-5.55,5.16-7.39A22,22,0,0,1,76.73,123.56Z" style="fill:#ebebeb"></path><polygon points="553.35 356.61 536.88 348.58 531.41 324.49 526.82 325.56 530.8 348.32 515.02 339.25 511.56 342.62 532.45 353.91 553.35 362.22 553.35 356.61" style="fill:#ebebeb"></polygon><polygon points="560.01 423.53 547.94 423.53 551.07 321.47 563.14 321.47 560.01 423.53" style="fill:#ebebeb"></polygon><path d="M553.81,67.59c0,1.4-32.4,88.11-32.4,88.11l16.2-14-23.34,60.61,15.37-18.18-18.12,76,8.79-7.93-15.38,53.61,13.18-14-13.18,40.09,104.34-6.53-24.71-75.52,14.92,14-19.32-55,9.89,4.66-22.52-70.86L578,148.71Z" style="fill:#e0e0e0"></path><path d="M557.3,222.36a5.87,5.87,0,0,1-.51,1.29l-1.63,3.51-5.84,12.15-.26.53-.32-.51a56.27,56.27,0,0,1-4.26-8c-.47-1.08-.89-2.15-1.26-3.18l.64,0c-2.88,6.23-5.7,11.66-7.82,15.51-1.06,1.93-1.95,3.46-2.57,4.51l-.74,1.2a1.68,1.68,0,0,1-.29.41,10.67,10.67,0,0,1,.8-1.69c.61-1.16,1.41-2.7,2.38-4.59,2-3.89,4.75-9.33,7.61-15.56l.35-.76.29.78c.36,1,.79,2.08,1.25,3.15a59.7,59.7,0,0,0,4.18,8l-.58,0c2.44-4.83,4.53-9,6.07-12.06l1.8-3.45A8.31,8.31,0,0,1,557.3,222.36Z" style="fill:#ebebeb"></path><path d="M568.42,190a5,5,0,0,1-.59-.94l-1.5-2.65c-1.29-2.25-3.18-5.4-5.64-8.91l.59-.07-1.66,5.45-1.08,3.47-.24.77-.39-.73c-2.22-4.2-4.15-7.91-5.5-10.56-.62-1.26-1.15-2.31-1.56-3.14a5.07,5.07,0,0,1-.49-1.17,5.58,5.58,0,0,1,.71,1.08l1.74,3.07c1.46,2.62,3.46,6.29,5.72,10.49l-.63,0c.34-1.12.7-2.28,1.06-3.47l1.69-5.44.2-.65.4.58a87.21,87.21,0,0,1,5.46,9.05c.59,1.15,1,2.07,1.33,2.72A3.7,3.7,0,0,1,568.42,190Z" style="fill:#ebebeb"></path><path d="M553.64,123.56a20.82,20.82,0,0,1-1.84,3.09c-1.22,1.88-2.95,4.51-5,7.48l-.45.68-.17-.77c-.18-.86-.37-1.75-.56-2.67-.33-1.58-.64-3.09-.93-4.5l.6.1c-1.87,2.5-3.49,4.64-4.66,6.15a17.36,17.36,0,0,1-2,2.35,16.67,16.67,0,0,1,1.62-2.53c1.07-1.56,2.62-3.74,4.45-6.26l.44-.61.15.71c.3,1.4.62,2.92,1,4.49.19.92.37,1.81.55,2.67l-.62-.09c2-3,3.84-5.55,5.16-7.39A24.33,24.33,0,0,1,553.64,123.56Z" style="fill:#ebebeb"></path><polygon points="654.93 365.89 640.75 358.97 636.04 338.23 632.08 339.15 635.52 358.75 621.92 350.94 618.94 353.84 636.94 363.56 654.93 370.72 654.93 365.89" style="fill:#ebebeb"></polygon><polygon points="660.67 423.53 650.28 423.53 652.97 335.62 663.36 335.62 660.67 423.53" style="fill:#ebebeb"></polygon><path d="M655.33,117c0,1.21-27.91,75.9-27.91,75.9l14-12L621.27,233l13.25-15.66-15.61,65.45,7.57-6.83-13.25,46.18,11.35-12-11.35,34.53L703.1,339,681.81,274l12.86,12L678,238.62l8.51,4-19.39-61,9,5.22Z" style="fill:#e0e0e0"></path><path d="M658.34,250.26a6.25,6.25,0,0,1-.44,1.11l-1.41,3-5,10.46-.22.46-.28-.44a50.65,50.65,0,0,1-3.67-6.93c-.4-.93-.76-1.85-1.08-2.73h.55c-2.48,5.37-4.91,10-6.74,13.36-.91,1.66-1.67,3-2.21,3.89l-.63,1a1.55,1.55,0,0,1-.26.35,10.11,10.11,0,0,1,.7-1.46c.51-1,1.21-2.32,2-3.95,1.73-3.35,4.09-8,6.55-13.4l.3-.66.25.68c.31.88.68,1.79,1.07,2.71a52.06,52.06,0,0,0,3.61,6.87l-.5,0c2.1-4.16,3.9-7.75,5.22-10.38l1.56-3A6.59,6.59,0,0,1,658.34,250.26Z" style="fill:#ebebeb"></path><path d="M667.92,222.39a3.55,3.55,0,0,1-.51-.81l-1.29-2.28c-1.12-1.94-2.75-4.65-4.87-7.68l.52-.06c-.45,1.47-.93,3.05-1.44,4.69-.31,1-.62,2-.92,3l-.21.67-.33-.63c-1.92-3.62-3.58-6.81-4.74-9.1-.54-1.08-1-2-1.35-2.7a4.63,4.63,0,0,1-.42-1,4.93,4.93,0,0,1,.61.94l1.5,2.64c1.26,2.25,3,5.42,4.92,9l-.54,0c.3-1,.6-2,.92-3,.51-1.64,1-3.22,1.45-4.69l.18-.56.34.5a76,76,0,0,1,4.7,7.79c.51,1,.9,1.79,1.14,2.35A3.33,3.33,0,0,1,667.92,222.39Z" style="fill:#ebebeb"></path><path d="M655.19,165.17a19.28,19.28,0,0,1-1.59,2.65c-1.05,1.63-2.54,3.89-4.27,6.45l-.39.58-.14-.66c-.16-.74-.32-1.51-.49-2.3l-.8-3.87.51.08c-1.6,2.16-3,4-4,5.3a16,16,0,0,1-1.68,2,13.27,13.27,0,0,1,1.39-2.18c.92-1.34,2.26-3.22,3.83-5.39l.38-.53.13.61.83,3.88c.16.78.32,1.55.47,2.3l-.53-.08c1.75-2.56,3.31-4.79,4.44-6.37A19.18,19.18,0,0,1,655.19,165.17Z" style="fill:#ebebeb"></path><polygon points="156.07 364.57 142.46 357.94 137.95 338.04 134.15 338.93 137.45 357.72 124.41 350.24 121.55 353.02 138.81 362.34 156.07 369.2 156.07 364.57" style="fill:#ebebeb"></polygon><polygon points="161.57 419.85 151.6 419.85 154.18 335.54 164.16 335.54 161.57 419.85" style="fill:#ebebeb"></polygon><path d="M156.45,125.83c0,1.16-26.76,72.79-26.76,72.79l13.38-11.56-19.28,50.06,12.7-15-15,62.76,7.26-6.54-12.7,44.28L127,311.06l-10.88,33.12,86.18-5.39L181.85,276.4,194.18,288l-16-45.44,8.16,3.85-18.59-58.54,8.62,5Z" style="fill:#e0e0e0"></path><path d="M159.34,253.68a5.26,5.26,0,0,1-.43,1.06l-1.35,2.91-4.82,10-.21.45-.27-.43a47.47,47.47,0,0,1-3.52-6.63c-.38-.9-.73-1.78-1-2.63l.53,0c-2.38,5.14-4.71,9.63-6.46,12.81-.88,1.59-1.61,2.86-2.12,3.72l-.61,1a1.79,1.79,0,0,1-.24.33,7.54,7.54,0,0,1,.66-1.4l2-3.78c1.66-3.22,3.92-7.71,6.28-12.86l.29-.63.24.65c.3.84.65,1.72,1,2.6a49.63,49.63,0,0,0,3.46,6.59l-.48,0,5-10,1.49-2.86A5.37,5.37,0,0,1,159.34,253.68Z" style="fill:#ebebeb"></path><path d="M168.52,226.94a3.61,3.61,0,0,1-.49-.77L166.8,224c-1.07-1.86-2.64-4.46-4.67-7.36l.49-.06-1.37,4.51c-.31,1-.6,1.93-.89,2.86l-.2.64-.32-.6c-1.84-3.48-3.43-6.54-4.54-8.73L154,212.65a3.86,3.86,0,0,1-.41-1,4.63,4.63,0,0,1,.58.9c.39.67.87,1.52,1.45,2.53,1.2,2.16,2.86,5.2,4.72,8.66l-.52,0,.87-2.87c.49-1.57,1-3.08,1.4-4.49l.17-.54.33.48a71.27,71.27,0,0,1,4.5,7.47c.5.95.86,1.72,1.1,2.25A3.11,3.11,0,0,1,168.52,226.94Z" style="fill:#ebebeb"></path><path d="M156.31,172.07a17.17,17.17,0,0,1-1.52,2.54c-1,1.57-2.44,3.73-4.09,6.19l-.38.56-.14-.64-.46-2.2L149,174.8l.49.08c-1.54,2.07-2.88,3.84-3.84,5.09A14.85,14.85,0,0,1,144,181.9a14.37,14.37,0,0,1,1.33-2.08c.89-1.29,2.17-3.09,3.68-5.18l.36-.5.13.58c.25,1.16.51,2.41.79,3.72.16.75.31,1.49.46,2.2l-.51-.07c1.67-2.45,3.17-4.59,4.26-6.11A19.1,19.1,0,0,1,156.31,172.07Z" style="fill:#ebebeb"></path><path d="M388.83,63.45c.53-3.86-4.92-7-9-7.36-1.95-.16-4,.14-5.83-.51-4-1.39-5.61-6.57-9.52-8.22-2.92-1.23-6.28-.13-9.12,1.29s-5.63,3.22-8.8,3.43c-2.75.17-5.74-.85-8.15.5-1.79,1-2.73,3.07-4.39,4.29a10.51,10.51,0,0,1-5.74,1.55,16.13,16.13,0,0,0-5.91,1c-1.83.84-3.34,2.77-3,4.75Z" style="fill:#f5f5f5"></path><path d="M194.14,47.61c.53-3.86-4.92-7-9-7.37-1.95-.16-4,.14-5.83-.5-4-1.4-5.61-6.57-9.52-8.22-2.92-1.24-6.28-.14-9.12,1.29S155,36,151.86,36.23c-2.75.18-5.74-.84-8.15.5-1.79,1-2.73,3.07-4.39,4.29a10.43,10.43,0,0,1-5.74,1.56,16.3,16.3,0,0,0-5.91,1c-1.83.84-3.34,2.78-3,4.75Z" style="fill:#f5f5f5"></path><path d="M698.09,81.72c.53-3.86-4.91-7-9-7.37-2-.15-4,.14-5.83-.5-4-1.4-5.6-6.57-9.51-8.22-2.92-1.23-6.29-.14-9.12,1.29s-5.64,3.22-8.8,3.42c-2.75.18-5.74-.84-8.15.5-1.8,1-2.74,3.07-4.39,4.29a10.43,10.43,0,0,1-5.74,1.56,16.14,16.14,0,0,0-5.92,1c-1.83.83-3.34,2.77-3,4.74Z" style="fill:#f5f5f5"></path><path d="M499,93c.68-5.73-6.26-10.44-11.47-10.93-2.49-.23-5.07.21-7.42-.75C475,79.21,473,71.53,468,69.08c-3.73-1.83-8-.2-11.62,1.92s-7.17,4.78-11.2,5.08c-3.51.26-7.32-1.26-10.39.74-2.28,1.49-3.48,4.56-5.59,6.37s-4.75,2.15-7.31,2.31-5.2.19-7.53,1.43a7.11,7.11,0,0,0-3.77,7Z" style="fill:#f5f5f5"></path></g><g id="freepik--Floor--inject-2"><path d="M698.52,426.67c0,.15-150.49.26-336.09.26s-336.11-.11-336.11-.26,150.45-.26,336.11-.26S698.52,426.53,698.52,426.67Z" style="fill:#263238"></path></g><g id="freepik--Shed--inject-2"><polygon points="282.93 426.5 280.82 205.9 421.74 137.03 541.61 210.3 541.61 426.01 282.93 426.5" style="fill:#72C03A"></polygon><polygon points="185.23 426.5 292.92 426.5 292.92 196.49 185.23 208.89 185.23 426.5" style="fill:#72C03A"></polygon><path d="M542.87,280.25c0,.15-80.15.26-179,.26s-179-.11-179-.26,80.13-.26,179-.26S542.87,280.11,542.87,280.25Z" style="fill:#263238"></path><path d="M542.87,296.59c0,.15-80.15.26-179,.26s-179-.11-179-.26,80.13-.26,179-.26S542.87,296.45,542.87,296.59Z" style="fill:#263238"></path><path d="M542.87,312.93c0,.15-80.15.26-179,.26s-179-.11-179-.26,80.13-.26,179-.26S542.87,312.79,542.87,312.93Z" style="fill:#263238"></path><path d="M542.87,329.27c0,.15-80.15.26-179,.26s-179-.11-179-.26,80.13-.26,179-.26S542.87,329.13,542.87,329.27Z" style="fill:#263238"></path><path d="M542.87,345.61c0,.15-80.15.26-179,.26s-179-.11-179-.26,80.13-.26,179-.26S542.87,345.47,542.87,345.61Z" style="fill:#263238"></path><path d="M542.87,362c0,.15-80.15.26-179,.26s-179-.11-179-.26,80.13-.26,179-.26S542.87,361.81,542.87,362Z" style="fill:#263238"></path><path d="M542.87,378.29c0,.15-80.15.27-179,.27s-179-.12-179-.27,80.13-.26,179-.26S542.87,378.15,542.87,378.29Z" style="fill:#263238"></path><path d="M542.87,394.64c0,.14-80.15.26-179,.26s-179-.12-179-.26,80.13-.27,179-.27S542.87,394.49,542.87,394.64Z" style="fill:#263238"></path><path d="M542.87,411c0,.14-80.15.26-179,.26s-179-.12-179-.26,80.13-.26,179-.26S542.87,410.83,542.87,411Z" style="fill:#263238"></path><path d="M542.87,280.25c0,.15-80.15.26-179,.26s-179-.11-179-.26,80.13-.26,179-.26S542.87,280.11,542.87,280.25Z" style="fill:#263238"></path><path d="M542.87,264.9c0,.14-80.15.26-179,.26s-179-.12-179-.26,80.13-.26,179-.26S542.87,264.76,542.87,264.9Z" style="fill:#263238"></path><path d="M542.87,264.9c0,.14-80.15.26-179,.26s-179-.12-179-.26,80.13-.26,179-.26S542.87,264.76,542.87,264.9Z" style="fill:#263238"></path><path d="M542.87,249.55c0,.14-80.15.26-179,.26s-179-.12-179-.26,80.13-.26,179-.26S542.87,249.41,542.87,249.55Z" style="fill:#263238"></path><path d="M542.87,249.55c0,.14-80.15.26-179,.26s-179-.12-179-.26,80.13-.26,179-.26S542.87,249.41,542.87,249.55Z" style="fill:#263238"></path><path d="M542.87,234.2c0,.14-80.15.26-179,.26s-179-.12-179-.26,80.13-.26,179-.26S542.87,234.05,542.87,234.2Z" style="fill:#263238"></path><path d="M542.87,234.2c0,.14-80.15.26-179,.26s-179-.12-179-.26,80.13-.26,179-.26S542.87,234.05,542.87,234.2Z" style="fill:#263238"></path><path d="M542.87,218.85c0,.14-80.15.26-179,.26s-179-.12-179-.26,80.13-.27,179-.27S542.87,218.7,542.87,218.85Z" style="fill:#263238"></path><path d="M542.87,218.85c0,.14-80.15.26-179,.26s-179-.12-179-.26,80.13-.27,179-.27S542.87,218.7,542.87,218.85Z" style="fill:#263238"></path><path d="M534.51,203.49c0,.15-75.85.26-169.39.26s-169.41-.11-169.41-.26,75.83-.26,169.41-.26S534.51,203.35,534.51,203.49Z" style="fill:#263238"></path><path d="M504.44,188.14c0,.15-52.85.26-118,.26s-118-.11-118-.26,52.84-.26,118-.26S504.44,188,504.44,188.14Z" style="fill:#263238"></path><path d="M504.44,188.14c0,.15-52.85.26-118,.26s-118-.11-118-.26,52.84-.26,118-.26S504.44,188,504.44,188.14Z" style="fill:#263238"></path><path d="M487.67,172.79c0,.14-49.09.26-109.64.26s-109.65-.12-109.65-.26,49.09-.26,109.65-.26S487.67,172.65,487.67,172.79Z" style="fill:#263238"></path><path d="M463.11,157.44c0,.14-43.59.26-97.36.26s-97.37-.12-97.37-.26,43.59-.26,97.37-.26S463.11,157.29,463.11,157.44Z" style="fill:#263238"></path><path d="M463.11,157.44c0,.14-43.59.26-97.36.26s-97.37-.12-97.37-.26,43.59-.26,97.37-.26S463.11,157.29,463.11,157.44Z" style="fill:#263238"></path><path d="M542.87,296.59c0,.15-80.15.26-179,.26s-179-.11-179-.26,80.13-.26,179-.26S542.87,296.45,542.87,296.59Z" style="fill:#263238"></path><path d="M542.87,312.93c0,.15-80.15.26-179,.26s-179-.11-179-.26,80.13-.26,179-.26S542.87,312.79,542.87,312.93Z" style="fill:#263238"></path><path d="M542.87,329.27c0,.15-80.15.26-179,.26s-179-.11-179-.26,80.13-.26,179-.26S542.87,329.13,542.87,329.27Z" style="fill:#263238"></path><path d="M542.87,345.61c0,.15-80.15.26-179,.26s-179-.11-179-.26,80.13-.26,179-.26S542.87,345.47,542.87,345.61Z" style="fill:#263238"></path><path d="M542.87,362c0,.15-80.15.26-179,.26s-179-.11-179-.26,80.13-.26,179-.26S542.87,361.81,542.87,362Z" style="fill:#263238"></path><path d="M542.87,378.29c0,.15-80.15.27-179,.27s-179-.12-179-.27,80.13-.26,179-.26S542.87,378.15,542.87,378.29Z" style="fill:#263238"></path><path d="M542.87,394.64c0,.14-80.15.26-179,.26s-179-.12-179-.26,80.13-.27,179-.27S542.87,394.49,542.87,394.64Z" style="fill:#263238"></path><path d="M542.87,411c0,.14-80.15.26-179,.26s-179-.12-179-.26,80.13-.26,179-.26S542.87,410.83,542.87,411Z" style="fill:#263238"></path><rect x="268.98" y="233.38" width="7.65" height="193.11" style="fill:#fff"></rect><g style="opacity:0.30000000000000004"><rect x="185.28" y="215.4" width="87.32" height="211.09"></rect></g><rect x="539.25" y="221.44" width="4.72" height="205.06" style="fill:#ebebeb"></rect><path d="M272.6,426.5c-.14,0-.26-44.66-.26-99.73s.12-99.74.26-99.74.26,44.65.26,99.74S272.75,426.5,272.6,426.5Z" style="fill:#263238"></path><g style="opacity:0.30000000000000004"><path d="M261.8,349.63c-2.48-7.74-7.08-14.76-13.94-19.28a27.36,27.36,0,0,0-2.72-1.57v-4H218.08v2a63.75,63.75,0,0,0-12,3.75,87.61,87.61,0,0,0-11.62,6c-2.14,1.32-.17,4.7,2,3.38a86.93,86.93,0,0,1,11-5.78c-.17.19-.36.38-.52.58-5.35,6.28-8,14.89-9.26,22.92-1.36,8.51-1.06,17.43,2,25.55a37.48,37.48,0,0,0,13.25,17.27,29.46,29.46,0,0,0,20.33,5.5,33.38,33.38,0,0,0,19.89-10.16C264.6,383.9,266.68,364.91,261.8,349.63ZM218.08,336v1.24h27.06v-1.17l.16.17.31.36c.23.27.13.16.13.16a30.3,30.3,0,0,1,4.49,9.36,48.75,48.75,0,0,1,1,21.69c-1.17,6.93-3.81,14-9.16,18.77-4.67,4.2-11.61,6.46-17.75,4.53-6.53-2-10.35-8.63-12.66-14.65C206.45,363,206.62,346.25,218.08,336Zm38.78,47.22c-5.41,12.25-18.69,21.72-32.44,18.32-13.51-3.34-22.07-16.4-23.4-29.7a56.09,56.09,0,0,1,2.86-23.16c2-6.18,5.41-12.82,11.5-15.79a0,0,0,0,0,0,.05s.13,0,.3,0a32.51,32.51,0,0,0-6.19,7.26c-4.41,7.06-5.74,15.76-4.86,23.94.85,7.95,3.4,16.48,8.24,23a21.54,21.54,0,0,0,8.48,7.1,19.65,19.65,0,0,0,10.93,1.25c7.57-1.17,13.95-6.16,17.81-12.66,4.1-6.92,5.61-15.21,5.73-23.16a45,45,0,0,0-4.1-20.42s0-.16-.12-.39c.45.52.88,1.05,1.28,1.59,4.43,6.07,6.64,13.54,7.25,21A45.42,45.42,0,0,1,256.86,383.23Z"></path></g><rect x="321.15" y="225.79" width="99.76" height="200.71" style="fill:#fff"></rect><rect x="326.14" y="230.34" width="89.73" height="196.16" style="fill:#ae7461"></rect><path d="M336.43,426.5c-.15,0-.26-43.72-.26-97.62s.11-97.63.26-97.63.26,43.7.26,97.63S336.57,426.5,336.43,426.5Z"></path><path d="M350,426.5c-.14,0-.26-43.72-.26-97.62s.12-97.63.26-97.63.26,43.7.26,97.63S350.11,426.5,350,426.5Z"></path><path d="M363.51,426.5c-.14,0-.26-43.72-.26-97.62s.12-97.63.26-97.63.26,43.7.26,97.63S363.66,426.5,363.51,426.5Z"></path><path d="M377.06,426.5c-.15,0-.26-43.72-.26-97.62s.11-97.63.26-97.63.26,43.7.26,97.63S377.2,426.5,377.06,426.5Z"></path><path d="M390.6,426.5c-.14,0-.26-43.72-.26-97.62s.12-97.63.26-97.63.26,43.7.26,97.63S390.74,426.5,390.6,426.5Z"></path><path d="M404.14,426.5c-.14,0-.26-43.72-.26-97.62s.12-97.63.26-97.63.26,43.7.26,97.63S404.29,426.5,404.14,426.5Z"></path><polygon points="340.82 257.19 326.14 257.19 326.14 249.68 340.82 249.68 344.14 253.2 340.82 257.19" style="fill:#e0e0e0"></polygon><polygon points="340.82 305.81 326.14 305.81 326.14 298.3 340.82 298.3 344.14 301.82 340.82 305.81" style="fill:#e0e0e0"></polygon><polygon points="340.82 350.97 326.14 350.97 326.14 343.45 340.82 343.45 344.14 346.97 340.82 350.97" style="fill:#e0e0e0"></polygon><polygon points="340.82 399.68 326.14 399.68 326.14 392.16 340.82 392.16 344.14 395.68 340.82 399.68" style="fill:#e0e0e0"></polygon><rect x="316.76" y="225.79" width="4.38" height="200.71" style="fill:#e0e0e0"></rect><g style="opacity:0.30000000000000004"><path d="M338.69,253.85a1.87,1.87,0,1,1-1.87-1.87A1.87,1.87,0,0,1,338.69,253.85Z"></path></g><g style="opacity:0.30000000000000004"><path d="M338.69,302.76a1.87,1.87,0,1,1-1.87-1.87A1.87,1.87,0,0,1,338.69,302.76Z"></path></g><g style="opacity:0.30000000000000004"><path d="M338.69,347.1a1.88,1.88,0,1,1-1.87-1.69A1.79,1.79,0,0,1,338.69,347.1Z"></path></g><g style="opacity:0.30000000000000004"><path d="M338.69,395.92a1.88,1.88,0,1,1-1.87-1.68A1.78,1.78,0,0,1,338.69,395.92Z"></path></g><rect x="445.32" y="239.57" width="3.81" height="74.41" style="fill:#e0e0e0"></rect><rect x="449.14" y="239.57" width="75.26" height="74.41" style="fill:#fff"></rect><rect x="454.77" y="245.56" width="64.34" height="62.92" style="fill:#455a64"></rect><rect x="516.28" y="245.56" width="2.83" height="62.92" style="fill:#e0e0e0"></rect><rect x="453.25" y="277.4" width="66.54" height="3.38" style="fill:#fff"></rect><rect x="453.69" y="275.71" width="66.54" height="3.38" transform="translate(764.36 -209.56) rotate(90)" style="fill:#fff"></rect><g style="opacity:0.30000000000000004"><path d="M473,245.56s1.68,19.65,0,20.72S454.17,277,454.17,277V245.56Z" style="fill:#fff"></path></g><g style="opacity:0.30000000000000004"><polygon points="185.2 243.06 185.2 231.64 275.3 228.51 427.01 141.32 543.85 222.92 543.85 236.04 426.04 157.47 281.71 243.84 185.2 243.06"></polygon></g><polygon points="426.24 126.06 317.52 127.23 158.78 220.59 273.41 220.6 426.24 126.06" style="fill:#72C03A"></polygon><polygon points="273.44 220.6 277.68 233.46 426.24 142.85 559.14 237.31 567.16 227.84 426.24 126.06 273.44 220.6" style="fill:#ebebeb"></polygon><path d="M426,126.31a61.35,61.35,0,0,1,.26,8.06,61.35,61.35,0,0,1-.26,8.06,63.5,63.5,0,0,1-.26-8.06A63.5,63.5,0,0,1,426,126.31Z" style="fill:#263238"></path><path d="M398.07,142.43c0,.15-24.13.26-53.89.26s-53.89-.11-53.89-.26,24.12-.26,53.89-.26S398.07,142.29,398.07,142.43Z" style="fill:#263238"></path><path d="M357.31,166.91c0,.15-24,.26-53.63.26s-53.63-.11-53.63-.26,24-.26,53.63-.26S357.31,166.77,357.31,166.91Z" style="fill:#263238"></path><path d="M313.26,195.61c0,.14-25,.26-55.75.26s-55.75-.12-55.75-.26,25-.26,55.75-.26S313.26,195.46,313.26,195.61Z" style="fill:#263238"></path><path d="M260.75,196c.07.12-8.8,5.73-19.81,12.51s-20,12.2-20.08,12.08,8.79-5.73,19.81-12.52S260.67,195.9,260.75,196Z" style="fill:#263238"></path><path d="M337.07,142.59c.08.12-8.79,5.72-19.81,12.51s-20,12.2-20.08,12.07S306,161.45,317,154.66,337,142.47,337.07,142.59Z" style="fill:#263238"></path><path d="M338.23,167.43a2.32,2.32,0,0,1-.45.34l-1.32.87-4.94,3.13c-4.18,2.62-10,6.2-16.4,10.12s-12.27,7.43-16.53,9.92-6.95,3.95-7,3.79c0,0,.67-.36,1.85-1.08l5-3,16.45-10,16.48-10,5-3,1.38-.79A2.55,2.55,0,0,1,338.23,167.43Z" style="fill:#263238"></path><path d="M394.69,126.4c.07.13-6.27,3.83-14.16,8.26s-14.35,7.93-14.42,7.8,6.27-3.82,14.16-8.26S394.62,126.28,394.69,126.4Z" style="fill:#263238"></path><path d="M340.59,126.88c.07.12-6.1,3.72-13.78,8s-14,7.71-14,7.58,6.1-3.72,13.78-8S340.51,126.75,340.59,126.88Z" style="fill:#263238"></path><path d="M267.52,166.86s-.14.13-.45.34l-1.32.87-4.94,3.13c-4.18,2.62-10,6.2-16.4,10.12s-12.27,7.43-16.53,9.92-6.95,3.95-7,3.79c0,0,.66-.36,1.84-1.08l5-3,16.45-10,16.48-10,5-3,1.38-.79A2.55,2.55,0,0,1,267.52,166.86Z" style="fill:#263238"></path><polygon points="277.62 233.46 168.91 232.39 158.8 220.6 273.41 220.6 277.62 233.46" style="fill:#fff"></polygon><g style="opacity:0.30000000000000004"><polygon points="277.49 233.46 168.78 232.39 158.66 220.6 273.25 220.6 277.49 233.46"></polygon></g><path d="M226.39,324c-7.46-3.17-15.79,0-20.86,5.93-5.35,6.29-8,14.9-9.26,22.92-1.36,8.51-1.06,17.43,2,25.56a37.44,37.44,0,0,0,13.25,17.26,29.46,29.46,0,0,0,20.33,5.5A33.38,33.38,0,0,0,251.76,391c11.45-11.9,13.53-30.89,8.64-46.17-2.47-7.74-7.07-14.76-13.93-19.28A25.72,25.72,0,0,0,225,322.12,30.8,30.8,0,0,0,208.1,335.4c-4.41,7.06-5.74,15.75-4.86,23.93.85,8,3.39,16.48,8.24,23a21.32,21.32,0,0,0,8.48,7.1,19.71,19.71,0,0,0,10.92,1.26c7.58-1.18,14-6.17,17.81-12.67,4.1-6.92,5.62-15.21,5.74-23.16s-1.41-16.49-5.77-23.42a19.89,19.89,0,0,0-8.81-7.54c-11.19-5.06-24.25-2.74-35.17,1.87a86.44,86.44,0,0,0-11.62,6c-2.14,1.31-.18,4.69,2,3.37,10.53-6.47,23.48-11.89,36.12-9.82a24.44,24.44,0,0,1,10.52,4.11,17.51,17.51,0,0,1,1.54,1.32c.23.23.47.47.69.72s.21.24.31.37l.13.15a30.3,30.3,0,0,1,4.49,9.36,48.75,48.75,0,0,1,1,21.69c-1.17,6.93-3.82,14-9.16,18.77-4.68,4.2-11.62,6.46-17.75,4.54-6.53-2-10.35-8.64-12.66-14.65-5.2-13.59-5-30.43,6.65-40.65,4.81-4.22,11.24-6.72,17.67-5.92,6.77.83,13,5.05,16.93,10.49,4.44,6.06,6.65,13.53,7.26,21a45.29,45.29,0,0,1-3.28,21.87c-5.4,12.25-18.68,21.72-32.43,18.32-13.51-3.34-22.07-16.4-23.4-29.69a56.12,56.12,0,0,1,2.86-23.17c2.16-6.56,5.82-13.64,12.65-16.3a12.47,12.47,0,0,1,9.28-.23,2,2,0,0,0,2.67-.7,2,2,0,0,0-.7-2.67Z" style="fill:#455a64"></path><rect x="216.69" y="319.95" width="27.06" height="12.51" style="fill:#263238"></rect><path d="M194.21,335.07c-.13-.07.15-.83-.2-1.66a2,2,0,0,0-.64-.87c-.22-.17-.41-.17-.43-.25s.21-.23.6-.1a1.76,1.76,0,0,1,1,1,2,2,0,0,1,0,1.39C194.45,335,194.27,335.1,194.21,335.07Z" style="fill:#263238"></path><path d="M216.86,325.08c0,.15-2.45,1-5.45,2.21s-5.39,2.34-5.47,2.2a32.19,32.19,0,0,1,10.92-4.41Z" style="fill:#263238"></path><path d="M218.08,326.63c0,.16-.93.38-2,.8s-2,.86-2.06.73.69-.8,1.87-1.24A3.41,3.41,0,0,1,218.08,326.63Z" style="fill:#263238"></path><path d="M242.24,327.54a12,12,0,0,1,8.09,6.87,33.61,33.61,0,0,0-3.59-4A33.07,33.07,0,0,0,242.24,327.54Z" style="fill:#263238"></path><path d="M459.07,393.67a8.53,8.53,0,0,1,4.68-2.36,10.34,10.34,0,0,1-2.58,4.9,8.38,8.38,0,0,1-4.5,2.12A8.47,8.47,0,0,1,459.07,393.67Z" style="fill:#455a64"></path><path d="M461.8,393.09l-.23.16c-.16.1-.37.27-.63.47a22.19,22.19,0,0,0-1.9,1.75,20.55,20.55,0,0,0-1.67,2l-.46.64-.15.25a1.9,1.9,0,0,0,.18-.22l.48-.62a24.94,24.94,0,0,1,1.69-1.95,22.7,22.7,0,0,1,1.88-1.76c.25-.22.45-.39.6-.5Z" style="fill:#263238"></path><path d="M454.11,397a8.61,8.61,0,0,0-5.09-1.27,10.45,10.45,0,0,0,3.59,4.22,8.54,8.54,0,0,0,4.87,1.07A8.55,8.55,0,0,0,454.11,397Z" style="fill:#455a64"></path><path d="M451.31,397l.27.1c.17.07.41.18.71.33a19.91,19.91,0,0,1,2.24,1.28,20.88,20.88,0,0,1,2.07,1.55c.25.22.45.4.58.53a.94.94,0,0,1,.2.2l-.22-.18-.6-.49a24.25,24.25,0,0,0-2.08-1.53c-.84-.55-1.64-1-2.22-1.3l-.7-.36Z" style="fill:#263238"></path><path d="M449.91,389.14a8.33,8.33,0,0,0-5.13.1,10.26,10.26,0,0,0,4.47,3.06,8.31,8.31,0,0,0,4.86-.23A8.36,8.36,0,0,0,449.91,389.14Z" style="fill:#455a64"></path><path d="M447.27,389.88l.28,0c.18,0,.44.07.76.13a20,20,0,0,1,2.44.64,20.72,20.72,0,0,1,2.35.94l.68.35.24.14-.26-.11-.69-.32c-.59-.26-1.41-.6-2.35-.91a24.85,24.85,0,0,0-2.42-.67l-.75-.15Z" style="fill:#263238"></path><path d="M449.8,381.77s.69,4.31,1.67,4.55,1.89-.22,2.52-.07.82-.08,1-.84,1.42-1.83.66-2.85-4.6-2-4.6-2Z" style="fill:#fff"></path><path d="M447.93,379.81s-4-1.76-4.73-1.07-.85,1.72-1.32,2.16-.37.74.16,1.31.77,2.19,2,2.1,4.2-2.77,4.2-2.77Z" style="fill:#fff"></path><path d="M451.08,380.59s4.14,1.4,4.8.65.69-1.78,1.12-2.26.31-.77-.27-1.3-1-2.11-2.21-1.91-3.94,3.13-3.94,3.13Z" style="fill:#fff"></path><path d="M450.69,379s3.29-2.88,3-3.84-1.2-1.49-1.4-2.1-.51-.65-1.26-.42-2.3-.22-2.76,1,.74,5,.74,5Z" style="fill:#fff"></path><path d="M448.1,381.34s-3.29,2.88-3,3.83,1.2,1.49,1.4,2.1.51.66,1.26.42,2.3.23,2.76-1-.74-5-.74-5Z" style="fill:#fff"></path><path d="M449.08,378.57s-1.05-4.24-2.05-4.39-1.87.38-2.51.28-.81.16-.94.93-1.26,1.94-.42,2.89,4.76,1.62,4.76,1.62Z" style="fill:#fff"></path><path d="M447.62,379.85a2,2,0,1,1,1.4,2.46A2,2,0,0,1,447.62,379.85Z" style="fill:#fff"></path><path d="M450,379.77a15.64,15.64,0,0,1,1.46-1.54,14,14,0,0,1,1.49-1.53,6.29,6.29,0,0,1-1.3,1.71A6,6,0,0,1,450,379.77Z" style="fill:#263238"></path><path d="M448.26,376.23a5.91,5.91,0,0,1,.6,1.64,6,6,0,0,1,.33,1.72,6.09,6.09,0,0,1-.59-1.64A5.83,5.83,0,0,1,448.26,376.23Z" style="fill:#263238"></path><path d="M443.82,378.48a15.82,15.82,0,0,1,2.45.66,14.74,14.74,0,0,1,2.41.82,17.1,17.1,0,0,1-4.86-1.48Z" style="fill:#263238"></path><path d="M446.11,383.16a7.85,7.85,0,0,1,1.26-1.14,7.59,7.59,0,0,1,1.35-1,4.48,4.48,0,0,1-1.18,1.26A4.27,4.27,0,0,1,446.11,383.16Z" style="fill:#263238"></path><path d="M449.66,381.18a16.83,16.83,0,0,1,1,4,7.15,7.15,0,0,1-.63-1.95A7.84,7.84,0,0,1,449.66,381.18Z" style="fill:#263238"></path><path d="M450.12,380.48a6.14,6.14,0,0,1,1.79.28,6.44,6.44,0,0,1,1.73.54,5.76,5.76,0,0,1-1.79-.28A6.6,6.6,0,0,1,450.12,380.48Z" style="fill:#263238"></path><path d="M448.48,380.23a1,1,0,0,1,1.22-.69,1,1,0,0,1-.53,1.91A1,1,0,0,1,448.48,380.23Z" style="fill:#72C03A"></path><path d="M475.07,406.07c-.05,0,.12-.8.29-2.08a29.92,29.92,0,0,0,.23-5,28.76,28.76,0,0,0-.67-5c-.28-1.26-.51-2-.46-2.05a1.86,1.86,0,0,1,.22.52c.13.34.29.85.46,1.48a24,24,0,0,1,.44,10.12,15,15,0,0,1-.33,1.51A1.92,1.92,0,0,1,475.07,406.07Z" style="fill:#263238"></path><path d="M462.7,382.68s-.57.66-1.43,1.74a25.47,25.47,0,0,0-2.9,4.54,26.73,26.73,0,0,0-1.89,5.05c-.34,1.35-.47,2.2-.52,2.19a2.35,2.35,0,0,1,0-.61,15.51,15.51,0,0,1,.28-1.63,22.14,22.14,0,0,1,1.82-5.14,21.83,21.83,0,0,1,3-4.54,16.41,16.41,0,0,1,1.13-1.2A2.6,2.6,0,0,1,462.7,382.68Z" style="fill:#263238"></path><path d="M447,404.92a10.89,10.89,0,0,1-.34-1.52,22.63,22.63,0,0,0-1.08-3.58,21.65,21.65,0,0,0-1.69-3.33,11.55,11.55,0,0,1-.81-1.33,6.06,6.06,0,0,1,1,1.21,16.53,16.53,0,0,1,1.79,3.34,16.76,16.76,0,0,1,1,3.65A6.07,6.07,0,0,1,447,404.92Z" style="fill:#263238"></path><path d="M491.11,393.33a8.56,8.56,0,0,0-4.69-2.36,10.42,10.42,0,0,0,2.58,4.9,8.45,8.45,0,0,0,4.51,2.12A8.53,8.53,0,0,0,491.11,393.33Z" style="fill:#455a64"></path><path d="M488.37,392.75l.24.16c.15.1.36.27.62.47a20.55,20.55,0,0,1,3.58,3.72c.2.27.35.49.45.64a1.78,1.78,0,0,1,.15.25l-.18-.22c-.11-.15-.27-.36-.48-.62a24,24,0,0,0-3.56-3.71c-.25-.22-.46-.39-.6-.5Z" style="fill:#263238"></path><path d="M500.73,387.81a8.4,8.4,0,0,1,5.13.1,10.1,10.1,0,0,1-4.47,3.06,8.23,8.23,0,0,1-4.86-.22A8.38,8.38,0,0,1,500.73,387.81Z" style="fill:#455a64"></path><path d="M503.36,388.56a1,1,0,0,0-.28,0c-.17,0-.43.06-.75.13a19.08,19.08,0,0,0-2.44.64,20,20,0,0,0-2.35.94l-.68.35a1.16,1.16,0,0,0-.24.14l.26-.11.69-.32c.59-.26,1.41-.6,2.35-.91a24.85,24.85,0,0,1,2.42-.67l.75-.16Z" style="fill:#263238"></path><path d="M507.27,394.43c0,.06-.89.12-2.32.37a29.08,29.08,0,0,0-5.41,1.52,28.5,28.5,0,0,0-5,2.58c-1.21.79-1.91,1.35-2,1.31a2.59,2.59,0,0,1,.46-.44,17,17,0,0,1,1.37-1,24,24,0,0,1,10.5-4.13c.72-.1,1.31-.15,1.72-.17A2.83,2.83,0,0,1,507.27,394.43Z" style="fill:#263238"></path><path d="M495.66,393.09a2.85,2.85,0,0,1-.36-.62c-.21-.41-.52-1-.93-1.72a37.75,37.75,0,0,0-8.07-9.95c-.62-.55-1.13-1-1.49-1.27a3.08,3.08,0,0,1-.54-.48,3.16,3.16,0,0,1,.61.38c.39.27.92.67,1.56,1.2a32.46,32.46,0,0,1,4.56,4.6,33.29,33.29,0,0,1,3.57,5.41c.38.74.66,1.35.84,1.78A3,3,0,0,1,495.66,393.09Z" style="fill:#263238"></path><path d="M486,381.69s.55,3.45,1.33,3.64,1.52-.17,2-.05.66-.07.82-.67,1.14-1.47.53-2.28-3.68-1.62-3.68-1.62Z" style="fill:#fff"></path><path d="M484.52,380.12s-3.21-1.41-3.79-.85-.67,1.37-1.05,1.72-.3.59.12,1.06.62,1.74,1.64,1.67,3.35-2.21,3.35-2.21Z" style="fill:#fff"></path><path d="M487,380.75s3.31,1.12,3.84.51.56-1.42.9-1.81.25-.61-.21-1-.77-1.68-1.78-1.52-3.14,2.5-3.14,2.5Z" style="fill:#fff"></path><path d="M486.73,379.45s2.63-2.31,2.38-3.07-1-1.2-1.12-1.69-.41-.52-1-.33-1.84-.18-2.21.77.59,4,.59,4Z" style="fill:#fff"></path><path d="M484.66,381.34s-2.63,2.31-2.38,3.07,1,1.2,1.12,1.69.41.52,1,.33,1.84.18,2.21-.77-.59-4-.59-4Z" style="fill:#fff"></path><path d="M485.44,379.13s-.84-3.39-1.64-3.51-1.5.3-2,.22-.65.12-.75.74-1,1.56-.33,2.32,3.8,1.3,3.8,1.3Z" style="fill:#fff"></path><path d="M484.27,380.15a1.61,1.61,0,1,1,1.13,2A1.61,1.61,0,0,1,484.27,380.15Z" style="fill:#fff"></path><path d="M486.15,380.09a11.61,11.61,0,0,1,1.17-1.24,12.2,12.2,0,0,1,1.19-1.22,5.2,5.2,0,0,1-1,1.37A4.8,4.8,0,0,1,486.15,380.09Z" style="fill:#263238"></path><path d="M484.79,377.26a4.67,4.67,0,0,1,.47,1.31,4.39,4.39,0,0,1,.27,1.37,4.67,4.67,0,0,1-.47-1.31A4.39,4.39,0,0,1,484.79,377.26Z" style="fill:#263238"></path><path d="M481.23,379.05a13.12,13.12,0,0,1,2,.54,11.35,11.35,0,0,1,1.93.65,8.57,8.57,0,0,1-2-.45A8,8,0,0,1,481.23,379.05Z" style="fill:#263238"></path><path d="M483.06,382.8a6.12,6.12,0,0,1,1-.91,6.32,6.32,0,0,1,1.07-.84,5.77,5.77,0,0,1-2.09,1.75Z" style="fill:#263238"></path><path d="M485.9,381.22a6.22,6.22,0,0,1,.51,1.56,6.1,6.1,0,0,1,.29,1.62,13.25,13.25,0,0,1-.8-3.18Z" style="fill:#263238"></path><path d="M486.28,380.66a9.29,9.29,0,0,1,2.81.66,5.56,5.56,0,0,1-1.43-.23A5.09,5.09,0,0,1,486.28,380.66Z" style="fill:#263238"></path><path d="M485,380.46a.81.81,0,0,1,1-.56.79.79,0,1,1-.43,1.53A.78.78,0,0,1,485,380.46Z" style="fill:#72C03A"></path><path d="M502.31,380.25s.7,4.32,1.67,4.55,1.9-.22,2.53-.06.82-.09,1-.84,1.42-1.84.66-2.85-4.6-2-4.6-2Z" style="fill:#fff"></path><path d="M500.44,378.29s-4-1.76-4.72-1.06-.85,1.71-1.32,2.15-.37.74.15,1.32.78,2.18,2,2.09,4.19-2.76,4.19-2.76Z" style="fill:#fff"></path><path d="M503.59,379.08s4.14,1.4,4.81.64.69-1.78,1.12-2.26.3-.77-.27-1.3-1-2.11-2.22-1.91-3.93,3.13-3.93,3.13Z" style="fill:#fff"></path><path d="M503.21,377.45s3.29-2.88,3-3.83-1.19-1.49-1.39-2.1-.51-.66-1.26-.42-2.31-.23-2.76,1,.73,5,.73,5Z" style="fill:#fff"></path><path d="M500.62,379.82s-3.29,2.88-3,3.84,1.2,1.49,1.4,2.1.51.65,1.26.42,2.3.22,2.76-1-.74-5-.74-5Z" style="fill:#fff"></path><path d="M501.6,377.06s-1.06-4.24-2.05-4.39-1.87.37-2.51.27-.81.16-1,.93-1.25,1.95-.41,2.89,4.75,1.63,4.75,1.63Z" style="fill:#fff"></path><path d="M500.14,378.33a2,2,0,1,1,1.4,2.46A2,2,0,0,1,500.14,378.33Z" style="fill:#fff"></path><path d="M502.48,378.26a14.93,14.93,0,0,1,1.46-1.55,15.8,15.8,0,0,1,1.48-1.53,5.75,5.75,0,0,1-1.29,1.71A6.35,6.35,0,0,1,502.48,378.26Z" style="fill:#263238"></path><path d="M500.78,374.72a5.57,5.57,0,0,1,.59,1.64,5.74,5.74,0,0,1,.34,1.71,5.57,5.57,0,0,1-.59-1.64A5.79,5.79,0,0,1,500.78,374.72Z" style="fill:#263238"></path><path d="M496.34,377a15.26,15.26,0,0,1,2.45.67,14.55,14.55,0,0,1,2.4.81,17.17,17.17,0,0,1-4.85-1.48Z" style="fill:#263238"></path><path d="M498.63,381.65a6.91,6.91,0,0,1,1.26-1.14,7.58,7.58,0,0,1,1.34-1.05,4.22,4.22,0,0,1-1.17,1.25A4.41,4.41,0,0,1,498.63,381.65Z" style="fill:#263238"></path><path d="M502.17,379.67a7.31,7.31,0,0,1,.63,1.95,7.74,7.74,0,0,1,.37,2,7.87,7.87,0,0,1-.63-1.95A8.44,8.44,0,0,1,502.17,379.67Z" style="fill:#263238"></path><path d="M502.64,379a12.78,12.78,0,0,1,3.52.83,6.57,6.57,0,0,1-1.79-.28A5.87,5.87,0,0,1,502.64,379Z" style="fill:#263238"></path><path d="M501,378.72a1,1,0,0,1,1.21-.7,1,1,0,0,1,.7,1.22,1,1,0,0,1-1.22.69A1,1,0,0,1,501,378.72Z" style="fill:#72C03A"></path><path d="M505.82,395.9s.4,2.48,1,2.61,1.09-.12,1.45,0,.47-.05.58-.49.82-1.05.38-1.63-2.64-1.16-2.64-1.16Z" style="fill:#fff"></path><path d="M504.75,394.77s-2.3-1-2.72-.6-.48,1-.75,1.23-.22.43.08.76.45,1.25,1.17,1.2,2.41-1.59,2.41-1.59Z" style="fill:#fff"></path><path d="M506.55,395.23s2.38.8,2.76.37.4-1,.64-1.3.18-.44-.15-.75-.55-1.21-1.27-1.09-2.26,1.79-2.26,1.79Z" style="fill:#fff"></path><path d="M506.33,394.29s1.89-1.65,1.71-2.2-.69-.85-.81-1.2-.29-.38-.72-.24-1.32-.13-1.58.55.42,2.85.42,2.85Z" style="fill:#fff"></path><path d="M504.84,395.65s-1.88,1.66-1.7,2.21.69.85.8,1.2.3.38.73.24,1.32.13,1.58-.55-.42-2.85-.42-2.85Z" style="fill:#fff"></path><path d="M505.41,394.07s-.61-2.44-1.18-2.52-1.07.21-1.44.16-.46.09-.54.53-.72,1.11-.24,1.66,2.73.93,2.73.93Z" style="fill:#fff"></path><path d="M504.57,394.8a1.15,1.15,0,1,1,.8,1.41A1.15,1.15,0,0,1,504.57,394.8Z" style="fill:#fff"></path><path d="M505.91,394.76a8.94,8.94,0,0,1,.84-.89,7.52,7.52,0,0,1,.86-.88,3.55,3.55,0,0,1-.75,1A3.38,3.38,0,0,1,505.91,394.76Z" style="fill:#263238"></path><path d="M504.94,392.72a3.47,3.47,0,0,1,.34.95,3.18,3.18,0,0,1,.19,1,3.48,3.48,0,0,1-.34-.94A3.56,3.56,0,0,1,504.94,392.72Z" style="fill:#263238"></path><path d="M502.39,394a9.39,9.39,0,0,1,1.41.38,10,10,0,0,1,1.38.47,9.67,9.67,0,0,1-2.79-.85Z" style="fill:#263238"></path><path d="M503.7,396.7a4.91,4.91,0,0,1,.73-.65,4,4,0,0,1,.77-.6,2.62,2.62,0,0,1-.67.71A2.24,2.24,0,0,1,503.7,396.7Z" style="fill:#263238"></path><path d="M505.74,395.57a4.72,4.72,0,0,1,.36,1.12,4.38,4.38,0,0,1,.21,1.15,9,9,0,0,1-.57-2.27Z" style="fill:#263238"></path><path d="M506,395.16a3.62,3.62,0,0,1,1,.16,3.51,3.51,0,0,1,1,.32,3.89,3.89,0,0,1-1-.17A3.55,3.55,0,0,1,506,395.16Z" style="fill:#263238"></path><path d="M505.06,395a.57.57,0,1,1,.4.7A.58.58,0,0,1,505.06,395Z" style="fill:#72C03A"></path><path d="M502.25,381.64a9.27,9.27,0,0,1-.62.79c-.39.5-1,1.23-1.58,2.18a51.67,51.67,0,0,0-4.08,7.94c-1.33,3.16-2.53,6-3.48,8.25l-1.08,2.49a6,6,0,0,1-.43.9,5.43,5.43,0,0,1,.32-.94l1-2.53c.86-2.13,2-5.07,3.4-8.29a44.91,44.91,0,0,1,4.17-7.94,25.4,25.4,0,0,1,1.68-2.14A4.56,4.56,0,0,1,502.25,381.64Z" style="fill:#263238"></path><path d="M516.3,395.12A7.76,7.76,0,0,0,512,393a9.54,9.54,0,0,0,2.35,4.46,7.72,7.72,0,0,0,4.1,1.94A7.71,7.71,0,0,0,516.3,395.12Z" style="fill:#455a64"></path><path d="M513.81,394.59a.82.82,0,0,1,.21.14l.57.44a17.33,17.33,0,0,1,1.73,1.59,19.1,19.1,0,0,1,1.53,1.79c.18.25.32.45.41.59l.14.22a1.18,1.18,0,0,1-.17-.2l-.43-.57a23,23,0,0,0-1.54-1.77,22.76,22.76,0,0,0-1.71-1.61l-.55-.45Z" style="fill:#263238"></path><path d="M520.81,398.1a7.83,7.83,0,0,1,4.64-1.15,9.49,9.49,0,0,1-3.28,3.84,7.69,7.69,0,0,1-4.43,1A7.84,7.84,0,0,1,520.81,398.1Z" style="fill:#455a64"></path><path d="M523.37,398.14s-.09,0-.25.09l-.65.3a17.82,17.82,0,0,0-2,1.17,17.53,17.53,0,0,0-1.88,1.41l-.54.48-.18.19.21-.17.55-.45a20.88,20.88,0,0,1,1.89-1.39c.76-.5,1.49-.91,2-1.19l.63-.32Z" style="fill:#263238"></path><path d="M524.64,391a7.6,7.6,0,0,1,4.67.09,9.34,9.34,0,0,1-4.07,2.79,7.53,7.53,0,0,1-4.43-.2A7.62,7.62,0,0,1,524.64,391Z" style="fill:#455a64"></path><path d="M527,391.67l-.26,0-.68.12a16.75,16.75,0,0,0-2.23.59,18.12,18.12,0,0,0-2.14.86l-.62.31-.22.13a.89.89,0,0,0,.24-.1l.63-.29c.54-.24,1.29-.55,2.14-.83s1.63-.48,2.21-.61l.68-.14Z" style="fill:#263238"></path><path d="M524.74,384.28s-.63,3.93-1.52,4.14-1.73-.2-2.3-.06-.75-.07-.93-.76-1.29-1.67-.6-2.59,4.19-1.85,4.19-1.85Z" style="fill:#fff"></path><path d="M526.44,382.49s3.65-1.6,4.31-1,.77,1.56,1.2,2,.34.67-.14,1.2-.71,2-1.86,1.9-3.82-2.52-3.82-2.52Z" style="fill:#fff"></path><path d="M523.58,383.21s-3.77,1.27-4.38.59-.63-1.63-1-2.06-.28-.7.25-1.18.87-1.92,2-1.74,3.58,2.84,3.58,2.84Z" style="fill:#fff"></path><path d="M523.92,381.73s-3-2.62-2.69-3.49,1.08-1.36,1.27-1.91.46-.6,1.14-.39,2.1-.2,2.52.88-.67,4.52-.67,4.52Z" style="fill:#fff"></path><path d="M526.29,383.89s3,2.62,2.7,3.49-1.09,1.36-1.27,1.91-.47.6-1.15.38-2.1.21-2.51-.87.66-4.52.66-4.52Z" style="fill:#fff"></path><path d="M525.39,381.37s1-3.86,1.87-4,1.7.35,2.28.26.74.14.87.84,1.14,1.77.37,2.63-4.33,1.48-4.33,1.48Z" style="fill:#fff"></path><path d="M526.72,382.53a1.83,1.83,0,1,0-1.27,2.24A1.82,1.82,0,0,0,526.72,382.53Z" style="fill:#fff"></path><path d="M524.59,382.46a12.91,12.91,0,0,0-1.33-1.41,16.73,16.73,0,0,0-1.35-1.39,5.42,5.42,0,0,0,1.17,1.56A5.58,5.58,0,0,0,524.59,382.46Z" style="fill:#263238"></path><path d="M526.14,379.24a4.93,4.93,0,0,0-.54,1.49,5.38,5.38,0,0,0-.31,1.56,5.26,5.26,0,0,0,.54-1.49A5.68,5.68,0,0,0,526.14,379.24Z" style="fill:#263238"></path><path d="M530.18,381.28a15.09,15.09,0,0,0-2.23.61,13.14,13.14,0,0,0-2.19.74,9.63,9.63,0,0,0,2.26-.51A8.61,8.61,0,0,0,530.18,381.28Z" style="fill:#263238"></path><path d="M528.1,385.55a6.76,6.76,0,0,0-1.15-1,7.17,7.17,0,0,0-1.23-.95,4.42,4.42,0,0,0,1.07,1.14A4.13,4.13,0,0,0,528.1,385.55Z" style="fill:#263238"></path><path d="M524.87,383.75a7,7,0,0,0-.57,1.77,7.15,7.15,0,0,0-.34,1.84,7.46,7.46,0,0,0,.57-1.78A7.75,7.75,0,0,0,524.87,383.75Z" style="fill:#263238"></path><path d="M524.45,383.11a5.59,5.59,0,0,0-1.63.25,5.43,5.43,0,0,0-1.58.5,5.82,5.82,0,0,0,1.63-.26A6.36,6.36,0,0,0,524.45,383.11Z" style="fill:#263238"></path><path d="M525.94,382.88a.9.9,0,1,0-.63,1.11A.9.9,0,0,0,525.94,382.88Z" style="fill:#72C03A"></path><path d="M527.33,405.36a4.66,4.66,0,0,1,.09-1.42,15.46,15.46,0,0,1,.92-3.33,15.72,15.72,0,0,1,1.63-3,4.58,4.58,0,0,1,.92-1.09,31.34,31.34,0,0,0-2.26,4.25A33.15,33.15,0,0,0,527.33,405.36Z" style="fill:#263238"></path><path d="M515.94,408.41a4.82,4.82,0,0,1,.15-.9c.11-.57.31-1.39.57-2.41a75.68,75.68,0,0,1,5.78-15.24c.48-.93.88-1.68,1.18-2.18a4.59,4.59,0,0,1,.48-.77,5.29,5.29,0,0,1-.38.82c-.3.64-.66,1.37-1.08,2.22-.9,1.88-2.08,4.51-3.21,7.48s-2,5.73-2.56,7.73l-.66,2.38A6.65,6.65,0,0,1,515.94,408.41Z" style="fill:#263238"></path><path d="M531.26,397.5s-.37,2.26-.88,2.38-1-.12-1.32,0-.43-.05-.53-.44-.74-1-.34-1.49,2.4-1.06,2.4-1.06Z" style="fill:#fff"></path><path d="M532.23,396.47s2.1-.91,2.47-.55.45.89.69,1.13.2.38-.08.68-.4,1.15-1.06,1.1-2.19-1.45-2.19-1.45Z" style="fill:#fff"></path><path d="M530.59,396.89s-2.17.73-2.51.33-.37-.93-.59-1.18-.16-.4.14-.68.5-1.1,1.16-1,2.05,1.64,2.05,1.64Z" style="fill:#fff"></path><path d="M530.79,396s-1.72-1.51-1.55-2,.62-.78.73-1.1.26-.34.65-.22,1.21-.11,1.45.51a7,7,0,0,1-.39,2.59Z" style="fill:#fff"></path><path d="M532.14,397.28s1.72,1.5,1.55,2-.62.78-.73,1.1-.26.34-.66.22-1.2.12-1.44-.5a6.87,6.87,0,0,1,.39-2.6Z" style="fill:#fff"></path><path d="M531.63,395.83s.55-2.22,1.07-2.3,1,.2,1.31.15.43.08.5.48.65,1,.21,1.52a7,7,0,0,1-2.48.85Z" style="fill:#fff"></path><path d="M532.39,396.5a1,1,0,1,0-.73,1.28A1,1,0,0,0,532.39,396.5Z" style="fill:#fff"></path><path d="M531.17,396.46a8,8,0,0,0-.77-.81,7.61,7.61,0,0,0-.77-.8,3,3,0,0,0,.67.89A3.28,3.28,0,0,0,531.17,396.46Z" style="fill:#263238"></path><path d="M532.06,394.61a2.75,2.75,0,0,0-.31.85,2.85,2.85,0,0,0-.18.9,2.75,2.75,0,0,0,.31-.86A3.62,3.62,0,0,0,532.06,394.61Z" style="fill:#263238"></path><path d="M534.38,395.78a7.93,7.93,0,0,0-1.28.35,7.75,7.75,0,0,0-1.26.42,5.27,5.27,0,0,0,1.3-.29A5,5,0,0,0,534.38,395.78Z" style="fill:#263238"></path><path d="M533.18,398.23a4.05,4.05,0,0,0-.66-.6,4.52,4.52,0,0,0-.7-.55,2.18,2.18,0,0,0,.61.66A2.34,2.34,0,0,0,533.18,398.23Z" style="fill:#263238"></path><path d="M531.33,397.19a4,4,0,0,0-.33,1,4.21,4.21,0,0,0-.19,1.06,4.63,4.63,0,0,0,.32-1A4,4,0,0,0,531.33,397.19Z" style="fill:#263238"></path><path d="M531.09,396.83a3.38,3.38,0,0,0-.94.14,3,3,0,0,0-.9.29,3.6,3.6,0,0,0,.93-.15A4,4,0,0,0,531.09,396.83Z" style="fill:#263238"></path><path d="M531.94,396.7a.51.51,0,1,0-.36.63A.5.5,0,0,0,531.94,396.7Z" style="fill:#72C03A"></path><path d="M459.46,408.27a7.27,7.27,0,0,1-.29-1l-.72-2.61c-.63-2.21-1.57-5.23-2.81-8.49s-2.54-6.15-3.53-8.22l-1.19-2.43a5.54,5.54,0,0,1-.42-.91,5.1,5.1,0,0,1,.52.85c.33.56.77,1.37,1.29,2.4a82.74,82.74,0,0,1,6.35,16.74c.29,1.11.5,2,.63,2.64A6.08,6.08,0,0,1,459.46,408.27Z" style="fill:#263238"></path><path d="M462.9,383.8s.4,2.48,1,2.61,1.09-.12,1.45,0,.47-.05.58-.49.82-1.05.38-1.63-2.64-1.16-2.64-1.16Z" style="fill:#fff"></path><path d="M461.82,382.68s-2.29-1-2.71-.61-.49,1-.75,1.23-.22.43.08.76.45,1.25,1.17,1.2,2.41-1.59,2.41-1.59Z" style="fill:#fff"></path><path d="M463.63,383.13s2.38.8,2.76.37.4-1,.64-1.3.18-.44-.15-.75-.55-1.21-1.27-1.09-2.26,1.79-2.26,1.79Z" style="fill:#fff"></path><path d="M463.41,382.19s1.89-1.65,1.7-2.2-.68-.85-.8-1.2-.29-.38-.72-.24-1.32-.13-1.58.55.42,2.85.42,2.85Z" style="fill:#fff"></path><path d="M461.92,383.56s-1.88,1.65-1.7,2.2.69.85.8,1.2.3.38.73.24,1.32.13,1.58-.55-.42-2.85-.42-2.85Z" style="fill:#fff"></path><path d="M462.49,382s-.61-2.44-1.18-2.52-1.07.21-1.44.16-.47.09-.54.53-.72,1.12-.24,1.66,2.73.93,2.73.93Z" style="fill:#fff"></path><path d="M461.65,382.7a1.15,1.15,0,1,1,.8,1.41A1.15,1.15,0,0,1,461.65,382.7Z" style="fill:#fff"></path><path d="M463,382.66a8.94,8.94,0,0,1,.84-.89,9.22,9.22,0,0,1,.85-.88,3.18,3.18,0,0,1-.74,1A3.38,3.38,0,0,1,463,382.66Z" style="fill:#263238"></path><path d="M462,380.62a3.64,3.64,0,0,1,.34.95,3.18,3.18,0,0,1,.19,1,3.48,3.48,0,0,1-.34-.94A3.17,3.17,0,0,1,462,380.62Z" style="fill:#263238"></path><path d="M459.47,381.91a8.81,8.81,0,0,1,1.41.39,9.32,9.32,0,0,1,1.38.46,5.57,5.57,0,0,1-1.43-.32A5.39,5.39,0,0,1,459.47,381.91Z" style="fill:#263238"></path><path d="M460.78,384.6a4.91,4.91,0,0,1,.73-.65,4,4,0,0,1,.77-.6,2.77,2.77,0,0,1-.67.72A2.39,2.39,0,0,1,460.78,384.6Z" style="fill:#263238"></path><path d="M462.82,383.47a4.72,4.72,0,0,1,.36,1.12,4.38,4.38,0,0,1,.21,1.15,9,9,0,0,1-.57-2.27Z" style="fill:#263238"></path><path d="M463.09,383.06a3.45,3.45,0,0,1,1,.17,3.7,3.7,0,0,1,1,.31,3.78,3.78,0,0,1-1-.17A3.55,3.55,0,0,1,463.09,383.06Z" style="fill:#263238"></path><path d="M462.14,382.92a.57.57,0,1,1,.4.7A.58.58,0,0,1,462.14,382.92Z" style="fill:#72C03A"></path><path d="M442.64,396.29s.4,2.47,1,2.61,1.09-.13,1.45,0,.47-.05.59-.48.81-1.05.37-1.64-2.64-1.16-2.64-1.16Z" style="fill:#fff"></path><path d="M441.57,395.16s-2.3-1-2.72-.61-.48,1-.75,1.24-.21.42.09.75.44,1.26,1.17,1.21,2.4-1.59,2.4-1.59Z" style="fill:#fff"></path><path d="M443.38,395.61s2.37.81,2.75.37.4-1,.65-1.3.17-.44-.16-.74-.55-1.21-1.27-1.1-2.25,1.8-2.25,1.8Z" style="fill:#fff"></path><path d="M443.16,394.68s1.88-1.66,1.7-2.2-.69-.86-.8-1.21-.3-.37-.72-.24-1.33-.13-1.59.55.42,2.85.42,2.85Z" style="fill:#fff"></path><path d="M441.67,396s-1.89,1.65-1.7,2.2.68.86.8,1.21.29.37.72.24,1.32.13,1.58-.55-.42-2.86-.42-2.86Z" style="fill:#fff"></path><path d="M442.23,394.45s-.6-2.43-1.17-2.52-1.08.22-1.44.16-.47.09-.55.53-.72,1.12-.24,1.66,2.73.94,2.73.94Z" style="fill:#fff"></path><path d="M441.39,395.18a1.15,1.15,0,0,1,2.22.61,1.14,1.14,0,0,1-1.41.81A1.17,1.17,0,0,1,441.39,395.18Z" style="fill:#fff"></path><path d="M442.74,395.14a8.64,8.64,0,0,1,.84-.89,9.27,9.27,0,0,1,.85-.88,5.12,5.12,0,0,1-1.69,1.77Z" style="fill:#263238"></path><path d="M441.76,393.11a3.48,3.48,0,0,1,.34.94,3.4,3.4,0,0,1,.2,1,3.13,3.13,0,0,1-.34-.94A3.4,3.4,0,0,1,441.76,393.11Z" style="fill:#263238"></path><path d="M439.21,394.4a9.06,9.06,0,0,1,1.41.38,7.29,7.29,0,0,1,1.38.47,6,6,0,0,1-1.43-.33A5.84,5.84,0,0,1,439.21,394.4Z" style="fill:#263238"></path><path d="M440.53,397.09s.31-.31.72-.66a4.57,4.57,0,0,1,.77-.6,2.43,2.43,0,0,1-.67.72A2.76,2.76,0,0,1,440.53,397.09Z" style="fill:#263238"></path><path d="M442.56,396a4.24,4.24,0,0,1,.36,1.12,4.79,4.79,0,0,1,.22,1.16,4.24,4.24,0,0,1-.36-1.12A4.79,4.79,0,0,1,442.56,396Z" style="fill:#263238"></path><path d="M442.83,395.55a3.63,3.63,0,0,1,1,.16,3.55,3.55,0,0,1,1,.31,3.63,3.63,0,0,1-1-.16A3.7,3.7,0,0,1,442.83,395.55Z" style="fill:#263238"></path><path d="M441.89,395.4a.57.57,0,0,1,1.09.31.57.57,0,0,1-1.09-.31Z" style="fill:#72C03A"></path><path d="M475.25,393.52s-.51,4.34.37,4.83,1.88.31,2.44.63.82.14,1.22-.53,1.86-1.37,1.4-2.56-3.87-3.2-3.87-3.2Z" style="fill:#fff"></path><path d="M474,391.12s-3.37-2.78-4.26-2.31-1.28,1.42-1.85,1.72-.56.61-.21,1.3.14,2.32,1.38,2.58,4.79-1.52,4.79-1.52Z" style="fill:#fff"></path><path d="M476.8,392.74s3.61,2.48,4.45,1.93,1.15-1.52,1.69-1.87.51-.65.1-1.32-.35-2.29-1.61-2.44-4.64,1.93-4.64,1.93Z" style="fill:#fff"></path><path d="M476.88,391.07s3.95-1.87,3.9-2.88-.75-1.76-.77-2.4-.32-.77-1.1-.75-2.15-.84-2.92.17-.65,5-.65,5Z" style="fill:#fff"></path><path d="M473.74,392.64s-3.95,1.88-3.9,2.88.74,1.77.77,2.41.31.76,1.09.74,2.16.85,2.92-.17.65-5,.65-5Z" style="fill:#fff"></path><path d="M475.44,390.25s.14-4.36-.78-4.78-1.9-.15-2.48-.42-.83-.07-1.17.64-1.74,1.52-1.19,2.67,4.13,2.86,4.13,2.86Z" style="fill:#fff"></path><path d="M473.68,391.08a2,2,0,1,1,.68,2.75A2,2,0,0,1,473.68,391.08Z" style="fill:#fff"></path><path d="M476,391.65a15.76,15.76,0,0,1,1.83-1.09,16.48,16.48,0,0,1,1.85-1.07,5.93,5.93,0,0,1-1.71,1.3A6.3,6.3,0,0,1,476,391.65Z" style="fill:#263238"></path><path d="M475.29,387.78a11.71,11.71,0,0,1,0,3.48,5.82,5.82,0,0,1-.12-1.74A5.44,5.44,0,0,1,475.29,387.78Z" style="fill:#263238"></path><path d="M470.4,388.73a15.32,15.32,0,0,1,2.18,1.3,16.23,16.23,0,0,1,2.09,1.44,9.62,9.62,0,0,1-2.23-1.21A10.6,10.6,0,0,1,470.4,388.73Z" style="fill:#263238"></path><path d="M471.32,393.86a26.06,26.06,0,0,1,3.11-1.4,4.36,4.36,0,0,1-1.47.89A4.54,4.54,0,0,1,471.32,393.86Z" style="fill:#263238"></path><path d="M475.28,392.92a8.5,8.5,0,0,1,.07,2.05,8.08,8.08,0,0,1-.19,2,7.61,7.61,0,0,1-.08-2.05A8.35,8.35,0,0,1,475.28,392.92Z" style="fill:#263238"></path><path d="M475.92,392.37a6.66,6.66,0,0,1,1.64.76,6.2,6.2,0,0,1,1.52,1,6.3,6.3,0,0,1-1.65-.77A5.84,5.84,0,0,1,475.92,392.37Z" style="fill:#263238"></path><path d="M474.4,391.68a1,1,0,0,1,1.36-.33,1,1,0,0,1-1,1.7A1,1,0,0,1,474.4,391.68Z" style="fill:#72C03A"></path><rect x="430.78" y="401.72" width="105.86" height="24.61" style="fill:#ae7461"></rect><g style="opacity:0.30000000000000004"><rect x="430.78" y="401.72" width="23.62" height="24.77"></rect></g><path d="M312.38,290.67A5.59,5.59,0,0,1,321,287a9.33,9.33,0,0,1-8.42,3.6" style="fill:#455a64"></path><path d="M313.63,291.75a4,4,0,0,1-.8,4.44,10.13,10.13,0,0,1-4.1,2.42,7.27,7.27,0,0,1,4.92-7.3" style="fill:#455a64"></path><path d="M309.8,285.14a6.44,6.44,0,0,1-8.45,3.91,8.9,8.9,0,0,1,3.46-4,4.23,4.23,0,0,1,5,.52" style="fill:#455a64"></path><path d="M310.24,283.42a3.8,3.8,0,0,1,4-2,6.57,6.57,0,0,1,4,2.48,5.78,5.78,0,0,1-7.87-1.05" style="fill:#455a64"></path><path d="M315.18,298.39a5.19,5.19,0,0,1,0,5.64,9.16,9.16,0,0,1-4.7,3.53,12.09,12.09,0,0,1,.65-5.85,6.15,6.15,0,0,1,4.3-3.75" style="fill:#455a64"></path><path d="M311.5,279.16a4.66,4.66,0,0,0-7.1-2.11,4,4,0,0,0,7,1.84" style="fill:#455a64"></path><path d="M310.73,274.29a6.05,6.05,0,0,0,8.61-2.84,13.76,13.76,0,0,0-3.57-.79,6,6,0,0,0-3.51.81,3.21,3.21,0,0,0-1.53,2.82" style="fill:#455a64"></path><path d="M307.59,272.34a4.95,4.95,0,0,0,1.77-7.43,10.39,10.39,0,0,0-3.16,4,3.93,3.93,0,0,0-.42,1.86,1.75,1.75,0,0,0,1,1.53" style="fill:#455a64"></path><path d="M299.14,281.77s0,0,0-.12l.06-.36c.06-.31.14-.78.26-1.37a12.61,12.61,0,0,1,1.95-4.7,7.6,7.6,0,0,1,2.62-2.31,5.4,5.4,0,0,1,3.88-.47,4.49,4.49,0,0,1,1.9,1,4.1,4.1,0,0,1,1.21,1.85,8.25,8.25,0,0,1-.15,4.71,34.24,34.24,0,0,0-1.22,4.7,7.26,7.26,0,0,0,.08,2.33,4.83,4.83,0,0,0,.91,2.05,6.94,6.94,0,0,0,1.62,1.37,10.06,10.06,0,0,1,1.56,1.2,6.43,6.43,0,0,1,1.69,3,6.06,6.06,0,0,1,0,2.87,6.9,6.9,0,0,1-.83,2,8.71,8.71,0,0,1-1.2,1.44l.1-.07c.06-.06.16-.13.27-.24a5.55,5.55,0,0,0,.9-1.08,6.25,6.25,0,0,0,.89-2,6.35,6.35,0,0,0,0-2.95,6.66,6.66,0,0,0-1.72-3.12c-.9-1-2.26-1.46-3.14-2.57a5.63,5.63,0,0,1-.93-4.21,33.16,33.16,0,0,1,1.21-4.67,8.43,8.43,0,0,0,.15-4.84,4.38,4.38,0,0,0-1.29-2,4.79,4.79,0,0,0-2-1,5.53,5.53,0,0,0-4,.52,7.55,7.55,0,0,0-2.66,2.38,10.39,10.39,0,0,0-1.34,2.63,16.68,16.68,0,0,0-.57,2.15c-.11.6-.18,1.07-.21,1.38l0,.37A1.09,1.09,0,0,0,299.14,281.77Z" style="fill:#263238"></path><path d="M270.11,291.23a4.87,4.87,0,0,1-.81-1.44,4.14,4.14,0,0,1-.16-1.91,4,4,0,0,1,1.19-2.21,3.85,3.85,0,0,1,1.23-.8,4.72,4.72,0,0,1,1.57-.31c1.12-.06,2.33.2,3.62.06a4.17,4.17,0,0,0,1.89-.66,3,3,0,0,0,1.15-1.73c.37-1.37.12-2.87.67-4.2a3.79,3.79,0,0,1,1.31-1.62,4.78,4.78,0,0,1,1.88-.82,5.25,5.25,0,0,1,3.77.64,8,8,0,0,1,2.55,2.46,9.48,9.48,0,0,1,1.3,2.82,33.65,33.65,0,0,1,.83,4.48c.07.51.13.92.17,1.23l.06.31a.66.66,0,0,0,0,.11s0,0,0-.11l0-.32c0-.3-.07-.71-.13-1.24a29.63,29.63,0,0,0-.76-4.5,9.53,9.53,0,0,0-1.29-2.89,8.24,8.24,0,0,0-2.61-2.54,6.3,6.3,0,0,0-1.86-.71,5.16,5.16,0,0,0-2.07,0,5.23,5.23,0,0,0-2,.85,4,4,0,0,0-1.39,1.72c-.58,1.43-.32,2.93-.68,4.24a2.75,2.75,0,0,1-1.06,1.6,3.78,3.78,0,0,1-1.77.63c-1.25.15-2.46-.1-3.61,0a4.89,4.89,0,0,0-1.63.34,3.82,3.82,0,0,0-1.28.85,4,4,0,0,0-1.2,2.3,4,4,0,0,0,.8,3.06A2.57,2.57,0,0,0,270.11,291.23Z" style="fill:#263238"></path><path d="M280,279.65a4.28,4.28,0,0,1-3.67,1.45,4,4,0,0,1-2.88-2.41,4.53,4.53,0,0,1,3.43-1.29,4.44,4.44,0,0,1,3.15,1.85" style="fill:#455a64"></path><path d="M277.14,284.55a4.3,4.3,0,0,1-.67,3.89,4,4,0,0,1-3.56,1.2,4.25,4.25,0,0,1,3.9-5.33" style="fill:#455a64"></path><path d="M270,286a4.27,4.27,0,0,1-3.8,1.05,4,4,0,0,1-2.61-2.7,4.24,4.24,0,0,1,6.48,1.25" style="fill:#455a64"></path><path d="M285,275.39a4.52,4.52,0,0,0,.36-4,4,4,0,0,0-3.19-2,4.23,4.23,0,0,0,2.59,6.07" style="fill:#455a64"></path><path d="M311.07,261.29l-.06-.09-.19-.24c-.18-.21-.44-.51-.81-.87a10.77,10.77,0,0,0-3.66-2.36,7.71,7.71,0,0,0-3-.51,7,7,0,0,0-3.33,1,5.6,5.6,0,0,0-2.46,2.91,18.16,18.16,0,0,0-.56,4.07,6.92,6.92,0,0,1-.48,2,5.61,5.61,0,0,1-1.12,1.61c-.45.47-.93.92-1.35,1.41a7.3,7.3,0,0,0-1,1.6,8.79,8.79,0,0,0-.71,3.4,11.53,11.53,0,0,0,.38,3,23.19,23.19,0,0,0,1.53,4.08c.22.47.4.83.52,1.07a3.7,3.7,0,0,0,.2.36,3,3,0,0,0-.15-.38l-.48-1.09a25.06,25.06,0,0,1-1.46-4.08,11.77,11.77,0,0,1-.34-2.95,8.65,8.65,0,0,1,.71-3.31,6.72,6.72,0,0,1,1-1.54c.4-.48.88-.92,1.34-1.4a6.09,6.09,0,0,0,1.17-1.68,6.83,6.83,0,0,0,.49-2.05,18.22,18.22,0,0,1,.55-4,5.41,5.41,0,0,1,2.36-2.8,6.83,6.83,0,0,1,3.21-1,7.56,7.56,0,0,1,2.92.47,11,11,0,0,1,3.64,2.27c.38.35.66.64.84.83A2.7,2.7,0,0,0,311.07,261.29Z" style="fill:#263238"></path><path d="M294.88,269.22c.3-.4.52-.2,1-.2a3.11,3.11,0,0,1,1.42.41,5.6,5.6,0,0,1,2.85,5.44,4.37,4.37,0,0,1-5.13-5.72" style="fill:#455a64"></path><path d="M308.41,259.78c.1-.49.38-.4.83-.62a2.91,2.91,0,0,1,1.46-.24,5.6,5.6,0,0,1,4.91,3.68,4.36,4.36,0,0,1-7.09-3" style="fill:#455a64"></path><path d="M293.31,278.92a5,5,0,0,1,7.85-1.06,6,6,0,0,1-8.11,1.44" style="fill:#455a64"></path><path d="M293.27,271.9a5.1,5.1,0,0,1-6.18-5,4.57,4.57,0,0,1,6.33,5" style="fill:#455a64"></path><path d="M297,263a5.1,5.1,0,0,1-7.5-2.72,4.58,4.58,0,0,1,7.62,2.59" style="fill:#455a64"></path><path d="M298.25,260a5.1,5.1,0,0,1,7.5,2.71,4.57,4.57,0,0,1-7.62-2.58" style="fill:#455a64"></path><path d="M300.07,258.24a5.1,5.1,0,0,1-4-6.88,4.58,4.58,0,0,1,4.21,6.86" style="fill:#455a64"></path><path d="M305.44,257.51a5.1,5.1,0,0,1,2.86-7.44,4.57,4.57,0,0,1-2.74,7.57" style="fill:#455a64"></path><polygon points="300.99 301.26 286.91 301.26 282.62 281.37 308.8 281.37 300.99 301.26" style="fill:#ae7461"></polygon><g style="opacity:0.30000000000000004"><polygon points="292.04 301 286.91 301.26 282.62 281.37 287.48 281.37 292.04 301"></polygon></g></g><g id="freepik--plants-2--inject-2"><path d="M218.54,426.63a56.54,56.54,0,0,1-5.66-9.19,27.88,27.88,0,0,1,3.05,4.46A28.23,28.23,0,0,1,218.54,426.63Z" style="fill:#263238"></path><path d="M220.94,426.43a48.9,48.9,0,0,1-1.3-5.07,49.33,49.33,0,0,1-1.26-5.09,28,28,0,0,1,2.56,10.16Z" style="fill:#263238"></path><path d="M226.81,426.87a24.45,24.45,0,0,1,.88-6.43,25.15,25.15,0,0,1,2.06-6.15c.15,0-.74,2.8-1.55,6.27S227,426.89,226.81,426.87Z" style="fill:#263238"></path><path d="M62,425.31a28.63,28.63,0,0,1-3-4.4,27.6,27.6,0,0,1-2.54-4.67,26.69,26.69,0,0,1,3,4.4A26,26,0,0,1,62,425.31Z" style="fill:#263238"></path><path d="M64.52,425.23a48.9,48.9,0,0,1-1.3-5.07A48.64,48.64,0,0,1,62,415.07a18.24,18.24,0,0,1,1.76,5A18.15,18.15,0,0,1,64.52,425.23Z" style="fill:#263238"></path><path d="M68.14,425.27a4.66,4.66,0,0,1,.23-1.95,20.31,20.31,0,0,1,1.82-4.38c.87-1.63,1.7-3.06,2.23-4.13a10.12,10.12,0,0,1,.92-1.72,5.63,5.63,0,0,1-.58,1.88c-.46,1.12-1.25,2.6-2.11,4.21a29.29,29.29,0,0,0-1.92,4.24A16.48,16.48,0,0,1,68.14,425.27Z" style="fill:#263238"></path><path d="M493.05,462.47A28.05,28.05,0,0,1,490,458a29.14,29.14,0,0,1-2.61-4.73,28.05,28.05,0,0,1,3.05,4.45A27.39,27.39,0,0,1,493.05,462.47Z" style="fill:#263238"></path><path d="M495.45,462.28a48.7,48.7,0,0,1-1.3-5.08,48.83,48.83,0,0,1-1.26-5.08,27.45,27.45,0,0,1,2.56,10.16Z" style="fill:#263238"></path><path d="M501.32,462.72a34.56,34.56,0,0,1,2.95-12.59c.14.06-.75,2.81-1.56,6.28S501.47,462.73,501.32,462.72Z" style="fill:#263238"></path><path d="M631.5,476.06a27.88,27.88,0,0,1-3-4.46,28.68,28.68,0,0,1-2.61-4.73,28.46,28.46,0,0,1,3,4.46A27,27,0,0,1,631.5,476.06Z" style="fill:#263238"></path><path d="M633.9,475.86a48.9,48.9,0,0,1-1.3-5.07,49.53,49.53,0,0,1-1.26-5.08,27.34,27.34,0,0,1,2.56,10.15Z" style="fill:#263238"></path><path d="M639.77,476.3a25,25,0,0,1,.88-6.43,24.42,24.42,0,0,1,2.07-6.15c.14,0-.75,2.8-1.56,6.27S639.92,476.32,639.77,476.3Z" style="fill:#263238"></path><path d="M149.43,471.1a27.88,27.88,0,0,1-3.05-4.46,26.59,26.59,0,0,1-2.61-4.73,56.54,56.54,0,0,1,5.66,9.19Z" style="fill:#263238"></path><path d="M151.83,470.9a48.9,48.9,0,0,1-1.3-5.07,49.53,49.53,0,0,1-1.26-5.08A18.09,18.09,0,0,1,151,465.7,18.62,18.62,0,0,1,151.83,470.9Z" style="fill:#263238"></path><path d="M157.7,471.34a24.45,24.45,0,0,1,.88-6.43,25.15,25.15,0,0,1,2.06-6.15c.15.05-.75,2.8-1.55,6.27S157.85,471.36,157.7,471.34Z" style="fill:#263238"></path><path d="M655.17,425.51a28.05,28.05,0,0,1-3-4.45,27.39,27.39,0,0,1-2.61-4.73,55.89,55.89,0,0,1,5.66,9.18Z" style="fill:#263238"></path><path d="M657.57,425.32a45.88,45.88,0,0,1-1.3-5.08,48.83,48.83,0,0,1-1.26-5.08,28,28,0,0,1,2.56,10.16Z" style="fill:#263238"></path><path d="M663.43,425.76a35.11,35.11,0,0,1,3-12.59c.15.06-.75,2.81-1.55,6.28S663.59,425.77,663.43,425.76Z" style="fill:#263238"></path><path d="M374.28,479.2a28.46,28.46,0,0,1-3-4.46,27.8,27.8,0,0,1-2.61-4.73,28.46,28.46,0,0,1,3.05,4.46A27.8,27.8,0,0,1,374.28,479.2Z" style="fill:#263238"></path><path d="M376.68,479a48.9,48.9,0,0,1-1.3-5.07,49.53,49.53,0,0,1-1.26-5.08A27.86,27.86,0,0,1,376.68,479Z" style="fill:#263238"></path><path d="M382.55,479.44a34.45,34.45,0,0,1,2.95-12.58c.14.05-.75,2.8-1.56,6.27S382.7,479.46,382.55,479.44Z" style="fill:#263238"></path><path d="M295.12,397.76a5.47,5.47,0,0,1,2.82,3.2,9.61,9.61,0,0,1,.38,4.33,17,17,0,0,1-3.64,7.89c-2.36-2.06-2.91-5.66-3.07-7.51-.25-2.91,1.06-8.34,3.51-7.91" style="fill:#455a64"></path><path d="M294.69,413.22l0,0c-1.72-1.5-2.78-4.1-3.08-7.53-.19-2.15.5-6,2.05-7.43a1.69,1.69,0,0,1,1.49-.5h0A5.45,5.45,0,0,1,298,401a9.59,9.59,0,0,1,.37,4.34c-.34,3.06-2.17,6-3.64,7.91Zm.16-15.46a1.78,1.78,0,0,0-1.18.51c-1.54,1.41-2.22,5.26-2,7.4.29,3.4,1.35,6,3,7.48,1.46-1.92,3.27-4.83,3.61-7.86a9.49,9.49,0,0,0-.37-4.32,5.35,5.35,0,0,0-2.81-3.18A1.15,1.15,0,0,0,294.85,397.76Z" style="fill:#263238"></path><path d="M297.43,417.82a4.68,4.68,0,0,1,1.51-4.42,6.2,6.2,0,0,1,4.55-1.42,2.6,2.6,0,0,1,2,.9,2,2,0,0,1,0,2,3.9,3.9,0,0,1-1.49,1.47c-2,1.29-4.27,2.16-6.59,1.46" style="fill:#455a64"></path><path d="M299.11,418.09a5.93,5.93,0,0,1-1.68-.24h0a4.69,4.69,0,0,1,1.51-4.44,6,6,0,0,1,4-1.45,4.78,4.78,0,0,1,.53,0,2.51,2.51,0,0,1,2,.91,2,2,0,0,1,0,2,4.06,4.06,0,0,1-1.5,1.47A9.4,9.4,0,0,1,299.11,418.09Zm-1.65-.29c2,.58,4,.12,6.55-1.46a4,4,0,0,0,1.48-1.46,2,2,0,0,0,0-2,2.51,2.51,0,0,0-2-.88,4.52,4.52,0,0,0-.52,0,6,6,0,0,0-4,1.43A4.63,4.63,0,0,0,297.46,417.8Z" style="fill:#263238"></path><path d="M294.4,426.44a4.43,4.43,0,0,1,.08-.58c.08-.41.17-.93.29-1.56a16.47,16.47,0,0,1,1.61-5,10,10,0,0,1,3.58-3.8,6.34,6.34,0,0,1,1.46-.64,3.34,3.34,0,0,1,.42-.11l.15,0a11.09,11.09,0,0,0-2,.9,10.37,10.37,0,0,0-3.47,3.77,17.82,17.82,0,0,0-1.65,4.92c-.14.65-.26,1.18-.35,1.55A4,4,0,0,1,294.4,426.44Z" style="fill:#263238"></path><path d="M294.49,402a.9.9,0,0,1,0,.26l0,.72c0,.63.07,1.54.11,2.67.07,2.25.13,5.36.11,8.8s-.1,6.55-.19,8.8c0,1.12-.09,2-.13,2.66l0,.73a.87.87,0,0,1,0,.25,1,1,0,0,1,0-.26c0-.18,0-.42,0-.72,0-.66,0-1.56.07-2.67.05-2.25.11-5.36.13-8.79s0-6.55-.06-8.8c0-1.11,0-2,0-2.67v-.72A1,1,0,0,1,294.49,402Z" style="fill:#263238"></path><path d="M293.34,419.53a10.88,10.88,0,0,0-5.93-8,2.3,2.3,0,0,0-2.48,0,2.26,2.26,0,0,0-.18,2.47,9.26,9.26,0,0,0,8.53,5.76" style="fill:#455a64"></path><path d="M293.19,419.79a9.35,9.35,0,0,1-8.47-5.78c-.2-.52-.58-1.79.2-2.5s1.88-.26,2.5,0a10.88,10.88,0,0,1,5.95,8h-.05a10.81,10.81,0,0,0-5.92-8c-.61-.29-1.74-.68-2.45,0s-.38,1.93-.18,2.44a9.29,9.29,0,0,0,8.42,5.75h.09v.05Z" style="fill:#263238"></path><path d="M287.79,414.24a1.91,1.91,0,0,1,.5.22,3.56,3.56,0,0,1,.57.3,8.07,8.07,0,0,1,.72.45,9.9,9.9,0,0,1,.83.62c.29.23.58.51.88.8a12.12,12.12,0,0,1,1.67,2.15,11.93,11.93,0,0,1,1.1,2.49,11.26,11.26,0,0,1,.28,1.15,8.41,8.41,0,0,1,.14,1c0,.31,0,.6,0,.85a6,6,0,0,1,0,.64,4.06,4.06,0,0,1-.06.55c-.05,0,0-.78-.1-2,0-.31-.08-.65-.17-1a11.23,11.23,0,0,0-.29-1.14,11.56,11.56,0,0,0-2.73-4.56c-.29-.29-.57-.57-.85-.8a9.93,9.93,0,0,0-.8-.63C288.48,414.6,287.77,414.28,287.79,414.24Z" style="fill:#263238"></path></g><g id="freepik--plant-1--inject-2"><path d="M137.94,291.79c-7.43,3.86-13.13,10.49-17.23,17.79s-6.74,15.31-9.36,23.26l-2.29,41c8.65-14.72,15.59-32,17.47-49l-5.76-.51c3.86-.59,7.1-3.39,9.16-6.7s3.13-7.14,4.16-10.9l-7,1A26,26,0,0,0,137.94,291.79Z" style="fill:#455a64"></path><g style="opacity:0.30000000000000004"><path d="M137.94,291.79c-7.43,3.86-13.13,10.49-17.23,17.79s-6.74,15.31-9.36,23.26l-2.29,41c8.65-14.72,15.59-32,17.47-49l-5.76-.51c3.86-.59,7.1-3.39,9.16-6.7s3.13-7.14,4.16-10.9l-7,1A26,26,0,0,0,137.94,291.79Z"></path></g><path d="M110.62,391.18s-18.77-22.47-18.56-43.92h7.59s-8.24-5.42-7.59-8.45.87-14.52.87-14.52L99.86,326s-5.2-2.6-5.85-6.72,1.52-23.18,1.52-23.18,8.45,8.88,11,18S116,333.82,114,361.56,110.62,391.18,110.62,391.18Z" style="fill:#455a64"></path><path d="M117.3,385.59s20.34-13.55,24.86-30.85l-6.1-1.66s7.81-2.55,7.95-5.13,2.48-11.87,2.48-11.87l-6-.12s4.76-.95,6.18-4.12,3.85-19,3.85-19-8.74,5.29-12.82,12-11.89,13.79-16.35,36.53S117.3,385.59,117.3,385.59Z" style="fill:#455a64"></path><path d="M100.66,315.71a1,1,0,0,1,.07.23l.18.69c.15.65.35,1.54.61,2.66.52,2.32,1.22,5.68,2,9.85,1.61,8.33,3.5,19.91,5,32.78s2.28,24.58,2.62,33.06c.17,4.24.26,7.67.28,10,0,1.15,0,2.06,0,2.73,0,.29,0,.52,0,.71a.64.64,0,0,1,0,.24.75.75,0,0,1,0-.24c0-.19,0-.42,0-.71q0-1-.12-2.73c-.07-2.37-.22-5.8-.44-10-.43-8.47-1.28-20.16-2.76-33s-3.33-24.43-4.84-32.77c-.75-4.18-1.4-7.55-1.86-9.87-.22-1.14-.39-2-.52-2.69,0-.28-.09-.51-.12-.7A.87.87,0,0,1,100.66,315.71Z" style="fill:#263238"></path><path d="M98.69,383.53S81.51,364,76.18,352.25l4-1.72A10.45,10.45,0,0,1,72,347.85,31.14,31.14,0,0,1,66.47,341l5.31-.9a19.71,19.71,0,0,1-11.59-9c6.26,1,11.92,4.47,16.59,8.77a82.19,82.19,0,0,1,10,11.65,39.31,39.31,0,0,1,3.91,6.42C93.63,363.9,98.7,376.37,98.69,383.53Z" style="fill:#455a64"></path><path d="M142.43,324.21a4.66,4.66,0,0,1-.33.78l-1,2.17c-.91,1.87-2.21,4.6-3.78,8-3.15,6.76-7.3,16.19-11.41,26.8s-7.37,20.39-9.59,27.51c-1.11,3.56-2,6.45-2.57,8.45-.3,1-.53,1.73-.7,2.3a4.29,4.29,0,0,1-.28.8,7.16,7.16,0,0,1,.18-.82l.6-2.33c.53-2,1.35-4.93,2.42-8.5,2.13-7.16,5.35-17,9.46-27.59S133.72,341.71,137,335c1.61-3.36,3-6.06,3.93-7.91l1.12-2.13A5.84,5.84,0,0,1,142.43,324.21Z" style="fill:#263238"></path><path d="M100.42,391.27a5.23,5.23,0,0,1-.26-1.2c-.13-.78-.33-1.9-.62-3.28a70,70,0,0,0-3-10.54,70.73,70.73,0,0,0-4.69-9.92c-.7-1.22-1.29-2.2-1.71-2.86a5.74,5.74,0,0,1-.6-1.08,5.52,5.52,0,0,1,.77,1c.48.64,1.11,1.59,1.86,2.79A59.05,59.05,0,0,1,97,376.07a58.3,58.3,0,0,1,2.92,10.65c.23,1.4.38,2.53.45,3.32A6.33,6.33,0,0,1,100.42,391.27Z" style="fill:#263238"></path><rect x="83.77" y="384.92" width="52.96" height="9.57" style="fill:#72C03A"></rect><polygon points="88.82 394.5 94.55 426.69 126.55 426.69 131.89 394.5 88.82 394.5" style="fill:#72C03A"></polygon><path d="M133.48,394.49c0,.15-10,.27-22.37.27s-22.38-.12-22.38-.27,10-.26,22.38-.26S133.48,394.35,133.48,394.49Z" style="fill:#263238"></path></g><g id="freepik--watering-can--inject-2"><path d="M495.83,415.58l-2.11-3-13.45,9.58-4.63.76-1.07-16.78H445.33L444.5,412l-3-2.6A7.82,7.82,0,0,0,431,421l10.75,10.9-1.68,12H477l-.17-2.55Zm-63.47,4a5.89,5.89,0,0,1,7.91-8.7l3.91,3.43-2.12,15.11Z" style="fill:#455a64"></path><path d="M495.83,415.58l-2.11-3-13.45,9.58-4.63.76-1.07-16.78H445.33L444.5,412l-3-2.6A7.82,7.82,0,0,0,431,421l10.75,10.9-1.68,12H477l-.17-2.55Zm-63.47,4a5.89,5.89,0,0,1,7.91-8.7l3.91,3.43-2.12,15.11Z" style="fill:none"></path><path d="M432.36,419.6a4.85,4.85,0,0,1,.76.66l2,2,7.09,7.06-.39.13c.49-3.58,1.06-7.72,1.66-12.12.15-1,.29-2,.42-3l.09.23-3.54-3.12a5.62,5.62,0,0,0-3.78-1.59,5.73,5.73,0,0,0-3.54,1.11,5.75,5.75,0,0,0-1.74,7.19,15.12,15.12,0,0,0,.95,1.48,4.36,4.36,0,0,1-1.12-1.39,5.9,5.9,0,0,1-.37-4.83,6,6,0,0,1,2-2.78,6.13,6.13,0,0,1,3.79-1.24,6,6,0,0,1,4.09,1.67l3.56,3.11.1.09,0,.14-.41,3c-.63,4.4-1.22,8.53-1.73,12.11l-.06.47-.33-.34c-2.83-2.93-5.22-5.39-6.95-7.19L433,420.36A7,7,0,0,1,432.36,419.6Z" style="fill:#263238"></path><path d="M495.83,415.58l-.31.45c-.22.32-.54.76-.95,1.33l-3.73,5.12L477,441.41l0-.13c.05.78.11,1.66.17,2.55v.2H477l-36.94.06h-.29l0-.28c.53-3.81,1.1-7.86,1.67-12l.07.22q-3.07-3.14-6.28-6.37L432,422.4c-.54-.56-1.09-1.06-1.62-1.68a8.33,8.33,0,0,1-1.28-2,8.08,8.08,0,0,1,10.74-10.59,9.31,9.31,0,0,1,2.53,1.76l2.26,2-.42.16q.42-3,.83-5.91l0-.21h.22l29.24,0h.2v.2c.38,6.23.73,11.85,1,16.78l-.19-.16,4.63-.74-.07,0,13.5-9.51.06,0,0,.06,1.57,2.32c.34.5.48.74.48.74s-.19-.24-.55-.73l-1.61-2.25h.09l-13.4,9.66,0,0h0l-4.63.78-.18,0,0-.19c-.32-4.93-.7-10.55-1.11-16.77l.21.19-29.24,0,.24-.21q-.4,2.91-.82,5.91l-.06.46-.36-.31-2.25-2a8.79,8.79,0,0,0-2.41-1.68,7.56,7.56,0,0,0-10.05,9.91,7.48,7.48,0,0,0,1.2,1.89c.48.56,1.07,1.11,1.59,1.66l3.22,3.26,6.28,6.38.09.09,0,.12c-.58,4.13-1.15,8.18-1.68,12l-.25-.28,36.94.05-.2.21c-.05-.89-.11-1.77-.16-2.54v-.07l0-.06,14-18.74,3.82-5.09,1-1.32C495.7,415.73,495.83,415.58,495.83,415.58Z" style="fill:#263238"></path><path d="M440.79,438.41a7,7,0,0,1,.08-1.27c.1-.92.24-2.07.4-3.44.36-2.9.89-6.9,1.51-11.31S444,414,444.44,411.1c.23-1.36.42-2.5.57-3.41a6.64,6.64,0,0,1,.27-1.25,5.53,5.53,0,0,1-.07,1.27c-.11.92-.24,2.07-.4,3.44-.36,2.9-.9,6.9-1.52,11.31s-1.21,8.41-1.66,11.29c-.22,1.36-.41,2.51-.56,3.42A6.08,6.08,0,0,1,440.79,438.41Z" style="fill:#263238"></path><path d="M473.79,441.63s-.25-.16-.59-.54a11.52,11.52,0,0,1-1.29-1.77,12.74,12.74,0,0,1,.54-13.76,11,11,0,0,1,1.42-1.67c.38-.35.61-.52.63-.49s-.78.83-1.74,2.36a13.25,13.25,0,0,0-.53,13.38C473.08,440.74,473.86,441.57,473.79,441.63Z" style="fill:#263238"></path></g><g id="freepik--Rake--inject-2"><g style="opacity:0.30000000000000004"><path d="M505.25,289.65s.59,12.83,1.62,21S516.5,367,516.5,367l-.23-16.21-6.65-47.74Z"></path></g><path d="M508.58,288.75l2.73,10.17,6.51,24.34q3.95,14.75,7.9,29.5,3.39,12.71,6.8,25.41c1.09,4.1,2.32,8.19,3.29,12.32,0,.05,0,.11.05.17.56,2.11-2.71,3-3.27.9l-2.73-10.17-6.51-24.34q-3.95-14.76-7.9-29.5-3.39-12.71-6.8-25.41c-1.09-4.1-2.32-8.19-3.29-12.32l-.05-.17c-.56-2.11,2.71-3,3.27-.9Z" style="fill:#ae7461"></path><polygon points="512.16 438.2 511.25 437.8 532.54 389.57 536.27 389.57 536.42 389.74 578.65 437.12 577.9 437.79 535.82 390.57 533.2 390.57 512.16 438.2" style="fill:#263238"></polygon><rect x="559.66" y="401.44" width="1" height="42.39" transform="translate(-141.54 426.46) rotate(-37.35)" style="fill:#263238"></rect><rect x="556.6" y="402.54" width="1" height="42.93" transform="translate(-139.97 358.95) rotate(-31.94)" style="fill:#263238"></rect><rect x="553.54" y="404.77" width="1" height="40.42" transform="translate(-132.2 295.95) rotate(-26.84)" style="fill:#263238"></rect><rect x="549.86" y="405.56" width="1" height="41.02" transform="translate(-116.81 227.77) rotate(-21.19)" style="fill:#263238"></rect><rect x="546.13" y="406.63" width="1" height="39.49" transform="matrix(0.95, -0.3, 0.3, 0.95, -103.24, 184.99)" style="fill:#263238"></rect><rect x="542.11" y="407.12" width="1" height="38.49" transform="translate(-77.06 122.69) rotate(-12.05)" style="fill:#263238"></rect><rect x="537.99" y="406.82" width="1" height="38.49" transform="translate(-44.75 63.67) rotate(-6.5)" style="fill:#263238"></rect><rect x="533.99" y="406.95" width="1" height="38.25" transform="matrix(1, -0.01, 0.01, 1, -5.73, 7.29)" style="fill:#263238"></rect><rect x="512.04" y="424.48" width="36.31" height="1" transform="translate(46.95 902.68) rotate(-83.38)" style="fill:#263238"></rect><rect x="508.05" y="422.86" width="36.1" height="1" transform="translate(-5.41 839.91) rotate(-76.91)" style="fill:#263238"></rect><polygon points="517.08 439.65 516.13 439.33 527.64 405.63 528.59 405.95 517.08 439.65" style="fill:#263238"></polygon><path d="M565.06,423a58.16,58.16,0,0,1-36.92,4.81,56.21,56.21,0,0,1-10.33-3.13c-.52-.22-.3-1.07.23-.86A57.18,57.18,0,0,0,554.63,426a55,55,0,0,0,10-3.8c.51-.25,1,.51.45.77Z" style="fill:#263238"></path><path d="M550.05,405.79s-7.42,6.84-24,.41l6.78-16.13H536Z" style="fill:#263238"></path><path d="M539.27,409.47a37,37,0,0,1-13.36-2.8l-.48-.19,7.11-16.91h3.73l14.48,16.25-.36.33C550.18,406.35,546.67,409.47,539.27,409.47Zm-12.51-3.55c13.68,5.16,20.88,1,22.56-.2l-13.5-15.15H533.2Z" style="fill:#263238"></path></g><g id="freepik--Lawnmower--inject-2"><rect x="585.01" y="360.05" width="40.87" height="34.59" rx="4.47" transform="translate(1217.61 743.68) rotate(178.96)" style="fill:#263238"></rect><rect x="687.49" y="381.03" width="8.94" height="12.04" rx="3.01" transform="translate(1390.81 761.52) rotate(178.96)" style="fill:#263238"></rect><path d="M615.38,374.16a28.92,28.92,0,0,1-30.32-19.43c-2-6.17-2.3-12.84-5.36-18.67a33.92,33.92,0,0,0-11.53-12.3c-5.83-3.85-12.08-7.33-18.91-9a.12.12,0,0,0-.06.24c6.47,1.61,12.23,4.84,17.85,8.36a34.08,34.08,0,0,1,12.7,13.37c3.08,6.19,3.11,13.29,5.64,19.66a28.84,28.84,0,0,0,30,18c.16,0,.16-.26,0-.25Z" style="fill:#72C03A"></path><path d="M626.84,380.81,564,325.49,546.43,310c-1.2-1.06-3,.7-1.77,1.77l62.83,55.32,17.58,15.48c1.21,1.06,3-.7,1.77-1.77Z" style="fill:#e0e0e0"></path><path d="M644.89,385.79l44.57,9.69L689,370.55a8,8,0,0,0-8.15-7.87l-28.37.51a8,8,0,0,0-7.86,8.16Z" style="fill:#263238"></path><path d="M710.56,413.56s4.06-14.58-9.36-20.73c-8.21-3.76-81.38-19.28-81.38-19.28L615,374.79,610,413Z" style="fill:#72C03A"></path><path d="M623.58,404.24c0-.15,15.95-.08,35.63.15s35.62.53,35.62.67-16,.08-35.63-.15S623.58,404.38,623.58,404.24Z" style="fill:#263238"></path><circle cx="706.27" cy="413.64" r="15.51" transform="translate(280.65 1112.76) rotate(-89.02)" style="fill:#263238"></circle><path d="M696.91,413.81a9.36,9.36,0,1,0,9.19-9.53A9.37,9.37,0,0,0,696.91,413.81Z" style="fill:#455a64"></path><rect x="624.72" y="400.36" width="35.73" height="9.19" rx="4.41" transform="translate(1292.39 798.22) rotate(178.96)" style="fill:#263238"></rect><circle cx="611.22" cy="408.03" r="19.37" transform="translate(-97.21 603.51) rotate(-49.15)" style="fill:#263238"></circle><path d="M591.85,408.38a1,1,0,0,1,0-.31v-.92a9.61,9.61,0,0,1,.1-1.5,13.83,13.83,0,0,1,.34-2,18.37,18.37,0,0,1,2-5.25,19.52,19.52,0,0,1,13-9.51,19.67,19.67,0,0,1,10.31.63,18.45,18.45,0,0,1,5,2.57,24.79,24.79,0,0,1,2.27,1.85,22.13,22.13,0,0,1,2,2.24,19.48,19.48,0,0,1,.42,23.2,17.36,17.36,0,0,1-4.08,4.23,18.28,18.28,0,0,1-4.92,2.75,19.56,19.56,0,0,1-10.28,1,19.55,19.55,0,0,1-13.31-9,18.34,18.34,0,0,1-2.2-5.17,13.29,13.29,0,0,1-.41-2,9.22,9.22,0,0,1-.15-1.5l0-.92a1.65,1.65,0,0,1,0-.32,2.11,2.11,0,0,1,0,.32c0,.23.05.53.08.91a9.85,9.85,0,0,0,.21,1.48,13.37,13.37,0,0,0,.45,2,18.35,18.35,0,0,0,2.25,5.07,19.17,19.17,0,0,0,23.17,7.73,17.91,17.91,0,0,0,4.79-2.69,17,17,0,0,0,4-4.14,19,19,0,0,0-.41-22.59,22.36,22.36,0,0,0-1.91-2.19,22,22,0,0,0-2.21-1.8,17.84,17.84,0,0,0-4.88-2.52,19.21,19.21,0,0,0-22.88,8.57,18.44,18.44,0,0,0-2.06,5.15,12.58,12.58,0,0,0-.38,2,9,9,0,0,0-.15,1.48c0,.38,0,.69-.06.92A1.2,1.2,0,0,1,591.85,408.38Z" style="fill:#455a64"></path><path d="M599.53,408.25A11.69,11.69,0,1,0,611,396.35,11.69,11.69,0,0,0,599.53,408.25Z" style="fill:#455a64"></path><path d="M689,372.05l-44.39.81,0-2.71a6.8,6.8,0,0,1,6.69-6.93l30.75-.56a6.82,6.82,0,0,1,6.94,6.69Z" style="fill:#e0e0e0"></path><path d="M605.13,380.9l-19.53.36a.13.13,0,0,0,0,.25l19.53-.36a.13.13,0,0,0,0-.25Z" style="fill:#455a64"></path><path d="M605.17,382.9l-19.54.35c-.16,0-.16.26,0,.25l19.54-.35a.13.13,0,0,0,0-.25Z" style="fill:#455a64"></path><path d="M605.2,384.9l-19.53.35a.13.13,0,0,0,0,.25l19.53-.35c.17,0,.17-.26,0-.25Z" style="fill:#455a64"></path></g><g id="freepik--Shovel--inject-2"><path d="M190.92,269.12l-2.07,11.53-5,27.57q-3,16.72-6,33.43l-5.19,28.8c-.84,4.65-1.69,9.3-2.52,13.95l0,.19a1.94,1.94,0,0,0,1.22,2.37,1.89,1.89,0,0,0,2.37-1.22l2.08-11.53q2.49-13.79,5-27.58l6-33.43L192,284.41c.84-4.65,1.69-9.3,2.52-14l0-.19a2,2,0,0,0-1.22-2.37,1.92,1.92,0,0,0-2.38,1.23Z" style="fill:#ae7461"></path><path d="M168.38,386.94c0-.32,1.87-9.72,1.87-9.72a6.79,6.79,0,0,1,5.57.22l-1.88,9.28,16,.62s-.86,33.77-24.91,39.26c0,0-17-3.12-14.69-25.56l2.26-14.92Z" style="fill:#e0e0e0"></path><path d="M174.29,386.79a4.21,4.21,0,0,1-.09,1c-.1.63-.26,1.56-.52,2.68s-.62,2.46-1.09,3.91a17.91,17.91,0,0,1-.86,2.27,2.7,2.7,0,0,1-2.16,1.62,2.57,2.57,0,0,1-2.27-1.48,4.71,4.71,0,0,1-.39-2.46,32.42,32.42,0,0,1,.61-4c.24-1.13.46-2,.62-2.66a4.12,4.12,0,0,1,.31-.95,30.31,30.31,0,0,1-.57,3.68,40.06,40.06,0,0,0-.49,4,4.26,4.26,0,0,0,.36,2.2,2.08,2.08,0,0,0,1.8,1.2,2.23,2.23,0,0,0,1.73-1.34,16.65,16.65,0,0,0,.85-2.18c.5-1.43.89-2.74,1.19-3.85C173.93,388.18,174.21,386.78,174.29,386.79Z" style="fill:#263238"></path><path d="M188.74,388.57a13.62,13.62,0,0,1-.27,1.74c-.21,1.11-.53,2.72-1,4.69a63.15,63.15,0,0,1-5.13,15A31,31,0,0,1,172,421.82a21.08,21.08,0,0,1-4.31,2.14,13,13,0,0,1-1.25.39,1.23,1.23,0,0,1-.44.09,30.55,30.55,0,0,0,5.8-2.93,31.89,31.89,0,0,0,10.12-11.78,69,69,0,0,0,5.23-14.81c.46-1.9.85-3.47,1.14-4.65A10.78,10.78,0,0,1,188.74,388.57Z" style="fill:#263238"></path></g><g id="freepik--Birds--inject-2"><path d="M619.55,110.22s-.73-.25-2.08-.55a16.3,16.3,0,0,0-5.8-.22,15.64,15.64,0,0,0-7.83,3.37,16.28,16.28,0,0,0-5.52,8.77l0,.1-.17.62-.24-.59a17.37,17.37,0,0,0-6.61-8,16.91,16.91,0,0,0-8.07-2.7,17.75,17.75,0,0,0-5.77.53c-1.34.35-2,.66-2.06.62a4.46,4.46,0,0,1,.51-.24,12.79,12.79,0,0,1,1.5-.54,17.31,17.31,0,0,1,14.1,2,17.71,17.71,0,0,1,6.8,8.15l-.41,0,0-.1a16.47,16.47,0,0,1,5.69-9,15.69,15.69,0,0,1,8-3.37,15.89,15.89,0,0,1,5.88.36A13.15,13.15,0,0,1,619,110,3.09,3.09,0,0,1,619.55,110.22Z" style="fill:#263238"></path><path d="M625.57,78.7s-.41-.11-1.16-.27a9.28,9.28,0,0,0-3.17-.09A8.64,8.64,0,0,0,617,80.2,8.91,8.91,0,0,0,614,85v0l-.16.63-.24-.6a9.59,9.59,0,0,0-3.6-4.35,9.26,9.26,0,0,0-4.4-1.49,10.05,10.05,0,0,0-3.16.26c-.73.18-1.12.34-1.14.31s.09-.07.27-.16a8.79,8.79,0,0,1,.83-.31,9.42,9.42,0,0,1,7.81,1.06A9.73,9.73,0,0,1,614,84.9l-.4,0v-.06a9.09,9.09,0,0,1,3.17-5,8.62,8.62,0,0,1,4.46-1.85,8.45,8.45,0,0,1,3.25.23,4.74,4.74,0,0,1,.84.28A1.13,1.13,0,0,1,625.57,78.7Z" style="fill:#263238"></path><path d="M585.05,57.06s-.4.46-1.12,1.27a27.12,27.12,0,0,0-6.77,18v.18l-.42,0a23.61,23.61,0,0,0-2.62-7.76,24,24,0,0,0-4-5.38,24.51,24.51,0,0,0-3.45-2.93c-.88-.61-1.39-.92-1.37-.95a1.86,1.86,0,0,1,.39.19c.24.14.62.32,1.07.62a21.36,21.36,0,0,1,3.57,2.86,23.69,23.69,0,0,1,6.82,13.29l-.42,0v-.18A26.36,26.36,0,0,1,581,61.84a25.32,25.32,0,0,1,2.86-3.63c.37-.4.69-.67.9-.87A1.84,1.84,0,0,1,585.05,57.06Z" style="fill:#263238"></path></g><g id="freepik--Sun--inject-2"><circle cx="220.45" cy="86.81" r="17.86" style="fill:#72C03A"></circle><path d="M220.45,104.69A17.9,17.9,0,0,1,204,79.85a18.07,18.07,0,0,1,9.52-9.52,17.89,17.89,0,1,1,7,34.36Z" style="fill:#72C03A"></path><path d="M217.91,126.76a70,70,0,0,1-.19-7.37,70,70,0,0,1,.19-7.37,73.36,73.36,0,0,1,.19,7.37A73.36,73.36,0,0,1,217.91,126.76Z" style="fill:#72C03A"></path><path d="M217.91,126.78s-.1,0-.16-2.18c0-1.39-.05-3.24-.05-5.21s0-3.82.05-5.21c.06-2.18.12-2.18.16-2.18s.09,0,.15,2.18c0,1.39.05,3.24.05,5.21s0,3.82-.05,5.21C218,126.78,217.94,126.78,217.91,126.78Zm0-14.73c-.09.27-.17,3.07-.17,7.34s.08,7.06.17,7.33c.08-.27.17-3.06.17-7.33S218,112.32,217.91,112.05Z" style="fill:#72C03A"></path><path d="M207.61,107.87c.09,0-1.59,3.13-3.75,6.87s-4,6.74-4.08,6.69,1.59-3.13,3.75-6.88S207.52,107.81,207.61,107.87Z" style="fill:#72C03A"></path><path d="M199.78,121.45h0s-.08,0,1-2.07c.71-1.3,1.67-3,2.72-4.83s2-3.5,2.81-4.76c1.09-1.78,1.24-1.93,1.28-1.93h0s.08.05-1,2.08c-.71,1.3-1.68,3-2.72,4.82-1.86,3.21-3.92,6.65-4.09,6.7Zm7.81-13.55c-.21.21-1.77,2.74-4,6.66s-3.68,6.54-3.75,6.84c.22-.22,1.78-2.75,4-6.67S207.52,108.19,207.59,107.9Z" style="fill:#72C03A"></path><path d="M197.05,101.29a41.43,41.43,0,0,1-4.18,3.55,40.87,40.87,0,0,1-4.4,3.27,37.36,37.36,0,0,1,4.17-3.56A39.89,39.89,0,0,1,197.05,101.29Z" style="fill:#72C03A"></path><path d="M188.47,108.13h0s-.06-.08,1.18-1.13c.79-.67,1.85-1.54,3-2.46a44.19,44.19,0,0,1,4.41-3.26h0s0,0,0,0h0v0a44.34,44.34,0,0,1-4.18,3.56c-1.15.91-2.24,1.75-3.07,2.37A5.92,5.92,0,0,1,188.47,108.13ZM197,101.3a53.75,53.75,0,0,0-4.37,3.26,45.74,45.74,0,0,0-4.16,3.53,47.94,47.94,0,0,0,4.37-3.26A46,46,0,0,0,197,101.3Zm0,0Z" style="fill:#72C03A"></path><path d="M235.73,119.5a11.37,11.37,0,0,1-.47-1.82c-.26-1.12-.62-2.67-1.08-4.37s-.92-3.22-1.26-4.32a10.55,10.55,0,0,1-.5-1.81,9.63,9.63,0,0,1,.75,1.72c.41,1.09.91,2.61,1.37,4.31s.79,3.28,1,4.42A8.37,8.37,0,0,1,235.73,119.5Z" style="fill:#72C03A"></path><path d="M235.73,119.52c-.06,0-.14-.28-.49-1.83-.24-1-.61-2.64-1.08-4.37s-.95-3.32-1.26-4.33v0c-.45-1.46-.54-1.78-.48-1.8s.05,0,.27.45c.14.32.32.78.51,1.28a44.49,44.49,0,0,1,1.37,4.31c.55,2,.85,3.64,1,4.42a9,9,0,0,1,.21,1.88Zm-3.3-12.31a17,17,0,0,0,.5,1.75v0c.31,1,.78,2.56,1.26,4.33s.84,3.32,1.08,4.37c.2.89.38,1.67.44,1.79a10.36,10.36,0,0,0-.22-1.83c-.13-.78-.43-2.39-1-4.42s-1.1-3.57-1.38-4.31A11.88,11.88,0,0,0,232.43,107.21Z" style="fill:#72C03A"></path><path d="M253.85,106.64a62.66,62.66,0,0,1-5.28-4.37,61.05,61.05,0,0,1-5-4.65,67.2,67.2,0,0,1,5.28,4.37A63.11,63.11,0,0,1,253.85,106.64Z" style="fill:#72C03A"></path><path d="M253.84,106.66c-.18,0-2.85-2.25-5.28-4.37-1.38-1.21-2.66-2.35-3.61-3.23-1.49-1.38-1.45-1.42-1.43-1.45h0a65.78,65.78,0,0,1,5.29,4.38c1.38,1.2,2.66,2.35,3.61,3.23,1.49,1.37,1.45,1.42,1.42,1.44h0Zm-10.28-9c.13.22,2,2,5,4.61s5,4.26,5.25,4.36c-.14-.23-2-2-5-4.61S243.8,97.75,243.56,97.65Z" style="fill:#72C03A"></path><path d="M260.79,89a15.67,15.67,0,0,1-2.16-.31c-1.32-.22-3.15-.5-5.18-.74s-3.88-.37-5.22-.45a14.35,14.35,0,0,1-2.17-.19,10.54,10.54,0,0,1,2.18-.08c1.35,0,3.21.12,5.25.35a51,51,0,0,1,5.19.85A10.91,10.91,0,0,1,260.79,89Z" style="fill:#72C03A"></path><path d="M260.73,89c-.16,0-.6-.07-1.67-.25l-.43-.07c-1.81-.3-3.55-.55-5.18-.74s-3.38-.34-5.22-.45l-.42,0c-1.48-.09-1.77-.12-1.77-.18v0a12.52,12.52,0,0,1,2.19-.08c.93,0,2.85.08,5.26.35s4.28.65,5.19.85a10.74,10.74,0,0,1,2.11.58,0,0,0,0,1,0,0h0S260.78,89,260.73,89ZM246.1,87.28c.13,0,.8.08,1.71.14l.42,0c1.84.12,3.6.27,5.22.45s3.38.44,5.19.74l.42.07c.86.15,1.51.25,1.68.25h0a15.06,15.06,0,0,0-2.08-.54c-.9-.2-2.78-.57-5.19-.85a51.4,51.4,0,0,0-5.25-.35A16.13,16.13,0,0,0,246.1,87.28Z" style="fill:#72C03A"></path><path d="M260.81,71.59c0,.11-3.84,1.13-8.64,2.3s-8.7,2-8.72,1.93,3.84-1.12,8.64-2.29S260.79,71.49,260.81,71.59Z" style="fill:#72C03A"></path><path d="M243.49,75.85c-.06,0-.06,0-.06,0s0-.09,2.52-.77c1.64-.44,3.81-1,6.13-1.55s4.51-1.08,6.15-1.44c2.58-.57,2.59-.51,2.6-.48h0s0,.09-2.53.77c-1.63.44-3.8,1-6.12,1.55S247.68,75,246,75.35A22,22,0,0,1,243.49,75.85Zm17.28-4.25c-.35,0-3.66.72-8.68,1.94s-8.29,2.11-8.6,2.27c.35,0,3.66-.71,8.68-1.94S260.46,71.77,260.77,71.6Z" style="fill:#72C03A"></path><path d="M240.62,51.35a77.71,77.71,0,0,1-4.13,6.59c-2.37,3.59-4.36,6.45-4.44,6.39a77.71,77.71,0,0,1,4.13-6.59C238.55,54.15,240.54,51.29,240.62,51.35Z" style="fill:#72C03A"></path><path d="M232.05,64.35h0s0,0,0,0c0-.17,2.1-3.53,4.13-6.6,1.15-1.74,2.24-3.36,3.08-4.56,1.3-1.86,1.36-1.85,1.4-1.84h0s.08.06-1.14,2c-.79,1.25-1.85,2.89-3,4.62s-2.24,3.35-3.08,4.56C232.26,64.2,232.09,64.35,232.05,64.35Zm8.56-13c-.23.2-1.93,2.61-4.42,6.37s-4,6.26-4.12,6.55c.23-.2,1.93-2.61,4.41-6.37S240.51,51.67,240.61,51.38Z" style="fill:#72C03A"></path><path d="M220.59,47.12a17.82,17.82,0,0,1,0,2.45c0,1.52-.05,3.61-.05,5.91s0,4.4.06,5.91a19.14,19.14,0,0,1,0,2.45,15,15,0,0,1-.25-2.44c-.09-1.51-.17-3.6-.17-5.92s.07-4.4.16-5.92A14.64,14.64,0,0,1,220.59,47.12Z" style="fill:#72C03A"></path><path d="M220.61,63.86s-.06,0-.13-.67c0-.45-.09-1.07-.13-1.79-.07-1-.17-3.14-.18-5.92s.1-4.9.16-5.92c0-.71.09-1.33.14-1.79.06-.64.09-.67.12-.67h0c.06,0,.08.23,0,2.47,0,1.43-.06,3.59,0,5.91s0,4.32.06,5.82v.09c0,2.25,0,2.47,0,2.47Zm0-16.7a20.12,20.12,0,0,0-.22,2.41c-.06,1-.16,3.14-.16,5.91s.11,4.9.17,5.92a21.39,21.39,0,0,0,.23,2.41c0-.21,0-1.53,0-2.42V61.3c0-1.5-.06-3.56-.06-5.82s0-4.48,0-5.91C220.61,48.68,220.63,47.36,220.59,47.16Z" style="fill:#72C03A"></path><path d="M205.42,66c-.09,0-2-2.87-4.2-6.52s-4-6.66-3.89-6.71,2,2.86,4.21,6.51S205.51,66,205.42,66Z" style="fill:#72C03A"></path><path d="M205.42,66s-.2-.15-1.31-1.88c-.8-1.23-1.83-2.88-2.91-4.65-1.91-3.13-3.93-6.56-3.89-6.72v0s.09-.05,1.33,1.87c.79,1.23,1.82,2.89,2.9,4.65s2.08,3.44,2.81,4.71c1.15,2,1.1,2,1.07,2h0Zm-8.07-13.22c.08.29,1.54,2.84,3.88,6.67s4,6.29,4.17,6.5c-.08-.29-1.54-2.85-3.88-6.68S197.57,53,197.35,52.82Z" style="fill:#72C03A"></path><path d="M196.36,73.72a9.1,9.1,0,0,1-1.9-.3c-1.16-.25-2.76-.64-4.5-1.15s-3.28-1-4.39-1.47a9.6,9.6,0,0,1-1.76-.78,10.31,10.31,0,0,1,1.85.52c1.12.36,2.68.86,4.41,1.37s3.31.94,4.45,1.25A11.33,11.33,0,0,1,196.36,73.72Z" style="fill:#72C03A"></path><path d="M196.29,73.75a3.27,3.27,0,0,1-.45,0l-1.39-.26c-.78-.17-2.41-.54-4.49-1.15s-3.65-1.19-4.4-1.48c-.52-.2-1-.38-1.3-.53-.49-.22-.48-.25-.47-.27s.27,0,1.87.52c.9.29,2.59.82,4.41,1.36s3.17.9,4.45,1.25c1.63.44,1.87.52,1.85.58h0S196.37,73.75,196.29,73.75ZM183.84,70a13.5,13.5,0,0,0,1.73.75c.75.29,2.32.86,4.4,1.47s3.71,1,4.49,1.15a12.69,12.69,0,0,0,1.84.31h0a18.42,18.42,0,0,0-1.82-.53c-1.28-.35-2.78-.76-4.45-1.25-1.82-.54-3.51-1.08-4.41-1.37C185,70.34,184,70,183.84,70Z" style="fill:#72C03A"></path><path d="M192.4,87.44a41.92,41.92,0,0,1-5.7.74,41.24,41.24,0,0,1-5.74.36,44.71,44.71,0,0,1,5.7-.73A44.33,44.33,0,0,1,192.4,87.44Z" style="fill:#72C03A"></path><path d="M181.28,88.59a.9.9,0,0,1-.33,0,0,0,0,0,1,0,0s0,0,0,0a46.19,46.19,0,0,1,5.71-.74,47.76,47.76,0,0,1,5.74-.37l0,0h0s0,0,0,0a46.51,46.51,0,0,1-5.71.74C184.5,88.41,182.14,88.59,181.28,88.59Zm-.29,0a52.53,52.53,0,0,0,5.7-.38,53.49,53.49,0,0,0,5.68-.71,52.78,52.78,0,0,0-5.71.38A49.75,49.75,0,0,0,181,88.54Z" style="fill:#72C03A"></path></g></svg>
