<?xml version="1.0" encoding="utf-8"?>
<!-- Generator: Adobe Illustrator 25.3.1, SVG Export Plug-In . SVG Version: 6.00 Build 0)  -->
<svg version="1.1" id="Layer_1" xmlns="http://www.w3.org/2000/svg" xmlns:xlink="http://www.w3.org/1999/xlink" x="0px" y="0px"
	 viewBox="0 0 500 500" style="enable-background:new 0 0 500 500;" xml:space="preserve">
<style type="text/css">
	.st0{fill:#83B83F;}
	.st1{opacity:0.7;fill:#FFFFFF;enable-background:new    ;}
	.st2{fill:#263238;}
	.st3{fill:none;stroke:#263238;stroke-width:2;stroke-miterlimit:10;}
	.st4{fill:none;stroke:#83B83F;stroke-linecap:round;stroke-linejoin:round;}
	.st5{fill:#263238;stroke:#263238;stroke-linecap:round;stroke-linejoin:round;}
	.st6{fill:#FFFFFF;stroke:#263238;stroke-linecap:round;stroke-linejoin:round;}
	.st7{fill:#83B83F;stroke:#263238;stroke-linecap:round;stroke-linejoin:round;}
	.st8{fill:#474747;stroke:#263238;stroke-linecap:round;stroke-linejoin:round;}
	.st9{fill:#B5B5B5;stroke:#263238;stroke-linecap:round;stroke-linejoin:round;}
	.st10{fill:none;stroke:#263238;stroke-width:2;stroke-linecap:round;stroke-linejoin:round;}
	.st11{fill:#5C5C5C;stroke:#263238;stroke-linecap:round;stroke-linejoin:round;}
	.st12{fill:#B5B5B5;stroke:#263238;stroke-width:0.9985;stroke-linecap:round;stroke-linejoin:round;stroke-miterlimit:3.994;}
	.st13{fill:#FFFFFF;stroke:#263238;stroke-width:0.75;stroke-linecap:round;stroke-linejoin:round;}
	.st14{fill:none;stroke:#263238;stroke-linecap:round;stroke-linejoin:round;}
	.st15{fill:#7D7D7D;stroke:#263238;stroke-linecap:round;stroke-linejoin:round;}
	.st16{display:none;}
	.st17{display:inline;fill:#263238;}
	.st18{fill:url(#SVGID_1_);}
	.st19{fill:url(#SVGID_2_);}
	.st20{fill:url(#SVGID_3_);}
	.st21{fill:url(#SVGID_4_);}
	.st22{fill:url(#SVGID_5_);}
	.st23{fill:url(#SVGID_6_);}
	.st24{fill:url(#SVGID_7_);}
	.st25{fill:url(#SVGID_8_);}
	.st26{fill:url(#SVGID_9_);}
	.st27{fill:url(#SVGID_10_);}
	.st28{fill:url(#SVGID_11_);}
	.st29{fill:url(#SVGID_12_);}
	.st30{fill:url(#SVGID_13_);}
	.st31{fill:url(#SVGID_14_);}
	.st32{fill:url(#SVGID_15_);}
	.st33{fill:url(#SVGID_16_);}
	.st34{fill:url(#SVGID_17_);}
	.st35{fill:url(#SVGID_18_);}
	.st36{fill:url(#SVGID_19_);}
	.st37{fill:url(#SVGID_20_);}
	.st38{fill:url(#SVGID_21_);}
	.st39{fill:url(#SVGID_22_);}
</style>
<g id="freepik--background-simple--inject-29">
	<path class="st0" d="M204.2,463.6c0,0,80.3,12.2,148.6-44.3S445.9,271.5,468,197.9s-7.1-138.6-69-159s-93.6,33-173.4,50.4
		S122.6,99.5,63,156.6S7.4,320.9,71.7,388.6S204.2,463.6,204.2,463.6z"/>
	<path class="st1" d="M204.2,463.6c0,0,80.3,12.2,148.6-44.3S445.9,271.5,468,197.9s-7.1-138.6-69-159s-93.6,33-173.4,50.4
		S122.6,99.5,63,156.6S7.4,320.9,71.7,388.6S204.2,463.6,204.2,463.6z"/>
</g>
<g id="freepik--Window--inject-29">
	<rect x="25.2" y="148.7" class="st2" width="402.9" height="27.3"/>
	<line class="st3" x1="54.8" y1="13.2" x2="54.8" y2="156.5"/>
	<line class="st3" x1="112.1" y1="13.2" x2="112.1" y2="156.5"/>
	<line class="st3" x1="169.4" y1="13.2" x2="169.4" y2="156.5"/>
	<line class="st3" x1="226.7" y1="13.2" x2="226.7" y2="156.5"/>
	<line class="st3" x1="283.9" y1="13.2" x2="283.9" y2="156.5"/>
	<line class="st3" x1="341.2" y1="13.2" x2="341.2" y2="156.5"/>
	<line class="st3" x1="398.5" y1="13.2" x2="398.5" y2="156.5"/>
	<line class="st3" x1="26.2" y1="50" x2="427.1" y2="50"/>
	<line class="st3" x1="26.2" y1="104.6" x2="427.1" y2="104.6"/>
	<rect x="386.6" y="12.5" class="st2" width="102" height="163.4"/>
</g>
<g id="freepik--Plants--inject-29">
	<line class="st4" x1="54.7" y1="451.1" x2="54.7" y2="421.7"/>
	<polygon class="st5" points="48.7,451.1 60.5,451.1 57.6,483.5 51.7,483.5 	"/>
	<path class="st0" d="M54.5,448.5c-1-1.3-2.1-2.5-3.5-3.3c-1.7-0.7-3.5-1.1-5.3-1.1C45.6,444.1,47.4,450.5,54.5,448.5z"/>
	<path class="st0" d="M54.7,448.5c1-1.3,2.1-2.5,3.5-3.3c1.7-0.7,3.5-1.1,5.3-1.1C63.5,444.1,61.8,450.5,54.7,448.5z"/>
	<path class="st0" d="M54.5,440.5c-0.9-1.3-2.1-2.5-3.5-3.3c-1.7-0.7-3.5-1.1-5.3-1.1C45.6,436.1,47.4,442.5,54.5,440.5z"/>
	<path class="st0" d="M54.7,440.5c0.9-1.3,2.1-2.5,3.5-3.3c1.7-0.7,3.5-1.1,5.3-1.1C63.5,436.1,61.8,442.5,54.7,440.5z"/>
	<path class="st0" d="M54.5,432.6c-0.9-1.3-2.1-2.4-3.5-3.3c-1.7-0.7-3.5-1.1-5.3-1.1C45.6,428.2,47.4,434.6,54.5,432.6z"/>
	<path class="st0" d="M54.7,432.6c0.9-1.3,2.1-2.4,3.5-3.3c1.7-0.7,3.5-1.1,5.3-1.1C63.5,428.2,61.8,434.6,54.7,432.6z"/>
	<path class="st0" d="M54.5,424.6c-1-1.3-2.1-2.5-3.5-3.3c-1.7-0.7-3.5-1.1-5.3-1.1C45.6,420.2,47.4,426.6,54.5,424.6z"/>
	<path class="st0" d="M54.7,424.6c1-1.3,2.1-2.5,3.5-3.3c1.7-0.7,3.5-1.1,5.3-1.1C63.5,420.2,61.8,426.6,54.7,424.6z"/>
	<path class="st0" d="M54.7,421.7c-1-1.4-1.6-3-1.9-4.7c0.1-1.8,0.6-3.6,1.4-5.2C54.2,411.8,59.6,416.3,54.7,421.7z"/>
	<line class="st4" x1="450.2" y1="451.1" x2="450.2" y2="421.7"/>
	<polygon class="st5" points="444.3,451.1 456.1,451.1 453.1,483.5 447.2,483.5 	"/>
	<path class="st0" d="M450,448.5c-1-1.3-2.2-2.5-3.5-3.3c-1.7-0.7-3.5-1.1-5.3-1.1C441.2,444.1,443,450.5,450,448.5z"/>
	<path class="st0" d="M450.2,448.5c1-1.3,2.2-2.5,3.5-3.3c1.7-0.7,3.5-1.1,5.3-1.1C459.1,444.1,457.3,450.5,450.2,448.5z"/>
	<path class="st0" d="M450,440.5c-1-1.3-2.2-2.5-3.5-3.3c-1.7-0.7-3.5-1.1-5.3-1.1C441.2,436.1,443,442.5,450,440.5z"/>
	<path class="st0" d="M450.2,440.5c1-1.3,2.2-2.5,3.5-3.3c1.7-0.7,3.5-1.1,5.3-1.1C459.1,436.1,457.3,442.5,450.2,440.5z"/>
	<path class="st0" d="M450,432.6c-1-1.3-2.2-2.4-3.5-3.3c-1.7-0.7-3.5-1.1-5.3-1.1C441.2,428.2,443,434.6,450,432.6z"/>
	<path class="st0" d="M450.2,432.6c1-1.3,2.2-2.4,3.5-3.3c1.7-0.7,3.5-1.1,5.3-1.1C459.1,428.2,457.3,434.6,450.2,432.6z"/>
	<path class="st0" d="M450,424.6c-1-1.3-2.2-2.5-3.5-3.3c-1.7-0.7-3.5-1.1-5.3-1.1C441.2,420.2,443,426.6,450,424.6z"/>
	<path class="st0" d="M450.2,424.6c1-1.3,2.2-2.5,3.5-3.3c1.7-0.7,3.5-1.1,5.3-1.1C459.1,420.2,457.3,426.6,450.2,424.6z"/>
	<path class="st0" d="M450.2,421.7c-1-1.4-1.6-3-1.9-4.7c0.1-1.8,0.6-3.6,1.4-5.2C449.8,411.8,455.2,416.3,450.2,421.7z"/>
	<line class="st4" x1="399.8" y1="141.7" x2="399.8" y2="112.2"/>
	<polygon class="st6" points="393.9,141.6 405.7,141.6 402.7,174 396.8,174 	"/>
	<path class="st0" d="M399.6,139c-1-1.3-2.2-2.5-3.5-3.3c-1.7-0.7-3.5-1.1-5.3-1.1C390.8,134.6,392.5,141,399.6,139z"/>
	<path class="st0" d="M399.8,139c1-1.3,2.2-2.5,3.5-3.3c1.7-0.7,3.5-1.1,5.3-1.1C408.7,134.6,406.9,141,399.8,139z"/>
	<path class="st0" d="M399.6,131.1c-1-1.3-2.2-2.5-3.5-3.3c-1.7-0.7-3.5-1.1-5.3-1.1C390.8,126.6,392.5,133,399.6,131.1z"/>
	<path class="st0" d="M399.8,131.1c1-1.3,2.2-2.5,3.5-3.3c1.7-0.7,3.5-1.1,5.3-1.1C408.7,126.6,406.9,133,399.8,131.1z"/>
	<path class="st0" d="M399.6,123.1c-1-1.3-2.2-2.5-3.5-3.3c-1.7-0.7-3.5-1.1-5.3-1.1C390.8,118.7,392.5,125.1,399.6,123.1z"/>
	<path class="st0" d="M399.8,123.1c1-1.3,2.2-2.5,3.5-3.3c1.7-0.7,3.5-1.1,5.3-1.1C408.7,118.7,406.9,125.1,399.8,123.1z"/>
	<path class="st0" d="M399.6,115.1c-1-1.3-2.2-2.5-3.5-3.3c-1.7-0.7-3.5-1.1-5.3-1.1C390.8,110.7,392.5,117.1,399.6,115.1z"/>
	<path class="st0" d="M399.8,115.1c1-1.3,2.2-2.5,3.5-3.3c1.7-0.7,3.5-1.1,5.3-1.1C408.7,110.7,406.9,117.1,399.8,115.1z"/>
	<path class="st0" d="M399.8,112.2c-1-1.4-1.6-3-1.9-4.7c0.1-1.8,0.6-3.6,1.4-5.2C399.4,102.4,404.8,106.8,399.8,112.2z"/>
</g>
<g id="freepik--Pictures--inject-29">
	<rect x="397.1" y="18.8" class="st7" width="34.9" height="47"/>
	<rect x="402.2" y="25.6" class="st6" width="24.8" height="33.4"/>
	<rect x="445.6" y="37.1" class="st7" width="28.4" height="38.3"/>
	<rect x="449.7" y="42.7" class="st6" width="20.1" height="27.2"/>
	<rect x="419.8" y="79.3" class="st7" width="24.3" height="32.7"/>
	<rect x="423.4" y="84" class="st6" width="17.2" height="23.2"/>
</g>
<g id="freepik--character-4--inject-29">
	<path class="st6" d="M218.8,98.8h-31.6c-0.7,0-1.3,0.6-1.3,1.3l0,0c0,0.7,0.6,1.3,1.3,1.3H220v-1.3C220,99.4,219.5,98.8,218.8,98.8
		z"/>
	<path class="st5" d="M165.2,66.4h40.2c0.8,0,1.5,0.7,1.5,1.5v26.8c0,0.8-0.7,1.5-1.5,1.5h-40.2c-0.8,0-1.5-0.7-1.5-1.5V67.8
		C163.7,67,164.4,66.4,165.2,66.4z"/>
	<path class="st8" d="M170.6,74.3h27.7c0.8,0,1.5,0.7,1.5,1.5v18.9c0,0.8-0.7,1.5-1.5,1.5h-27.7c-0.8,0-1.5-0.7-1.5-1.5V75.8
		C169.1,75,169.8,74.3,170.6,74.3z"/>
	<path class="st6" d="M182.8,87.9h3c0.8,0,1.5,0.7,1.5,1.5v12.1c0,0.8-0.7,1.5-1.5,1.5h-3c-0.8,0-1.5-0.7-1.5-1.5V89.4
		C181.3,88.6,182,87.9,182.8,87.9z"/>
	<path class="st9" d="M247.7,103.6L259,61.4c0.8-3,3.7-4.9,6.8-4.6l16.7,0.6c3.4,0.4,5.9,3.5,5.5,6.9c0,0,0,0,0,0l-4.9,39.4
		L247.7,103.6z"/>
	<path class="st7" d="M253.2,73.6h-10.7L225,81.7l0.9,7.4l14.4-2.6l0.3,17.9H263l4-11l5,10c0.1,0.3,0.5,0.4,0.7,0.3
		c0.1,0,0.1-0.1,0.1-0.1L290,86.2l-2.4-2.2l-12.7,6.7l-6.2-14.3L253.2,73.6z"/>
	<path class="st7" d="M248.7,73.6c0,0-4.1,9.1-4.1,14.9s3.6,13.1,3.6,13.1l6.2,1.2c3-4,5-8.6,5.8-13.6c0.6-4.7,0.8-9.4,0.5-14.1
		C260.8,75.2,256.5,73.5,248.7,73.6z"/>
	<path class="st6" d="M251.1,75c-1.1,4.6-1.9,9.3-2.2,14.1c-0.4,6.7-0.7,15.3-0.7,15.3h5.5c0,0,2.7-19.9,3.8-24.6
		S256.5,72.1,251.1,75z"/>
	<path class="st5" d="M248,56.9c0,0-3.7-0.7-4.1-3.8s4.1-6.6,10-8s12.4,4.2,13.2,9.3s2.8,11.4,1.6,14s-6.8,3.5-12.8,4.3
		s-9.1-2.2-9.3-4.3S248,56.9,248,56.9z"/>
	<path class="st6" d="M253.2,72.8c0,0-1.7,0-2.2,0.9s-4,7-4,7l6.4-0.9l7.1,2.6c0,0,0.2-6.7-0.5-8.2S253.2,72.8,253.2,72.8z"/>
	<path class="st6" d="M252.7,69.3c0,0-0.4,7.7-0.4,9.4c0,1.1,0.9,2,2.1,1.9c0.7,0,1.4-0.4,1.7-1.1c1.2-1.9,2.2-10.3,2.2-10.3H252.7z
		"/>
	<polygon class="st5" points="238.1,55.9 243.6,68.5 248.9,66.4 243.6,54.6 	"/>
	<path class="st6" d="M253.1,51.5c0.4,0.4-2.7,3.7-5.1,4.4c-1.2,0.3,0,5.7-0.4,7.9c-0.4,2.4,4.7,7.6,6.7,7.3c4.4-0.6,6.1-2,6.7-4
		c0.2-0.9,0.4-1.8,0.5-2.7c0,0,2.2,1.5,2.6-0.7s-0.9-2.9-0.9-2.9S253.5,59,253.1,51.5z"/>
	<polygon class="st6" points="287.5,83.9 289.8,78.1 293.6,76.4 293.7,76.4 293.7,77.9 291.5,79.3 295.5,79.3 297.7,76.9 
		298.5,77.4 296.5,82.9 290,86.2 	"/>
	<path class="st6" d="M240.3,68.8l-2.6-7.2l3.8-4.1l1,0.7c0,0-0.9,3.6-0.9,4.1c0.8,1.9,1.6,3.7,2.6,5.5l-6,7.4l-2.6-2.8L240.3,68.8z
		"/>
	<path class="st7" d="M235.7,72.4l-12.8,9c-1.2,0.8-1.9,2.3-1.8,3.7l0.1,1c0.2,2,1.8,3.7,3.8,3.8l0,0c1.5,0.1,3-0.6,3.9-1.9
		l9.4-12.9L235.7,72.4z"/>
	<path class="st6" d="M159.1,101.2h173.3l0,0v70l0,0H159.1c-0.8,0-1.5-0.7-1.5-1.5l0,0v-67C157.6,101.9,158.2,101.2,159.1,101.2
		C159,101.2,159,101.2,159.1,101.2z"/>
	<polygon class="st5" points="276.5,94.1 294.2,94.1 291.6,101.3 274,101.3 	"/>
	<polygon class="st6" points="307.2,94.1 277,94.1 279.5,101.3 309.7,101.3 	"/>
	<path class="st2" d="M285.9,96.6l0.2,0.5c0.3,0.7,0.1,1-0.6,1h-0.3l0.6,1.6h-0.7l-1.6-4.2h1C285.2,95.6,285.7,96,285.9,96.6z
		 M284.4,96.2l0.6,1.4h0.3c0.2,0,0.3-0.1,0.2-0.4l-0.2-0.6c-0.1-0.3-0.3-0.4-0.5-0.4H284.4z"/>
	<path class="st2" d="M288.8,99.7c-0.1-0.2-0.2-0.3-0.3-0.5l-0.3-0.7c-0.1-0.4-0.3-0.5-0.6-0.5h-0.2l0.7,1.7h-0.6l-1.7-4.2h1
		c0.6,0,1.2,0.4,1.4,1l0.1,0.3c0.2,0.4,0.1,0.7-0.1,0.8c0.4,0.2,0.7,0.5,0.8,0.9l0.3,0.6c0.1,0.2,0.2,0.4,0.3,0.5L288.8,99.7z
		 M286.7,96.2l0.5,1.3h0.3c0.2,0,0.4-0.1,0.2-0.4l-0.2-0.4c-0.1-0.3-0.3-0.4-0.5-0.4L286.7,96.2z"/>
	<path class="st2" d="M289.5,97.3h0.9l0.2,0.6h-0.9l0.5,1.2h1.1l0.2,0.6h-1.8l-1.7-4.2h1.8l0.2,0.6h-1.1L289.5,97.3z"/>
	<path class="st2" d="M291.2,95.5c0.6,0,1.2,0.4,1.4,1v0.1H292l-0.1-0.2c-0.1-0.3-0.3-0.4-0.5-0.4s-0.3,0.1-0.2,0.4
		c0.3,0.9,1.7,1,2.2,2.2c0.3,0.7,0.1,1.1-0.6,1.1c-0.6,0-1.2-0.4-1.4-1.1l-0.1-0.2h0.6l0.1,0.3c0.1,0.3,0.3,0.4,0.5,0.4
		s0.3-0.1,0.2-0.4c-0.3-0.8-1.7-1-2.1-2.2C290.4,95.9,290.6,95.5,291.2,95.5z"/>
	<path class="st2" d="M292.6,95.6h0.6l1.7,4.2h-0.6L292.6,95.6z"/>
	<path class="st2" d="M293.7,95.6h1c0.6,0,1.2,0.4,1.4,1l0.8,2.1c0.3,0.7,0.1,1-0.6,1h-1L293.7,95.6z M294.6,96.2l1.2,3h0.4
		c0.2,0,0.3-0.1,0.2-0.4l-0.9-2.2c-0.1-0.3-0.3-0.4-0.5-0.4L294.6,96.2z"/>
	<path class="st2" d="M297.5,97.3h0.9l0.2,0.6h-0.9l0.5,1.2h1.1l0.2,0.6h-1.8l-1.7-4.2h1.8l0.2,0.6H297L297.5,97.3z"/>
	<path class="st2" d="M299.4,96.7l1.2,3H300l-1.6-4.2h0.8l1.7,2.5l-1-2.5h0.6l1.6,4.2h-0.7L299.4,96.7z"/>
	<path class="st2" d="M300.6,95.6h2l0.2,0.6h-0.7l1.4,3.6H303l-1.4-3.6h-0.7L300.6,95.6z"/>
	<path class="st2" d="M156.1,101.2h179.2l0,0v3.5l0,0H156.1c-0.8,0-1.5-0.7-1.5-1.5l0,0v-0.6C154.7,101.9,155.3,101.2,156.1,101.2
		L156.1,101.2z"/>
</g>
<g id="freepik--characters-3--inject-29">
	<path class="st5" d="M318.2,275.6l26.6,6.5c1.1,0.3,1.6,1.4,1.3,2.5c0,0.1-0.1,0.2-0.2,0.4l-22.1,41.1l9.3,7.8l-9.9-2.1l-7.8-3.2
		l1.2-4.9l14.1-34.1c0.2-0.6-0.1-1.3-0.7-1.6c-0.1-0.1-0.3-0.1-0.4-0.1H300c0,0-6-5.6-0.2-13.2L318.2,275.6z"/>
	<polygon class="st2" points="309.4,326.3 309.4,299.4 305.6,299.4 305.6,295.8 315.3,295.8 315.3,299.4 311.5,299.4 311.5,325.9 
		329.9,330.7 329.9,332.1 327.9,332.1 311.5,329 311.5,332.1 309.4,332.1 309.4,329.3 294.4,332.1 292.4,332.1 292.4,330.7 	"/>
	<path class="st10" d="M319.9,296h-29.1l-2.8-4.6c-2.1-3.5-2.5-7.8-0.9-11.5l1.8-4.4"/>
	<path class="st11" d="M320.9,248.7l6,7.7l15.6,1.4c0,0,6.5-3,7.9-3s5.2,6.1,5.2,6.1h-13.9l-16.1,2.6l-7.4-4.9L320.9,248.7z"/>
	<path class="st7" d="M320.5,245.1l3.7,23c0.3,1.9,0.4,7.2-1.7,8.2c-0.4,0.2-0.9,0.2-1.3,0.2c-3,0-5.8-0.9-8.7-0.9h-10.9
		c-1.4,0-2.6-0.8-3.2-2.1l-0.2-0.5c-0.3-0.7-0.4-1.5-0.2-2.2c1.3-5.5,6.9-26.7,8.1-29c1.4-2.6,6.2-4.4,6.2-4.4L320.5,245.1z"/>
	<path class="st6" d="M324.7,236.9l-3.2,1.4l-2.3,5l-6.4-6.2l1.8-4.1c0,0-2.3-3.4-1.8-6.4s6.2-6.2,9.2-3.4S324.7,236.9,324.7,236.9z
		"/>
	<path class="st5" d="M325.9,223c0,0,2.1-0.5,1.9-2.3s-1.9,0.2-1.9-1.9s1.9-2.8,0.7-4s-4.9-1.9-5.9-0.2s-0.7,2.6-1.4,2.6
		s-2.6-1.6-4,0.5s-0.9,2.8-0.9,2.8s-5.4,2.1-5.4,5.6s5.5,6.9,5.5,6.9s3.6,0.3,5.2-1.3s2.1-4.4,2.6-5.6S325.9,223,325.9,223z"/>
	<path class="st6" d="M325.1,221.4l1.6,4.8v1.2l2.3,2.3 M328.9,229.8l-1.8,2.1l0.2,4.6l-4,0.3c-1.9,0.1-3.8-1-4.5-2.8l-1-2.4
		c-1-0.4-1.6-1.4-1.6-2.5c0-2-0.2-2.7,0.9-2.7c0.8,0,1.6,0.1,2.3,0.4l1.1-0.5l-0.2-1.8l1.6-1.2l0.2-1.8L328.9,229.8z"/>
	<polygon class="st7" points="313.3,234.5 322.7,243.7 320.9,248.7 311,237.5 	"/>
	<path class="st9" d="M328.1,295h-30.6c-1.3,0-2.4-1.1-2.4-2.4v-2.8c0-1.3,1.1-2.4,2.4-2.4h30.6c1.3,0,2.4,1.1,2.4,2.4v2.8
		C330.5,293.9,329.4,295,328.1,295z"/>
	<path class="st9" d="M294.6,283.9l-3.2,0.4c-0.9,0.1-1.7-0.5-1.8-1.4l-2.9-22c-0.1-0.9,0.5-1.7,1.4-1.8l3.2-0.4
		c0.9-0.1,1.7,0.5,1.8,1.4l2.9,22C296.1,283,295.5,283.8,294.6,283.9z"/>
	<path class="st7" d="M313.3,242.5l9.2,16.3l17.2-0.7c0,0,7.4-1.6,8.6-1.8s4.6,3.8,4.6,3.8h-12l-21.8,6.5l-13.5-16.5"/>
	<path class="st6" d="M339.7,260.3l-0.4-2.3h0.4c0,0,7.4-1.6,8.6-1.8s4.6,3.8,4.6,3.8h-12L339.7,260.3z"/>
	<path class="st11" d="M434.5,287c0,0,18.5,34.2,19.1,35.6c0.6,1.6,0.8,3.2,0.8,4.9c0,0-0.2,0.4-1.1,0.4s-9.5,3.8-11.9,3.8h-4.2
		l3.2-2.8l3.6-4c0,0,2,0.5,2-3.4s-22.6-34.2-23.4-36.5s3.8-3.8,5.3-3.6s5.7,0.9,5.7,0.9L434.5,287z"/>
	<path class="st6" d="M450.9,273.7l-31.7,9.1c-1.1,0.3-1.7,1.4-1.4,2.5c0,0.2,0.1,0.3,0.2,0.4l25,38.3l-10.1,9.1l7,0.9l5.5-2
		l3.1-2.6l-1.2-4.9l-14.1-34.1c-0.2-0.6,0.1-1.3,0.7-1.6c0.1-0.1,0.3-0.1,0.4-0.1h33.5c0,0,7.5-7.2,1.7-14.8L450.9,273.7z"/>
	<path class="st6" d="M439.3,236.9l3.2,1.4l2.3,5l6.4-6.2l-1.8-4.1c0,0,2.3-3.4,1.8-6.4s-6.2-6.2-9.2-3.4S439.3,236.9,439.3,236.9z"
		/>
	<path class="st6" d="M438.9,221.4l-1.6,4.8v1.2l-2.3,2.3 M435.1,229.8l1.8,2.1l-0.2,4.6l4,0.3c1.9,0.1,3.8-1,4.5-2.8l0.9-2.4
		c1-0.4,1.6-1.4,1.6-2.5c0-2,0.2-2.7-0.9-2.7c-0.8,0-1.5,0.1-2.3,0.4l-1.1-0.5l0.2-1.8l-1.6-1.2l-0.2-1.8L435.1,229.8z"/>
	<path class="st11" d="M444.7,248l-7.7,9.8l-22.2-0.5c0,0-6.6-2.8-7.7-2.3s-3.3,4.4-3.3,4.4l5.3-0.9c1.2,0.5,2.4,0.9,3.7,1
		c0.9,0,1.8-0.2,2.6-0.5l27,5.4l7.9-7.9L444.7,248z"/>
	<path class="st7" d="M443.7,245.7c0,0-1.3,12.3,0,14s6.6,3.6,6.8,4.2s0,8.5,0.4,9.1c1.2,1,2.5,1.8,4,2.3h13.4c0,0,2.1-1.7,2.1-3.2
		s-4.6-7-4.6-7s-2.2-16.7-4.3-21s-10.9-6.9-11.6-7.1S443.7,245.7,443.7,245.7z"/>
	<polygon class="st7" points="450.6,234.5 441.2,243.7 443,248.7 453,237.5 	"/>
	<path class="st7" d="M450.6,242.5l-9.1,16.3l-17.2-0.7c0,0-7.4-1.6-8.6-1.8s-4.6,3.8-4.6,3.8h12l21.8,6.5l13.5-16.5"/>
	<path class="st6" d="M424.2,260.3l0.4-2.3h-0.4c0,0-7.4-1.6-8.6-1.8s-4.6,3.8-4.6,3.8h12L424.2,260.3z"/>
	<path class="st5" d="M436,221.3c0,0,10.4,12.2,14.4,12.3c7.2,0.2,5.7-10.8,3.4-13.6C452.4,218.3,437.3,212.2,436,221.3z"/>
	<path class="st5" d="M446.9,226c0,0,1.1,5.1-0.6,8.7s-4.5,3.2-3.8,3.8s4.7,4.2,8.5,2.3s5.1-9.6,5.1-12.7"/>
	<path class="st2" d="M469.5,273.3l-18.7-0.2l-29,8.3c2.3,1.3,7.6,4.8,11.4,7.4c0.2-0.4,5.5,0.5,6,0.5l28.6-1.2
		C467.8,288,475.3,280.9,469.5,273.3z"/>
	<polygon class="st2" points="465.9,326.3 465.9,299.4 469.7,299.4 469.7,295.8 459.9,295.8 459.9,299.4 463.7,299.4 463.7,325.9 
		445.3,330.7 445.3,332.1 447.3,332.1 463.7,329 463.7,332.1 465.9,332.1 465.9,329.3 480.8,332.1 482.8,332.1 482.8,330.7 	"/>
	<path class="st10" d="M455.3,296h29.2l2.8-4.6c2.1-3.5,2.5-7.8,0.9-11.5l-1.8-4.4"/>
	<path class="st9" d="M447.1,287.4h30.6c1.3,0,2.4,1.1,2.4,2.4v2.8c0,1.3-1.1,2.4-2.4,2.4h-30.6c-1.3,0-2.4-1.1-2.4-2.4v-2.8
		C444.7,288.5,445.8,287.4,447.1,287.4z"/>
	<path class="st12" d="M482.7,259l3.2,0.4c0.9,0.1,1.5,0.9,1.4,1.8l-2.9,21.9c-0.1,0.9-0.9,1.5-1.8,1.4l-3.2-0.4
		c-0.9-0.1-1.5-0.9-1.4-1.8l2.9-21.9C481,259.5,481.8,258.9,482.7,259z"/>
	<polygon class="st13" points="374.6,261.3 371.4,244.1 369.7,244.1 372.9,261.3 366.6,261.3 366.6,262.5 373.1,262.5 374.8,262.5 	
		"/>
	<polygon class="st13" points="365.1,254.7 366.9,255 370,231.4 368.2,231 	"/>
	<polygon class="st13" points="369.7,232.6 371.4,235.3 368.8,253.9 366.9,255 	"/>
	<rect x="347.2" y="261.5" class="st13" width="15.2" height="0.9"/>
	<polygon class="st13" points="394.1,261.3 397.3,244.1 399,244.1 395.7,261.3 402.1,261.3 402.1,262.5 395.5,262.5 393.9,262.5 	
		"/>
	<polygon class="st13" points="403.5,254.7 401.7,255 398.7,231.4 400.5,231 	"/>
	<polygon class="st13" points="399,232.6 397.3,235.3 399.9,253.9 401.7,255 	"/>
	<rect x="406.2" y="261.5" class="st13" width="15.2" height="0.9"/>
	<rect x="340.6" y="266.2" class="st6" width="96.3" height="67.8"/>
	<rect x="335.6" y="287.6" class="st6" width="46.6" height="46.3"/>
	<rect x="396.4" y="287.6" class="st6" width="46.6" height="46.3"/>
	<rect x="338.7" y="262" class="st6" width="100" height="4.4"/>
</g>
<g id="freepik--characters-2--inject-29">
	<path class="st9" d="M156.8,258.8h19.7c2.2,0,4,1.8,4,4V280c0,2.2-1.8,4-4,4h-19.7c-2.2,0-4-1.8-4-4v-17.2
		C152.8,260.6,154.6,258.8,156.8,258.8z"/>
	<path class="st5" d="M169.3,222.6c0,0,4-2.9,7.2,0.4s0.9,5.4,0.7,8.3s5.4,4.5,4.2,8.5s-5.4,4.5-5.1,6.3s2.2,2-0.2,4
		s-8.3,1.8-11.2-2s1.1-6.9,2-10.5s-2-7.6-2.2-10.5S169.3,222.6,169.3,222.6z"/>
	<path class="st6" d="M178.5,270.8l-2.6-23.6c0,0-12.2-4.4-15.8-4.4c-0.9,0-11.9,4.4-11.9,4.4l-4.9,14.3l0.2,0.2
		c1.6,2.1,4.7,2.5,6.8,0.9c0.1,0,0.1-0.1,0.2-0.1l0.5-0.4l2.9,8.8l16.7-0.3l1.9,0.1L178.5,270.8z"/>
	<line class="st14" x1="150.7" y1="261.6" x2="151.2" y2="252.1"/>
	<line class="st14" x1="171.6" y1="269" x2="170.9" y2="253"/>
	<path class="st6" d="M161.3,238.9c0,0-3.6,0.9-4.5,2.5s-2.7,9.8-2.7,9.8l7.8-3.4l6.3,5.1c0,0,1.6-7.2,0.4-10.1
		S163.5,238,161.3,238.9z"/>
	<path class="st6" d="M160.4,237.1c0,0-0.9,14.3,0.7,13.4s5.8-13,5.8-13L160.4,237.1z"/>
	<path class="st6" d="M156.2,228.6c0,0-2.1-2-2.5,0.9s3,3.6,3,3.6L156.2,228.6z"/>
	<path class="st6" d="M169.7,228.6c0,0,2.1-2,2.5,0.9s-3,3.6-3,3.6L169.7,228.6z"/>
	<path class="st6" d="M170.4,228.3c0,5-3.3,11.3-7.3,11.3s-7.3-6.3-7.3-11.3s3.3-9.1,7.3-9.1S170.4,223.2,170.4,228.3z"/>
	<path class="st5" d="M168.5,222.1c-1,1.2-1.1,2.9-0.3,4.3c0.4,1,1.2,1.9,2.2,2.3c0-0.2,0-0.4,0-0.5
		C170.4,226.1,169.7,223.9,168.5,222.1z"/>
	<path class="st5" d="M168.4,222.1c-1.2-1.8-3.2-2.9-5.4-2.9c-4,0-7.3,4.1-7.3,9.1c4.2-1,8.2-2.9,11.8-5.5
		C167.9,222.6,168.2,222.3,168.4,222.1z"/>
	<path class="st6" d="M146.4,256.7c0,0-3.7-0.9-5.2,0.3c-1,1-1.8,2.3-2.1,3.7h5.8l2.5-0.9c0,0,0.3,1.5,2.2,0.3
		S146.4,256.7,146.4,256.7z"/>
	<polygon class="st2" points="163.2,327.8 163.2,300.9 167,300.9 167,295.4 157.2,295.4 157.2,300.9 161,300.9 161,327.4 
		142.6,332.2 142.6,333.6 144.6,333.6 161,330.5 161,333.6 163.2,333.6 163.2,330.8 178.2,333.6 180.2,333.6 180.2,332.2 	"/>
	<path class="st9" d="M146,288.9h30.6c1.3,0,2.4,1.1,2.4,2.4v2.8c0,1.3-1.1,2.4-2.4,2.4H146c-1.3,0-2.4-1.1-2.4-2.4v-2.8
		C143.6,290,144.7,288.9,146,288.9z"/>
	<path class="st5" d="M153.9,270.9c0,0-3.3,8.2-6,8.7c-12,1.9-15.5,7.1-15.5,7.1c-0.3,1.3-0.2,2.6,0.3,3.8
		c1,1.6,12.3,35.7,12.3,35.7l-6.3,7.6h2.5c0,0,5.1-0.9,6-2.5s2.2-2.8,2.5-4.1s0.9-1.6-0.3-2.8c-0.7-0.7-1.6-1.3-2.5-1.6l-3.3-31.4
		l12.1,33.6c0,0,4.8,7.6,5.2,8.7s4.2-0.5,2-4.6c-1.1-2.2-2.6-4.1-4.4-5.7l-5.4-33.1l18.9-1.3c1.8-0.7,2.9-2.5,2.8-4.4
		c0-3.5-4.4-13.9-4.4-13.9L153.9,270.9z"/>
	<path class="st6" d="M171.6,269l-14.1,8.6l-5.8,0.9l-3.1,2.5c0,0,6.8,0.9,8.6,0.2c1-0.3,2-0.8,2.8-1.5l15.7-5.5
		c0,0,3.1-2.8,2.8-4.3S171.6,268,171.6,269z"/>
	<path class="st6" d="M132.7,290.5c1,1.6,11.6,32.4,11.6,32.4l-2,7.8l-3.5,3h2.5c0,0,5.1-0.9,6-2.5s2.2-2.8,2.5-4.1s0.9-1.6-0.3-2.8
		c-0.7-0.7-1.6-1.3-2.5-1.6l-3.3-31.4l12.1,33.6c0,0,4.8,7.6,5.2,8.7s4.2-0.5,2-4.6c-1.1-2.2-2.6-4.1-4.4-5.7l-5.4-33.1l0.8,0
		c0,0-0.8-3.2-1.7-3.4c-14.3-4.1-19.9,0-19.9,0C132.1,288,132.2,289.3,132.7,290.5z"/>
	<path class="st6" d="M143.6,291.3c0,0-2.4-4.9-2.2-5.8"/>
	<path class="st5" d="M232.8,275.9l-24,7.1c-1.1,0.3-1.7,1.4-1.4,2.5c0,0.2,0.1,0.3,0.2,0.4l19.4,40.5l-8.1,7.6l8.7-1.9l7.8-3.2
		l-1.2-5l-14.1-34.1c-0.2-0.6,0.1-1.3,0.7-1.6c0.1-0.1,0.3-0.1,0.4-0.1H251c0,0,6-5.6,0.2-13.2L232.8,275.9z"/>
	<polygon class="st13" points="233,244.3 217.3,253.5 213.2,257.8 215.8,259.6 231.6,257.4 	"/>
	<path class="st13" d="M219.8,243.4c0,0-8.3,11.5-8.3,12.6s2,2.8,3.3,3.5s3.8-1.2,3.8-1.2l3.9-13.2L219.8,243.4z"/>
	<path class="st6" d="M230.5,245.3l-1.1,26.9c0,0.9,0.3,1.8,0.9,2.5l0,0c0.7,0.7,1.6,1.1,2.6,1.1h16.6c1.4,0,2.6-0.8,3.2-2.1
		l0.2-0.5c0.3-0.7,0.4-1.5,0.2-2.2c-1.3-5.5-6.9-26.7-8.1-29c-1.4-2.6-6.2-4.4-6.2-4.4L230.5,245.3z"/>
	<polygon class="st13" points="225.8,239 226,236.7 224.3,236.3 223.6,237.8 221,238.4 219.8,243.9 222.6,245.2 227,240.5 	"/>
	<path class="st13" d="M225.8,239l-3.6-0.3l-0.2,1l2,0.6c0,0-1.5,1.1-1.7,1.6"/>
	<path class="st6" d="M226.3,237.1l3.2,1.4l2.3,5l6.4-6.2l-1.8-4.1c0,0,2.3-3.4,1.8-6.4s-6.2-6.2-9.2-3.4S226.3,237.1,226.3,237.1z"
		/>
	<path class="st5" d="M225.6,222.9c0,0-1.4-1.8-1.4-3s2.8-2.7,4.3-2.7s7.6,0.4,9.8,2.3c2.2,2.2,3.2,5.4,2.5,8.5
		c-0.7,3-2.8,5.7-5,5.9s-3.6-2.3-3.9-3.2c-1.1-2.2-2.5-4.4-3.9-6.4C227.3,223.7,226.5,223.2,225.6,222.9z"/>
	<path class="st6" d="M225.9,221.7l-1.6,4.8v1.2L222,230l1.8,2.1l-0.2,4.6l4,0.3c1.9,0.1,3.8-1,4.5-2.8l0.9-2.4
		c1-0.4,1.7-1.4,1.6-2.5c0-2,0.2-2.7-0.9-2.7c-0.8,0-1.5,0.1-2.3,0.4l-1.1-0.5l0.2-1.8l-1.6-1.2l-0.2-1.8L225.9,221.7z"/>
	<polygon class="st6" points="237.6,234.8 228.3,243.9 230.1,248.9 240.1,237.7 	"/>
	<path class="st6" d="M237.6,242.7l-7.6,15.2l-18.8,0.4c0,0-7.4-1.6-8.6-1.8s-4.6,3.8-4.6,3.8h12l23.4,5.4l12-15.4"/>
	<path class="st6" d="M211.3,260.6l0.4-2.3h-0.4c0,0-7.4-1.6-8.6-1.8s-4.6,3.8-4.6,3.8h12L211.3,260.6z"/>
	<polygon class="st2" points="241.6,326.5 241.6,299.6 245.4,299.6 245.4,296.1 235.7,296.1 235.7,299.6 239.4,299.6 239.4,326.2 
		221.1,331 221.1,332.4 223.1,332.4 239.4,329.3 239.4,332.4 241.6,332.4 241.6,329.5 256.6,332.4 258.6,332.4 258.6,331 	"/>
	<path class="st10" d="M231.1,296.2h29.2l2.8-4.6c2.1-3.5,2.5-7.8,0.9-11.5l-1.8-4.4"/>
	<path class="st9" d="M222.9,287.7h30.6c1.3,0,2.4,1.1,2.4,2.4v2.8c0,1.3-1.1,2.4-2.4,2.4h-30.6c-1.3,0-2.4-1.1-2.4-2.4v-2.8
		C220.5,288.7,221.6,287.7,222.9,287.7z"/>
	<path class="st9" d="M259.7,259l3.2,0.4c0.9,0.1,1.5,0.9,1.4,1.8l-2.9,22c-0.1,0.9-0.9,1.5-1.8,1.4l-3.2-0.4
		c-0.9-0.1-1.5-0.9-1.4-1.8l2.9-22C258,259.5,258.8,258.9,259.7,259z"/>
	<polygon class="st13" points="194.9,260.3 186.1,260.3 181.4,246.7 190.1,246.7 	"/>
	<rect x="186.1" y="259" class="st13" width="22.1" height="1.3"/>
	<rect x="198.4" y="259" class="st13" width="9.9" height="1.3"/>
	<rect x="121.8" y="246.6" class="st13" width="23.1" height="12.3"/>
	<rect x="121.8" y="259.1" class="st13" width="36.5" height="1.2"/>
	<rect x="144.7" y="259.1" class="st13" width="13.6" height="1.2"/>
	<polygon class="st6" points="216.4,334 218.6,334 219.7,267.7 215.3,267.7 	"/>
	<polygon class="st6" points="112.9,334 115.1,334 116.2,267.7 111.8,267.7 	"/>
	<rect x="108.8" y="261.9" class="st6" width="113.8" height="7.4"/>
	<rect x="106.6" y="260.1" class="st5" width="118" height="2.7"/>
	<polygon class="st6" points="85.3,210.5 73.2,215.5 79.3,249.2 103.8,249.2 105.8,217.1 94.8,210.6 	"/>
	<polygon class="st7" points="88,217.5 90.2,221.6 87.4,238.4 90.6,244.7 96.2,237.1 92.1,221.6 93.7,217.8 90.6,213.1 	"/>
	<path class="st6" d="M87.6,208.2c0,0-1.8,0.2-2.2,1.2s0.2,10.7,0.2,10.7l5.2-3l5,3c0,0-0.6-6.5-2-9.5S87.6,208.2,87.6,208.2z"/>
	<path class="st6" d="M86.8,205.9c0,0-0.2,2.5-0.2,4.1s3.3,8.1,4.3,7.6s3.5-4.6,3.5-4.6l1.3-1.5l2.5-2.3c0,0-5.9-6.7-7.6-7.1
		S86.8,205.9,86.8,205.9z"/>
	<path class="st5" d="M98,195.3c0,0,1.4-1.8,1.4-3s-2.8-2.7-4.3-2.7s-7.6,0.4-9.8,2.3c-2.2,2.2-3.2,5.4-2.5,8.5c0.7,3,2.8,5.7,5,5.9
		s3.6-2.3,3.9-3.2c1.1-2.2,2.4-4.4,3.9-6.4C96.3,196.1,97.1,195.6,98,195.3z"/>
	<path class="st6" d="M97.7,194.1l1.6,4.8v1.2l2.3,2.3l-1.8,2.1l0.2,4.6l-4,0.3c-1.9,0.1-3.8-1-4.5-2.8l-1-2.4
		c-1-0.4-1.6-1.4-1.5-2.5c0-1.9-0.2-2.7,0.9-2.7c0.8,0,1.6,0.1,2.3,0.4l1.1-0.5l-0.2-1.8l1.6-1.2l0.2-1.8H97.7z"/>
	<polygon class="st5" points="79.3,249.2 74.7,324.9 79.5,324.9 90.9,267.2 93.2,267.2 103.6,324.9 108.4,324.6 103.8,249.2 	"/>
	<path class="st6" d="M73.2,215.5l-5.4,19L55.1,225l-2.5,3.4l16.4,16l8-8.3C77,236.1,74.3,220.5,73.2,215.5z"/>
	<path class="st6" d="M104,215.5l-10.7,19.7l-18.4,9l0.9,3.1l24.3-4.8l7.7-12.6C107.8,230,111,216.5,104,215.5z"/>
	<polygon class="st6" points="55.1,225 53.6,221 49.6,219.2 48,219.8 49.9,221 46.2,219.8 44,217.6 42.5,217.9 45.3,224.1 
		52.7,228.4 	"/>
	<polygon class="st6" points="74.9,244.2 70,242.7 66.2,245 65.9,246.6 67.9,245.8 64.9,248.2 61.9,248.8 61.3,250.2 68,251.3 
		75.6,247.5 	"/>
	<polygon class="st5" points="74.7,324.9 71.3,329.6 66.5,334 79.5,334 79.5,324.9 	"/>
	<polygon class="st5" points="108.4,324.6 111.7,329.6 116.6,334 103.6,334 103.6,324.9 	"/>
	<rect x="38.2" y="190.9" class="st5" width="4.5" height="86.9"/>
	<rect x="41.6" y="190.9" class="st6" width="4.5" height="86.9"/>
	<rect x="35.5" y="277.8" class="st5" width="12.6" height="3.4"/>
	<polygon class="st5" points="38.2,239.7 18.4,333.4 22.2,333.4 40.5,245 	"/>
	<polygon class="st5" points="41.8,279.5 52.3,332.6 56.1,332.6 45.4,279.7 	"/>
</g>
<polygon class="st6" points="143.8,388 139.2,390.7 139.2,413.4 155.1,413.4 155.1,390.3 149.9,388.2 "/>
<path class="st7" d="M142.6,389v24.7h-18.3l5.1-18.8C129.4,394.9,141.5,388.7,142.6,389z"/>
<line class="st14" x1="133.8" y1="413.5" x2="133.8" y2="402.6"/>
<path class="st7" d="M152.2,389v24.7h18.3l-5.1-18.8C165.4,394.9,153.2,388.7,152.2,389z"/>
<line class="st14" x1="161" y1="413.5" x2="161" y2="402.6"/>
<path class="st6" d="M145,385.6c0,0-2.1,0.3-2.7,1.6s-2.5,12.4-2.5,12.4l5.1-2.5l2.4,1.6l2.9-1.9l4.9,4.3c0,0-1.2-12.7-3.6-15.2
	S145,385.6,145,385.6z"/>
<path class="st6" d="M144.4,385.1c0.1,3.3,0.3,6.6,0.7,9.9c0.5,3.2,2.1,4.1,3.1,3.2s1.3-3.5,1.3-3.5l1.3-9.5L144.4,385.1z"/>
<circle class="st5" cx="147.8" cy="365.3" r="6.4"/>
<path class="st6" d="M140.2,374.7c0,0-2.4-2.3-2.8,1.1s3.3,4,3.3,4L140.2,374.7z"/>
<path class="st6" d="M155.3,374.7c0,0,2.4-2.3,2.8,1.1s-3.3,4-3.3,4L155.3,374.7z"/>
<path class="st6" d="M156,374.2c0,5.6-3.6,12.6-8.1,12.6s-8.1-7-8.1-12.6s3.6-10.2,8.1-10.2S156,368.6,156,374.2z"/>
<path class="st5" d="M153.9,367.4c-1.1,1.4-1.2,3.3-0.4,4.8c0.4,1.2,1.3,2.1,2.5,2.6c0-0.2,0-0.4,0-0.6
	C156,371.8,155.3,369.4,153.9,367.4z"/>
<path class="st5" d="M153.9,367.4c-1.4-2-3.6-3.2-6-3.3c-4.5,0-8.1,4.5-8.1,10.2c4.8-1.1,9.2-3.2,13.1-6.1L153.9,367.4z"/>
<rect x="84.1" y="385.1" class="st5" width="34.2" height="23.6"/>
<rect x="88.4" y="391.4" class="st8" width="24.3" height="17.3"/>
<rect x="98.1" y="402.2" class="st9" width="4.7" height="11.9"/>
<rect x="75.1" y="415.3" class="st7" width="129.9" height="68.2"/>
<rect x="164" y="406.1" class="st6" width="34.9" height="8.5"/>
<rect x="73.4" y="413.6" class="st5" width="134.6" height="3.3"/>
<g id="freepik--Couch--inject-29">
	<path class="st15" d="M255.8,408.8h128c1.8,0,3.2,1.5,3.2,3.2v71.5l0,0H252.5l0,0V412C252.5,410.2,254,408.8,255.8,408.8z"/>
	<path class="st15" d="M255.8,445.9h128c1.8,0,3.3,1.5,3.3,3.3c0,0,0,0,0,0v34.3l0,0H252.5l0,0v-34.3
		C252.5,447.4,254,445.9,255.8,445.9C255.8,445.9,255.8,445.9,255.8,445.9z"/>
	<line class="st14" x1="252.3" y1="455.6" x2="387" y2="455.6"/>
	<path class="st15" d="M245.5,437h15.3c1.8,0,3.3,1.5,3.3,3.3c0,0,0,0,0,0v43.3l0,0h-21.9l0,0v-43.3
		C242.3,438.4,243.7,437,245.5,437z"/>
	<path class="st15" d="M379.3,437h15.3c1.8,0,3.2,1.5,3.2,3.2v43.3l0,0h-21.8l0,0v-43.3C376.1,438.4,377.6,437,379.3,437z"/>
	<path class="st15" d="M412.9,411.8c0,0-4.7,3.3-4.7,17V458h10.3v-47.4L412.9,411.8z"/>
	<path class="st15" d="M416.2,408.8h11.1c1.8,0,3.3,1.5,3.3,3.3c0,0,0,0,0,0v71.4l0,0h-17.6l0,0V412
		C413,410.2,414.4,408.8,416.2,408.8z"/>
	<path class="st15" d="M368.8,437h58.5c1.8,0,3.3,1.5,3.3,3.3c0,0,0,0,0,0v43.3l0,0h-65l0,0v-43.3C365.6,438.4,367,437,368.8,437z"
		/>
</g>
<g class="st16">
	<path class="st17" d="M191.5,375.9l-4-13.5h3.3l2.4,9.2l2.4-9.2h3l-4,13.5v6.7h-3.2L191.5,375.9z"/>
	<path class="st17" d="M199.2,367.2c0-3.2,1.7-5.1,4.8-5.1s4.8,1.9,4.8,5.1v10.5c0,3.2-1.7,5.1-4.8,5.1s-4.8-1.9-4.8-5.1V367.2z
		 M202.4,377.9c0,1.5,0.6,2,1.6,2s1.6-0.5,1.6-2V367c0-1.4-0.6-2-1.6-2s-1.6,0.5-1.6,2V377.9z"/>
	<path class="st17" d="M214,362.3V378c0,1.5,0.6,2,1.6,2s1.6-0.5,1.6-2v-15.7h3v15.4c0,3.2-1.6,5.1-4.8,5.1s-4.7-1.9-4.7-5.1v-15.4
		H214z"/>
	<path class="st17" d="M229.1,382.6c-0.3-0.8-0.4-1.6-0.3-2.5v-3.2c0-1.9-0.6-2.6-2.1-2.6h-1.1v8.2h-3.2v-20.3h4.8
		c3.3,0,4.7,1.5,4.7,4.6v1.6c0,2.1-0.7,3.4-2.1,4.1c1.6,0.7,2.1,2.2,2.1,4.3v3.1c-0.1,0.8,0.1,1.7,0.4,2.5L229.1,382.6z
		 M225.7,365.2v6.2h1.2c1.2,0,1.9-0.5,1.9-2.1v-2c0-1.4-0.5-2.1-1.6-2.1H225.7z"/>
	<path class="st17" d="M249.9,375.1v2.7c0,3.2-1.6,5.1-4.8,5.1s-4.7-1.9-4.7-5.1v-10.5c0-3.2,1.6-5.1,4.7-5.1s4.8,1.9,4.8,5.1v2h-3
		V367c0-1.4-0.6-2-1.6-2s-1.6,0.5-1.6,2v11c0,1.5,0.6,2,1.6,2s1.6-0.5,1.6-2v-2.9L249.9,375.1z"/>
	<path class="st17" d="M251.6,367.2c0-3.2,1.7-5.1,4.8-5.1s4.8,1.9,4.8,5.1v10.5c0,3.2-1.7,5.1-4.8,5.1s-4.8-1.9-4.8-5.1V367.2z
		 M254.7,378c0,1.5,0.6,2,1.7,2c1,0,1.6-0.5,1.6-2v-11c0-1.4-0.6-2-1.6-2s-1.6,0.5-1.6,2L254.7,378z"/>
	<path class="st17" d="M270,376.7l2.2-14.4h4.4v20.3h-3v-14.5l-2.2,14.5h-3l-2.4-14.3v14.3h-2.8v-20.3h4.4L270,376.7z"/>
	<path class="st17" d="M288.4,367.4v2.6c0,3.2-1.6,5-4.8,5h-1.5v7.6h-3.2v-20.3h4.7C286.8,362.4,288.4,364.1,288.4,367.4z
		 M282.1,365.2v6.9h1.5c1,0,1.6-0.5,1.6-1.9v-3c0-1.5-0.5-1.9-1.6-1.9L282.1,365.2z"/>
	<path class="st17" d="M299.9,382.6h-3.2l-0.5-3.7h-3.9l-0.5,3.7h-2.9l3.2-20.3h4.7L299.9,382.6z M292.6,376.2h3.1l-1.5-10.2
		L292.6,376.2z"/>
	<path class="st17" d="M304.2,367.9v14.7h-2.9v-20.3h4l3.3,12.1v-12.1h2.8v20.3h-3.3L304.2,367.9z"/>
	<path class="st17" d="M316.7,375.9l-4-13.5h3.3l2.4,9.2l2.4-9.2h3l-4,13.5v6.7h-3.2V375.9z"/>
</g>
<g id="freepik--Floor--inject-29">
	<rect x="270.7" y="179.1" class="st0" width="7.4" height="158.6"/>
	<rect x="14" y="333.2" class="st0" width="479" height="9"/>
	<line class="st14" x1="14.7" y1="483.5" x2="492.8" y2="483.5"/>
	<rect x="14" y="171.2" class="st0" width="479" height="9"/>
</g>
<g>
	<path class="st2" d="M337.1,352.4h32.7c3.3,0,5.9,2.6,5.9,5.9V391c0,3.3-2.6,5.9-5.9,5.9h-32.7c-3.3,0-5.9-2.6-5.9-5.9v-32.7
		C331.2,355,333.9,352.4,337.1,352.4z"/>
	<g>
		<g>
			<linearGradient id="SVGID_1_" gradientUnits="userSpaceOnUse" x1="359.6319" y1="356.8644" x2="349.3561" y2="392.5184">
				<stop  offset="0.3084" style="stop-color:#0AA153"/>
				<stop  offset="0.924" style="stop-color:#EEE94B"/>
			</linearGradient>
			<path class="st18" d="M351.3,390.6L351.3,390.6c-0.2,0.2-0.5,0.3-0.7,0.1c-0.4-0.2-0.9-0.4-1.4-0.4c-0.3,0-0.5-0.3-0.5-0.6v0
				c0-0.4,0.3-0.6,0.7-0.6c0.6,0.1,1.3,0.3,1.8,0.5C351.5,389.9,351.6,390.4,351.3,390.6z"/>
			<linearGradient id="SVGID_2_" gradientUnits="userSpaceOnUse" x1="360.0009" y1="356.9183" x2="349.7892" y2="392.3497">
				<stop  offset="0.3084" style="stop-color:#0AA153"/>
				<stop  offset="0.924" style="stop-color:#EEE94B"/>
			</linearGradient>
			<path class="st19" d="M353.8,388.2L353.8,388.2c-0.2,0.2-0.6,0.3-0.8,0.1c-1.1-0.7-2.4-1.2-3.8-1.3c-0.3,0-0.5-0.3-0.5-0.6v-0.1
				c0-0.3,0.3-0.6,0.6-0.6c1.5,0.1,3,0.6,4.4,1.5C354,387.5,354,387.9,353.8,388.2z"/>
			<linearGradient id="SVGID_3_" gradientUnits="userSpaceOnUse" x1="360.4522" y1="356.6551" x2="350.1969" y2="392.2376">
				<stop  offset="0.3084" style="stop-color:#0AA153"/>
				<stop  offset="0.924" style="stop-color:#EEE94B"/>
			</linearGradient>
			<path class="st20" d="M356.2,385.8L356.2,385.8c-0.2,0.2-0.6,0.3-0.8,0.1c-1.8-1.4-3.9-2.1-6.1-2.2c-0.3,0-0.6-0.3-0.6-0.6V383
				c0-0.3,0.3-0.6,0.6-0.6c2.5,0.1,4.9,1,6.8,2.5C356.4,385.1,356.4,385.5,356.2,385.8z"/>
			<linearGradient id="SVGID_4_" gradientUnits="userSpaceOnUse" x1="360.9076" y1="356.3437" x2="350.5776" y2="392.1858">
				<stop  offset="0.3084" style="stop-color:#0AA153"/>
				<stop  offset="0.924" style="stop-color:#EEE94B"/>
			</linearGradient>
			<path class="st21" d="M358.6,383.4L358.6,383.4c-0.3,0.3-0.6,0.3-0.8,0.1c-2.4-2-5.4-3.1-8.5-3.2c-0.3,0-0.6-0.3-0.6-0.6v0
				c0-0.3,0.3-0.6,0.6-0.6c3.4,0.1,6.6,1.3,9.3,3.5C358.8,382.7,358.8,383.1,358.6,383.4z"/>
		</g>
		<linearGradient id="SVGID_5_" gradientUnits="userSpaceOnUse" x1="359.4871" y1="353.931" x2="348.2915" y2="392.7761">
			<stop  offset="0.3084" style="stop-color:#0AA153"/>
			<stop  offset="0.924" style="stop-color:#EEE94B"/>
		</linearGradient>
		<path class="st22" d="M366.8,373.5c-1.4,2.2-3.2,5.1-4.4,6.9c-0.5,0.8-1.7,1-2.5,0.4c-4-3.1-11.8-5.1-18.7-3.4
			c-0.8,0.2-1.5-0.7-1-1.4l4.4-6.9c0.6-0.9,1.8-1,2.5-0.3c5.1,4.6,12.8,4.9,18.4,3.2C366.5,371.7,367.3,372.7,366.8,373.5z"/>
		<linearGradient id="SVGID_6_" gradientUnits="userSpaceOnUse" x1="358.3228" y1="354.2243" x2="348.0058" y2="390.0208">
			<stop  offset="0.3084" style="stop-color:#0AA153"/>
			<stop  offset="0.924" style="stop-color:#EEE94B"/>
		</linearGradient>
		<path class="st23" d="M358.2,359.6L358.2,359.6c0,0.4-0.3,0.7-0.7,0.6c-0.6-0.1-1.2-0.3-1.8-0.5c-0.4-0.2-0.4-0.7-0.1-0.9l0,0
			c0.2-0.2,0.4-0.2,0.7-0.1c0.4,0.2,0.9,0.4,1.4,0.4C358,359,358.2,359.3,358.2,359.6z"/>
		<linearGradient id="SVGID_7_" gradientUnits="userSpaceOnUse" x1="357.8777" y1="354.418" x2="347.65" y2="389.9049">
			<stop  offset="0.3084" style="stop-color:#0AA153"/>
			<stop  offset="0.924" style="stop-color:#EEE94B"/>
		</linearGradient>
		<path class="st24" d="M358.2,362.9L358.2,362.9c0,0.4-0.3,0.7-0.6,0.6c-1.6-0.1-3.1-0.6-4.4-1.5c-0.3-0.2-0.4-0.7-0.1-0.9l0,0
			c0.2-0.2,0.5-0.2,0.8-0.1c1.1,0.8,2.4,1.2,3.8,1.3C358,362.4,358.2,362.6,358.2,362.9z"/>
		<linearGradient id="SVGID_8_" gradientUnits="userSpaceOnUse" x1="357.4631" y1="354.5475" x2="347.2227" y2="390.0786">
			<stop  offset="0.3084" style="stop-color:#0AA153"/>
			<stop  offset="0.924" style="stop-color:#EEE94B"/>
		</linearGradient>
		<path class="st25" d="M358.2,366.3L358.2,366.3c0,0.3-0.3,0.6-0.6,0.6c-2.4-0.1-4.8-0.9-6.8-2.4c-0.3-0.2-0.3-0.6-0.1-0.9l0,0
			c0.2-0.2,0.5-0.2,0.8,0c1.8,1.3,3.9,2.1,6.1,2.2C358,365.8,358.2,366,358.2,366.3z"/>
		<linearGradient id="SVGID_9_" gradientUnits="userSpaceOnUse" x1="357.1002" y1="354.549" x2="346.7586" y2="390.431">
			<stop  offset="0.3084" style="stop-color:#0AA153"/>
			<stop  offset="0.924" style="stop-color:#EEE94B"/>
		</linearGradient>
		<path class="st26" d="M358.2,369.7L358.2,369.7c0,0.4-0.3,0.6-0.6,0.6c-3-0.1-6-1.1-8.6-3c-0.2-0.2-0.4-0.3-0.6-0.5
			c-0.3-0.2-0.3-0.6,0-0.9l0,0c0.2-0.2,0.6-0.2,0.8,0c0.7,0.6,1.4,1,2.2,1.5c2,1.1,4.1,1.7,6.3,1.7
			C358,369.1,358.2,369.4,358.2,369.7z"/>
		<linearGradient id="SVGID_10_" gradientUnits="userSpaceOnUse" x1="358.8205" y1="353.9107" x2="347.7504" y2="392.3205">
			<stop  offset="0.3084" style="stop-color:#0AA153"/>
			<stop  offset="0.924" style="stop-color:#EEE94B"/>
		</linearGradient>
		<circle class="st27" cx="358.1" cy="356.4" r="0.6"/>
		<linearGradient id="SVGID_11_" gradientUnits="userSpaceOnUse" x1="360.0756" y1="354.2725" x2="349.0055" y2="392.6822">
			<stop  offset="0.3084" style="stop-color:#0AA153"/>
			<stop  offset="0.924" style="stop-color:#EEE94B"/>
		</linearGradient>
		<circle class="st28" cx="348.9" cy="392.9" r="0.6"/>
	</g>
</g>
<g>
	<path class="st2" d="M127.9,434.8h24.5c2.4,0,4.4,2,4.4,4.4v24.5c0,2.4-2,4.4-4.4,4.4h-24.5c-2.4,0-4.4-2-4.4-4.4v-24.5
		C123.5,436.8,125.4,434.8,127.9,434.8z"/>
	<g>
		<g>
			<linearGradient id="SVGID_12_" gradientUnits="userSpaceOnUse" x1="144.7091" y1="438.1154" x2="137.021" y2="464.7908">
				<stop  offset="0.3084" style="stop-color:#0AA153"/>
				<stop  offset="0.924" style="stop-color:#EEE94B"/>
			</linearGradient>
			<path class="st29" d="M138.5,463.4L138.5,463.4c-0.2,0.2-0.4,0.2-0.5,0.1c-0.3-0.2-0.7-0.3-1.1-0.3c-0.2,0-0.4-0.2-0.4-0.4v0
				c0-0.3,0.2-0.5,0.5-0.4c0.5,0.1,0.9,0.2,1.4,0.4C138.6,462.8,138.7,463.2,138.5,463.4z"/>
			<linearGradient id="SVGID_13_" gradientUnits="userSpaceOnUse" x1="144.9851" y1="438.1557" x2="137.345" y2="464.6646">
				<stop  offset="0.3084" style="stop-color:#0AA153"/>
				<stop  offset="0.924" style="stop-color:#EEE94B"/>
			</linearGradient>
			<path class="st30" d="M140.3,461.6L140.3,461.6c-0.2,0.2-0.4,0.2-0.6,0.1c-0.8-0.6-1.8-0.9-2.8-1c-0.2,0-0.4-0.2-0.4-0.4v0
				c0-0.3,0.2-0.5,0.5-0.4c1.1,0.1,2.3,0.5,3.3,1.1C140.5,461,140.5,461.4,140.3,461.6z"/>
			<linearGradient id="SVGID_14_" gradientUnits="userSpaceOnUse" x1="145.3228" y1="437.9588" x2="137.6501" y2="464.5808">
				<stop  offset="0.3084" style="stop-color:#0AA153"/>
				<stop  offset="0.924" style="stop-color:#EEE94B"/>
			</linearGradient>
			<path class="st31" d="M142.1,459.7L142.1,459.7c-0.2,0.2-0.4,0.2-0.6,0.1c-1.4-1-3-1.6-4.6-1.6c-0.2,0-0.4-0.2-0.4-0.4v0
				c0-0.2,0.2-0.5,0.5-0.4c1.9,0.1,3.6,0.7,5.1,1.8C142.3,459.2,142.3,459.5,142.1,459.7z"/>
			<linearGradient id="SVGID_15_" gradientUnits="userSpaceOnUse" x1="145.6635" y1="437.7259" x2="137.9349" y2="464.5419">
				<stop  offset="0.3084" style="stop-color:#0AA153"/>
				<stop  offset="0.924" style="stop-color:#EEE94B"/>
			</linearGradient>
			<path class="st32" d="M143.9,458L143.9,458c-0.2,0.2-0.4,0.2-0.6,0.1c-1.8-1.5-4-2.3-6.3-2.4c-0.2,0-0.4-0.2-0.4-0.4v0
				c0-0.2,0.2-0.5,0.5-0.4c2.5,0.1,5,1,6.9,2.6C144.1,457.5,144.1,457.8,143.9,458z"/>
		</g>
		<linearGradient id="SVGID_16_" gradientUnits="userSpaceOnUse" x1="144.6007" y1="435.9207" x2="136.2245" y2="464.9836">
			<stop  offset="0.3084" style="stop-color:#0AA153"/>
			<stop  offset="0.924" style="stop-color:#EEE94B"/>
		</linearGradient>
		<path class="st33" d="M150,450.6c-1,1.6-2.4,3.8-3.3,5.1c-0.4,0.6-1.3,0.8-1.8,0.3c-3-2.3-8.8-3.8-14-2.5
			c-0.6,0.2-1.1-0.5-0.8-1.1l3.3-5.2c0.4-0.7,1.3-0.8,1.9-0.2c3.8,3.4,9.5,3.7,13.8,2.4C149.8,449.2,150.5,450,150,450.6z"/>
		<linearGradient id="SVGID_17_" gradientUnits="userSpaceOnUse" x1="143.7296" y1="436.1402" x2="136.0107" y2="462.9222">
			<stop  offset="0.3084" style="stop-color:#0AA153"/>
			<stop  offset="0.924" style="stop-color:#EEE94B"/>
		</linearGradient>
		<path class="st34" d="M143.7,440.1L143.7,440.1c0,0.3-0.2,0.5-0.5,0.5c-0.5-0.1-0.9-0.2-1.4-0.4c-0.3-0.1-0.3-0.5-0.1-0.7l0,0
			c0.1-0.1,0.3-0.2,0.5-0.1c0.3,0.2,0.7,0.3,1.1,0.3C143.5,439.7,143.7,439.9,143.7,440.1z"/>
		<linearGradient id="SVGID_18_" gradientUnits="userSpaceOnUse" x1="143.3966" y1="436.2851" x2="135.7445" y2="462.8354">
			<stop  offset="0.3084" style="stop-color:#0AA153"/>
			<stop  offset="0.924" style="stop-color:#EEE94B"/>
		</linearGradient>
		<path class="st35" d="M143.7,442.7L143.7,442.7c0,0.3-0.2,0.5-0.5,0.5c-1.2-0.1-2.3-0.5-3.3-1.1c-0.2-0.2-0.3-0.5-0.1-0.7l0,0
			c0.2-0.2,0.4-0.2,0.6,0c0.9,0.6,1.8,0.9,2.8,1C143.5,442.2,143.7,442.4,143.7,442.7z"/>
		<linearGradient id="SVGID_19_" gradientUnits="userSpaceOnUse" x1="143.0865" y1="436.382" x2="135.4249" y2="462.9654">
			<stop  offset="0.3084" style="stop-color:#0AA153"/>
			<stop  offset="0.924" style="stop-color:#EEE94B"/>
		</linearGradient>
		<path class="st36" d="M143.7,445.2L143.7,445.2c0,0.2-0.2,0.5-0.5,0.4c-1.8-0.1-3.6-0.7-5.1-1.8c-0.2-0.2-0.2-0.5-0.1-0.7l0,0
			c0.2-0.2,0.4-0.2,0.6,0c1.3,1,2.9,1.6,4.6,1.7C143.5,444.8,143.7,445,143.7,445.2z"/>
		<linearGradient id="SVGID_20_" gradientUnits="userSpaceOnUse" x1="142.8149" y1="436.3831" x2="135.0776" y2="463.2291">
			<stop  offset="0.3084" style="stop-color:#0AA153"/>
			<stop  offset="0.924" style="stop-color:#EEE94B"/>
		</linearGradient>
		<path class="st37" d="M143.7,447.7L143.7,447.7c0,0.3-0.2,0.5-0.5,0.5c-2.3-0.1-4.5-0.8-6.4-2.2c-0.2-0.1-0.3-0.2-0.5-0.4
			c-0.2-0.2-0.2-0.5,0-0.7l0,0c0.2-0.2,0.4-0.2,0.6,0c0.5,0.4,1.1,0.8,1.6,1.1c1.5,0.8,3.1,1.2,4.7,1.3
			C143.5,447.3,143.7,447.5,143.7,447.7z"/>
		<linearGradient id="SVGID_21_" gradientUnits="userSpaceOnUse" x1="144.102" y1="435.9056" x2="135.8196" y2="464.6428">
			<stop  offset="0.3084" style="stop-color:#0AA153"/>
			<stop  offset="0.924" style="stop-color:#EEE94B"/>
		</linearGradient>
		<circle class="st38" cx="143.6" cy="437.8" r="0.5"/>
		<linearGradient id="SVGID_22_" gradientUnits="userSpaceOnUse" x1="145.041" y1="436.1762" x2="136.7587" y2="464.9134">
			<stop  offset="0.3084" style="stop-color:#0AA153"/>
			<stop  offset="0.924" style="stop-color:#EEE94B"/>
		</linearGradient>
		<circle class="st39" cx="136.7" cy="465.1" r="0.5"/>
	</g>
</g>
<g>
	<path class="st2" d="M201.9,367.8h-6.1l1.6-1.8v17.3h-3.9V366l1.6,1.8H189v-3h12.9V367.8z"/>
	<path class="st2" d="M207.7,367.8l1.8-1.8v7.6l-0.9-1.1h6.8v3h-6.8l0.9-1.1v7.7l-1.8-1.8h9.1v3h-11.2v-18.4h11.2v3H207.7z"/>
	<path class="st2" d="M235,376.5c0,0.8-0.2,1.6-0.5,2.4s-0.8,1.6-1.4,2.3c-0.6,0.7-1.4,1.3-2.3,1.7s-2,0.6-3.3,0.6
		c-1.7,0-3.2-0.4-4.4-1.2c-1.2-0.8-2.1-1.9-2.8-3.4c-0.6-1.4-1-3.1-1-4.9s0.3-3.5,1-4.9c0.6-1.4,1.6-2.5,2.8-3.3
		c1.2-0.8,2.7-1.2,4.4-1.2c1.4,0,2.6,0.3,3.6,0.8c1,0.5,1.8,1.2,2.4,2s1,1.7,1.2,2.6c0.1,0.6,0.2,1.1,0.2,1.6h-3.9
		c0-0.2,0-0.5-0.1-0.7c-0.1-0.6-0.3-1.2-0.6-1.6c-0.3-0.5-0.7-0.9-1.2-1.1c-0.5-0.3-1.1-0.4-1.8-0.4c-0.8,0-1.5,0.2-2.1,0.7
		c-0.6,0.5-1.1,1.2-1.5,2.1c-0.4,0.9-0.5,2.1-0.5,3.6c0,1.5,0.2,2.7,0.5,3.6c0.4,0.9,0.8,1.7,1.5,2.1c0.6,0.5,1.3,0.7,2.1,0.7
		c0.6,0,1.1-0.1,1.5-0.3s0.8-0.5,1.1-0.9c0.3-0.4,0.5-0.8,0.7-1.3c0.2-0.5,0.2-1,0.2-1.5H235z"/>
	<path class="st2" d="M253.3,364.8v18.4h-3.9v-8.8l1.8,1.2h-10.2l1.8-1.1v8.8h-3.9v-18.4h3.9v8.9l-1.8-1.2h10.2l-1.8,1.2v-8.9H253.3
		z"/>
	<path class="st2" d="M265.4,383.6c-1.2,0-2.2-0.2-3.2-0.6c-1-0.4-1.9-1-2.6-1.8c-0.8-0.8-1.4-1.8-1.8-3s-0.6-2.5-0.6-4.1
		c0-1.5,0.2-2.9,0.6-4.1c0.4-1.2,1-2.2,1.8-3c0.8-0.8,1.6-1.4,2.6-1.8s2.1-0.6,3.2-0.6c1.1,0,2.2,0.2,3.2,0.6c1,0.4,1.9,1,2.6,1.8
		c0.8,0.8,1.3,1.8,1.8,3c0.4,1.2,0.6,2.5,0.6,4.1c0,1.5-0.2,2.9-0.6,4.1c-0.4,1.2-1,2.2-1.8,3c-0.8,0.8-1.6,1.4-2.7,1.8
		C267.6,383.4,266.5,383.6,265.4,383.6z M265.4,380.5c0.8,0,1.5-0.2,2.2-0.6c0.7-0.4,1.2-1.1,1.6-2.1c0.4-0.9,0.6-2.2,0.6-3.7
		c0-1.5-0.2-2.8-0.6-3.7c-0.4-0.9-0.9-1.6-1.6-2c-0.7-0.4-1.4-0.6-2.1-0.6c-0.8,0-1.5,0.2-2.2,0.6c-0.7,0.4-1.2,1.1-1.6,2
		c-0.4,0.9-0.6,2.2-0.6,3.7s0.2,2.8,0.6,3.7c0.4,0.9,0.9,1.6,1.6,2C263.9,380.3,264.6,380.5,265.4,380.5z"/>
	<path class="st2" d="M281.3,383.3h-3.8v-18.4h6l6.2,17L289,382v-17.2h3.8v18.4h-6.1l-6.2-17l0.7-0.2V383.3z"/>
	<path class="st2" d="M297.1,383.3v-18.4h3.8v18.4H297.1z"/>
	<path class="st2" d="M317.5,367.8h-6.1l1.5-1.8v17.3h-3.9V366l1.6,1.8h-6.1v-3h12.9V367.8z"/>
</g>
<g>
	<path class="st2" d="M185.4,137.4h-3.7l1.3-1.3v9.5h-2.8v-9.5l1.3,1.3h-3.7v-2.1h7.7V137.4z"/>
	<path class="st2" d="M188.1,137.4l1.3-1.3v4l-0.6-0.8h3.7v2.1h-3.7l0.6-0.7v4.1l-1.3-1.3h5.1v2.1h-6.7v-10.3h6.7v2.1H188.1z"/>
	<path class="st2" d="M203.2,141.8c0,0.5-0.1,0.9-0.3,1.4s-0.5,0.9-0.8,1.3c-0.4,0.4-0.8,0.7-1.4,1s-1.2,0.4-2,0.4
		c-1,0-1.9-0.2-2.6-0.7c-0.7-0.5-1.3-1.1-1.7-1.9s-0.6-1.7-0.6-2.8s0.2-2,0.6-2.8s0.9-1.4,1.7-1.9c0.7-0.5,1.6-0.7,2.6-0.7
		c0.8,0,1.6,0.1,2.2,0.4c0.6,0.3,1.1,0.7,1.4,1.1s0.6,1,0.8,1.5c0.1,0.4,0.1,0.7,0.1,1h-2.8c0-0.1,0-0.3,0-0.4
		c0-0.3-0.1-0.6-0.3-0.8c-0.1-0.2-0.3-0.4-0.5-0.5c-0.2-0.1-0.5-0.2-0.8-0.2c-0.4,0-0.7,0.1-1,0.3s-0.5,0.6-0.7,1
		c-0.2,0.5-0.3,1.1-0.3,1.8c0,0.7,0.1,1.3,0.3,1.8c0.2,0.5,0.4,0.8,0.7,1c0.3,0.2,0.6,0.3,1,0.3c0.3,0,0.5,0,0.7-0.1
		c0.2-0.1,0.4-0.2,0.5-0.4s0.2-0.4,0.3-0.6c0.1-0.2,0.1-0.5,0.1-0.8H203.2z"/>
	<path class="st2" d="M213.3,135.3v10.3h-2.8v-4.8l1.3,0.7H206l1.3-0.7v4.7h-2.8v-10.3h2.8v4.8l-1.3-0.7h5.7l-1.3,0.7v-4.8H213.3z"
		/>
	<path class="st2" d="M217.6,145.7h-2.8v-10.3h4.3l2.8,9.5l-0.5,0.1v-9.6h2.8v10.3h-4.3l-2.8-9.4l0.6-0.1V145.7z"/>
	<path class="st2" d="M230.4,145.9c-0.7,0-1.3-0.1-1.9-0.3c-0.6-0.2-1.1-0.6-1.6-1c-0.5-0.5-0.8-1-1.1-1.7c-0.3-0.7-0.4-1.4-0.4-2.3
		c0-0.9,0.1-1.6,0.4-2.3c0.3-0.7,0.6-1.2,1.1-1.7c0.5-0.4,1-0.8,1.6-1c0.6-0.2,1.2-0.3,1.9-0.3c0.7,0,1.3,0.1,1.9,0.3
		c0.6,0.2,1.1,0.6,1.6,1c0.5,0.4,0.8,1,1.1,1.7c0.3,0.7,0.4,1.4,0.4,2.3c0,0.9-0.1,1.6-0.4,2.3c-0.3,0.7-0.6,1.2-1.1,1.7
		c-0.5,0.5-1,0.8-1.6,1C231.7,145.7,231.1,145.9,230.4,145.9z M230.4,143.7c0.3,0,0.7-0.1,1-0.3c0.3-0.2,0.6-0.5,0.8-1
		s0.3-1.1,0.3-1.9c0-0.8-0.1-1.5-0.3-1.9c-0.2-0.5-0.5-0.8-0.8-1c-0.3-0.2-0.7-0.3-1-0.3c-0.3,0-0.7,0.1-1,0.3
		c-0.3,0.2-0.6,0.5-0.8,1c-0.2,0.5-0.3,1.1-0.3,1.9s0.1,1.5,0.3,1.9c0.2,0.5,0.5,0.8,0.8,1C229.8,143.6,230.1,143.7,230.4,143.7z"/>
	<path class="st2" d="M236.7,145.7v-10.3h2.8v9.5l-1.3-1.4h5v2.2H236.7z"/>
	<path class="st2" d="M248.3,145.9c-0.7,0-1.3-0.1-1.9-0.3c-0.6-0.2-1.1-0.6-1.6-1c-0.5-0.5-0.8-1-1.1-1.7c-0.3-0.7-0.4-1.4-0.4-2.3
		c0-0.9,0.1-1.6,0.4-2.3c0.3-0.7,0.6-1.2,1.1-1.7c0.5-0.4,1-0.8,1.6-1c0.6-0.2,1.2-0.3,1.9-0.3c0.7,0,1.3,0.1,1.9,0.3
		c0.6,0.2,1.1,0.6,1.6,1c0.5,0.4,0.8,1,1.1,1.7c0.3,0.7,0.4,1.4,0.4,2.3c0,0.9-0.1,1.6-0.4,2.3c-0.3,0.7-0.6,1.2-1.1,1.7
		c-0.5,0.5-1,0.8-1.6,1C249.6,145.7,249,145.9,248.3,145.9z M248.3,143.7c0.3,0,0.7-0.1,1-0.3c0.3-0.2,0.6-0.5,0.8-1
		s0.3-1.1,0.3-1.9c0-0.8-0.1-1.5-0.3-1.9c-0.2-0.5-0.5-0.8-0.8-1c-0.3-0.2-0.7-0.3-1-0.3c-0.3,0-0.7,0.1-1,0.3
		c-0.3,0.2-0.6,0.5-0.8,1c-0.2,0.5-0.3,1.1-0.3,1.9s0.1,1.5,0.3,1.9c0.2,0.5,0.5,0.8,0.8,1C247.6,143.6,247.9,143.7,248.3,143.7z"/>
	<path class="st2" d="M258.8,145.9c-0.8,0-1.6-0.2-2.3-0.6c-0.7-0.4-1.2-1-1.7-1.8s-0.6-1.8-0.6-2.9s0.2-2.1,0.7-2.9s1-1.4,1.8-1.8
		c0.7-0.4,1.6-0.6,2.5-0.6c0.8,0,1.4,0.1,2,0.4c0.5,0.2,1,0.5,1.3,0.9c0.3,0.4,0.6,0.8,0.7,1.2c0.2,0.4,0.2,0.8,0.2,1.1c0,0,0,0,0,0
		c0,0,0,0,0,0h-2.7c0,0,0,0,0,0c0,0,0,0,0,0c0-0.2,0-0.3-0.1-0.5c-0.1-0.2-0.2-0.3-0.3-0.4c-0.1-0.1-0.3-0.2-0.5-0.3
		c-0.2-0.1-0.4-0.1-0.6-0.1c-0.3,0-0.6,0.1-0.9,0.3s-0.6,0.5-0.8,1c-0.2,0.5-0.3,1.1-0.3,2c0,0.6,0.1,1.2,0.2,1.6s0.3,0.7,0.5,1
		c0.2,0.2,0.4,0.4,0.6,0.5c0.2,0.1,0.5,0.1,0.7,0.1c0.3,0,0.6-0.1,0.9-0.2c0.2-0.1,0.4-0.2,0.6-0.4s0.2-0.3,0.3-0.5v-0.4h-1.7v-2
		h4.2v5.4H262l-0.3-1.1c0,0.1-0.1,0.2-0.2,0.4c-0.1,0.1-0.3,0.3-0.5,0.4c-0.2,0.1-0.5,0.3-0.9,0.4
		C259.7,145.8,259.3,145.9,258.8,145.9z"/>
	<path class="st2" d="M272.6,135.3l-3.1,6.8v3.5h-2.8v-3.5l-3-6.8h3l2,5.5h-1.1l2-5.5H272.6z"/>
	<path class="st2" d="M281.8,145.9c-0.7,0-1.3-0.1-1.9-0.3s-1.1-0.6-1.6-1c-0.5-0.5-0.8-1-1.1-1.7c-0.3-0.7-0.4-1.4-0.4-2.3
		c0-0.9,0.1-1.6,0.4-2.3c0.3-0.7,0.6-1.2,1.1-1.7c0.5-0.4,1-0.8,1.6-1c0.6-0.2,1.2-0.3,1.9-0.3s1.3,0.1,1.9,0.3
		c0.6,0.2,1.1,0.6,1.6,1c0.5,0.4,0.8,1,1.1,1.7c0.3,0.7,0.4,1.4,0.4,2.3c0,0.9-0.1,1.6-0.4,2.3c-0.3,0.7-0.6,1.2-1.1,1.7
		c-0.5,0.5-1,0.8-1.6,1S282.5,145.9,281.8,145.9z M281.8,143.7c0.3,0,0.7-0.1,1-0.3c0.3-0.2,0.6-0.5,0.8-1c0.2-0.5,0.3-1.1,0.3-1.9
		c0-0.8-0.1-1.5-0.3-1.9c-0.2-0.5-0.5-0.8-0.8-1c-0.3-0.2-0.7-0.3-1-0.3c-0.3,0-0.7,0.1-1,0.3c-0.3,0.2-0.6,0.5-0.8,1
		c-0.2,0.5-0.3,1.1-0.3,1.9s0.1,1.5,0.3,1.9c0.2,0.5,0.5,0.8,0.8,1C281.1,143.6,281.5,143.7,281.8,143.7z"/>
	<path class="st2" d="M290.8,145.7H288v-10.3h4.3l2.8,9.5l-0.5,0.1v-9.6h2.8v10.3h-4.3l-2.8-9.4l0.6-0.1V145.7z"/>
	<path class="st2" d="M302.4,145.7v-10.3h2.8v10.3H302.4z"/>
	<path class="st2" d="M314,137.4h-3.7l1.3-1.3v9.5h-2.8v-9.5l1.3,1.3h-3.7v-2.1h7.7V137.4z"/>
</g>
</svg>
