<?xml version="1.0" encoding="UTF-8"?>
<svg id="Layer_1" data-name="Layer 1" xmlns="http://www.w3.org/2000/svg" xmlns:xlink="http://www.w3.org/1999/xlink" viewBox="0 0 399.53 400">
  <defs>
    <style>
      .cls-1 {
        fill: url(#linear-gradient-12);
      }

      .cls-1, .cls-2, .cls-3, .cls-4, .cls-5, .cls-6, .cls-7, .cls-8, .cls-9, .cls-10, .cls-11, .cls-12, .cls-13, .cls-14, .cls-15, .cls-16, .cls-17, .cls-18, .cls-19, .cls-20, .cls-21, .cls-22, .cls-23, .cls-24, .cls-25, .cls-26, .cls-27 {
        stroke-width: 0px;
      }

      .cls-2 {
        fill: url(#linear-gradient-17);
      }

      .cls-3 {
        fill: url(#linear-gradient-19);
      }

      .cls-4 {
        fill: url(#linear-gradient);
      }

      .cls-5 {
        fill: url(#linear-gradient-21);
      }

      .cls-6 {
        fill: url(#linear-gradient-6);
      }

      .cls-7 {
        fill: url(#linear-gradient-15);
      }

      .cls-8 {
        fill: url(#linear-gradient-11);
      }

      .cls-9 {
        fill: url(#linear-gradient-5);
      }

      .cls-10 {
        fill: url(#linear-gradient-13);
      }

      .cls-11 {
        fill: url(#linear-gradient-23);
      }

      .cls-12 {
        fill: url(#linear-gradient-25);
      }

      .cls-13 {
        fill: url(#linear-gradient-16);
      }

      .cls-14 {
        fill: url(#linear-gradient-22);
      }

      .cls-15 {
        fill: url(#linear-gradient-20);
      }

      .cls-16 {
        fill: url(#linear-gradient-14);
      }

      .cls-17 {
        fill: url(#linear-gradient-2);
      }

      .cls-18 {
        fill: url(#linear-gradient-7);
      }

      .cls-19 {
        fill: url(#linear-gradient-3);
      }

      .cls-20 {
        fill: url(#linear-gradient-9);
      }

      .cls-21 {
        fill: url(#linear-gradient-27);
      }

      .cls-22 {
        fill: url(#linear-gradient-8);
      }

      .cls-23 {
        fill: url(#linear-gradient-24);
      }

      .cls-24 {
        fill: url(#linear-gradient-26);
      }

      .cls-25 {
        fill: url(#linear-gradient-18);
      }

      .cls-26 {
        fill: url(#linear-gradient-10);
      }

      .cls-27 {
        fill: url(#linear-gradient-4);
      }
    </style>
    <linearGradient id="linear-gradient" x1="81.45" y1="61.18" x2="316.82" y2="304.47" gradientUnits="userSpaceOnUse">
      <stop offset="0" stop-color="#a36d00"/>
      <stop offset=".13" stop-color="#eabf07"/>
      <stop offset=".3" stop-color="#d8af05"/>
      <stop offset=".44" stop-color="#f2c50a"/>
      <stop offset=".61" stop-color="#d1aa07"/>
      <stop offset=".74" stop-color="#f4c80f"/>
      <stop offset="1" stop-color="#b87f00"/>
    </linearGradient>
    <linearGradient id="linear-gradient-2" x1="350.34" y1="331.35" x2="58.84" y2="96.98" xlink:href="#linear-gradient"/>
    <linearGradient id="linear-gradient-3" x1="109.31" y1="392" x2="235.43" y2="104.53" gradientUnits="userSpaceOnUse">
      <stop offset="0" stop-color="#a08100"/>
      <stop offset="1" stop-color="#f4c80f"/>
    </linearGradient>
    <linearGradient id="linear-gradient-4" x1="258.86" y1="74.07" x2="120.94" y2="335.33" gradientUnits="userSpaceOnUse">
      <stop offset="0" stop-color="#785400"/>
      <stop offset="1" stop-color="#edb706"/>
    </linearGradient>
    <linearGradient id="linear-gradient-5" x1="97.28" y1="398.63" x2="227.64" y2="123.03" gradientUnits="userSpaceOnUse">
      <stop offset="0" stop-color="#785400"/>
      <stop offset="1" stop-color="#f4c80f"/>
    </linearGradient>
    <linearGradient id="linear-gradient-6" x1="107.83" y1="202.24" x2="278.94" y2="202.24" gradientUnits="userSpaceOnUse">
      <stop offset="0" stop-color="#785400"/>
      <stop offset="1" stop-color="#edab06"/>
    </linearGradient>
    <linearGradient id="linear-gradient-7" x1="203.27" y1="108.65" x2="223.24" y2="108.65" xlink:href="#linear-gradient-6"/>
    <linearGradient id="linear-gradient-8" x1="186.8" y1="127.05" x2="222.58" y2="127.05" xlink:href="#linear-gradient-6"/>
    <linearGradient id="linear-gradient-9" x1="171.39" y1="145.09" x2="221.92" y2="145.09" xlink:href="#linear-gradient-6"/>
    <linearGradient id="linear-gradient-10" x1="155.81" y1="163.09" x2="221.27" y2="163.09" xlink:href="#linear-gradient-6"/>
    <linearGradient id="linear-gradient-11" x1="216.41" y1="89.84" x2="227.01" y2="89.84" xlink:href="#linear-gradient-6"/>
    <linearGradient id="linear-gradient-12" x1="162.67" y1="296.91" x2="180.4" y2="296.91" xlink:href="#linear-gradient-6"/>
    <linearGradient id="linear-gradient-13" x1="159.99" y1="279.85" x2="195.51" y2="279.85" xlink:href="#linear-gradient-6"/>
    <linearGradient id="linear-gradient-14" x1="159.95" y1="261.54" x2="211.4" y2="261.54" xlink:href="#linear-gradient-6"/>
    <linearGradient id="linear-gradient-15" x1="160.16" y1="243.02" x2="226.52" y2="243.02" xlink:href="#linear-gradient-6"/>
    <linearGradient id="linear-gradient-16" x1="160.35" y1="315.98" x2="168.25" y2="315.98" xlink:href="#linear-gradient-6"/>
    <linearGradient id="linear-gradient-17" x1="119.54" y1="409.68" x2="195.49" y2="190.26" xlink:href="#linear-gradient-3"/>
    <linearGradient id="linear-gradient-18" x1="108.51" y1="407.76" x2="185.35" y2="185.79" xlink:href="#linear-gradient-3"/>
    <linearGradient id="linear-gradient-19" x1="104.41" y1="413.75" x2="183.07" y2="186.53" xlink:href="#linear-gradient-3"/>
    <linearGradient id="linear-gradient-20" x1="102.28" y1="414.36" x2="181.4" y2="185.79" xlink:href="#linear-gradient-3"/>
    <linearGradient id="linear-gradient-21" x1="100.53" y1="414.18" x2="179.93" y2="184.82" xlink:href="#linear-gradient-3"/>
    <linearGradient id="linear-gradient-22" x1="109.73" y1="410.51" x2="187.1" y2="186.99" xlink:href="#linear-gradient-3"/>
    <linearGradient id="linear-gradient-23" x1="128.32" y1="416.18" x2="205.14" y2="194.24" xlink:href="#linear-gradient-3"/>
    <linearGradient id="linear-gradient-24" x1="128.48" y1="419.89" x2="207.16" y2="192.58" xlink:href="#linear-gradient-3"/>
    <linearGradient id="linear-gradient-25" x1="129.31" y1="421.59" x2="208.44" y2="193" xlink:href="#linear-gradient-3"/>
    <linearGradient id="linear-gradient-26" x1="130.15" y1="423.16" x2="209.57" y2="193.73" xlink:href="#linear-gradient-3"/>
    <linearGradient id="linear-gradient-27" x1="127.48" y1="416.89" x2="204.88" y2="193.28" xlink:href="#linear-gradient-3"/>
  </defs>
  <path class="cls-4" d="m399.53,198.76c0,110.14-90.2,193.43-197.61,186.29-103.38-6.87-184.38-95.57-184.38-198.34S98.54.35,201.92,0c107.41-.37,197.61,88.61,197.61,198.75Z"/>
  <path class="cls-17" d="m382.92,211.04c0,109.47-89.64,192.25-196.4,185.15C83.77,389.37,3.27,301.21,3.27,199.07S83.77,13.85,186.52,13.5c106.75-.36,196.4,88.07,196.4,197.54Z"/>
  <path class="cls-19" d="m379.28,214.61c0,109.36-89.56,192.06-196.2,184.97C80.43,392.75,0,304.69,0,202.65S80.43,17.61,183.07,17.26c106.65-.36,196.2,87.98,196.2,197.34Z"/>
  <path class="cls-27" d="m352.71,212.36c0,94.03-76.69,165.73-168.7,160.29-89.29-5.27-159.74-81.61-159.74-170.65S94.72,41.07,184.01,41.42c92.02.37,168.7,76.9,168.7,170.93Z"/>
  <path class="cls-9" d="m344.27,212.09c0,89.41-72.82,157.76-160.41,152.78-85.2-4.84-152.59-77.61-152.59-162.65S98.66,48.65,183.86,49.19c87.59.55,160.41,73.49,160.41,162.9Z"/>
  <g>
    <g>
      <path class="cls-6" d="m277.82,196.57c-9,13.76-21.05,32.2-28.55,43.68-3.47,5.31-10.8,6.15-15.88,2-25.35-20.72-74.94-35.46-118.36-25.69-5.07,1.14-9.08-4.7-6.27-9.12l27.49-43.17c3.5-5.49,11.03-6.23,15.9-1.71,32.41,30.11,81.05,33.88,117.68,23.5,6.21-1.76,11.49,5.13,7.99,10.49Z"/>
      <g>
        <path class="cls-18" d="m223.24,109.27v.22c-.08,2.27-4.98,6.35-7.22,5.98-4.01-.66-8.28-3.22-11.94-5.25-2.24-1.25.68-5.53,2.53-7.26l.17-.15c1.15-1.07,2.87-1.33,4.27-.57,2.78,1.5,5.77,2.57,8.95,3.1,1.9.32,3.3,1.99,3.24,3.92Z"/>
        <path class="cls-22" d="m222.58,131v.35c-.08,2.23-3.85,6.11-6.06,5.84-10.05-1.22-21.07-6.19-29.12-12.19-1.93-1.43,1.3-5.33,3.03-6.94l.22-.21c1.33-1.24,3.34-1.28,4.84-.18,7.14,5.2,15.32,8.36,23.77,9.37,1.95.23,3.38,2,3.32,3.96Z"/>
        <path class="cls-20" d="m221.92,152.89h0c-.06,2.14-4.35,5.9-6.48,5.68-15.43-1.58-30.98-8.46-43.46-18.79-1.81-1.5,1.01-5.45,2.69-7.02l.21-.19c1.39-1.29,3.51-1.27,4.99-.03,10.95,9.18,24.25,14.81,38.57,16.27,2.03.21,3.54,2.04,3.48,4.08Z"/>
        <path class="cls-26" d="m221.27,174.43v.22c-.07,2.14-4.44,5.69-6.57,5.49-19.42-1.86-36.24-7.72-52.08-20.53-1.29-1.12-5.03-4.41-6.3-5.54-1.68-1.51,1.25-5.35,2.86-6.86l.24-.23c1.4-1.31,3.55-1.26,5.02.04,4.26,3.79,8.81,7.12,13.57,10,12.24,7.6,25.78,12.05,39.67,13.39,2.06.2,3.66,1.94,3.59,4.01Z"/>
        <path class="cls-8" d="m227.01,88.98c-.07,2.23-4.27,6.03-6.49,5.93s-4.17-2.12-4.1-4.35,4.46-5.89,6.68-5.8,3.98,1.98,3.91,4.22Z"/>
      </g>
      <g>
        <path class="cls-1" d="m179.29,301.36l-.2.19c-1.11,1.07-2.81,1.32-4.22.55-2.79-1.53-5.79-2.56-8.89-3.07-1.88-.31-3.31-1.97-3.31-3.9v-.21c0-2.26,1.94-3.96,4.15-3.59,4,.66,7.9,1.99,11.54,3.92,2.3,1.22,2.73,4.38.93,6.11Z"/>
        <path class="cls-10" d="m192.14,288.74s-2.13,2.11-3.66,1.02c-7.09-5.08-13.93-11.29-22.45-12.25-1.92-.22-6.05-2.42-6.05-2.42,0-2.21,4.54-5.69,6.72-5.44,9.62,1.12,19.27,4.65,27.57,10.79,3.09,2.28-.45,6.67-2.14,8.3Z"/>
        <path class="cls-16" d="m210.29,271.49l-3.25,3.13c-1.36,1.31-.46-1.62-1.99-2.85-11.55-9.27-25.1-14.48-38.75-15.73-2.02-.19-3.63-1.87-3.63-3.92l-2.72,2.03c0-2.13,4.45-6.21,6.55-6.02,15.67,1.39,30.77,7.47,43.34,17.54,1.86,1.49,2.1,4.22.45,5.81Z"/>
        <path class="cls-7" d="m223.08,258.72l-.23.22c-1.4,1.35-1.09-.65-2.62-1.96-15.44-13.24-34.23-21.03-53.91-22.54-2.03-.16-6.16.07-6.16-1.99v-.21c0-2.12,4.23-5.74,6.32-5.58,21.55,1.59,42.89,9.05,58.87,24.44,3.06,2.95-.7,6.09-2.28,7.61Z"/>
        <path class="cls-13" d="m168.25,316.18c0,2.21-1.77,3.92-3.95,3.81s-3.95-1.99-3.95-4.21,1.77-3.92,3.95-3.81,3.95,1.99,3.95,4.21Z"/>
      </g>
    </g>
    <g>
      <path class="cls-2" d="m275.1,198.96c-9,13.76-21.05,32.2-28.55,43.68-3.47,5.31-10.8,6.15-15.88,2-25.35-20.72-74.94-35.46-118.36-25.69-5.07,1.14-9.08-4.7-6.27-9.12l27.49-43.17c3.5-5.49,11.03-6.23,15.9-1.71,32.41,30.11,81.05,33.88,117.68,23.5,6.21-1.76,11.49,5.13,7.99,10.49Z"/>
      <g>
        <path class="cls-25" d="m220.52,111.66v.22c-.08,2.27-2.1,3.99-4.34,3.62-4.01-.66-7.91-2-11.57-4.04-2.24-1.25-2.56-4.38-.71-6.11l.17-.15c1.15-1.07,2.87-1.33,4.27-.57,2.78,1.5,5.77,2.57,8.95,3.1,1.9.32,3.3,1.99,3.24,3.92Z"/>
        <path class="cls-3" d="m219.86,133.39v.35c-.08,2.23-2.03,3.88-4.25,3.61-10.05-1.22-19.47-5.01-27.53-11.01-1.93-1.43-2.11-4.28-.38-5.89l.22-.21c1.33-1.24,3.34-1.28,4.84-.18,7.14,5.2,15.32,8.36,23.77,9.37,1.95.23,3.38,2,3.32,3.96Z"/>
        <path class="cls-15" d="m219.2,155.28h0c-.06,2.14-1.88,3.82-4.01,3.6-15.43-1.58-30.47-7.61-42.95-17.94-1.81-1.5-1.98-4.22-.29-5.79l.21-.19c1.39-1.29,3.51-1.27,4.99-.03,10.95,9.18,24.25,14.81,38.57,16.27,2.03.21,3.54,2.04,3.48,4.08Z"/>
        <path class="cls-5" d="m218.55,176.82v.22c-.07,2.14-1.88,3.8-4,3.6-19.42-1.86-38.26-9.23-54.1-22.04-1.29-1.12-2.59-2.23-3.86-3.37-1.68-1.51-1.74-4.13-.13-5.64l.24-.23c1.4-1.31,3.55-1.26,5.02.04,4.26,3.79,8.81,7.12,13.57,10,12.24,7.6,25.78,12.05,39.67,13.39,2.06.2,3.66,1.94,3.59,4.01Z"/>
        <path class="cls-14" d="m224.28,91.37c-.07,2.23-1.93,3.97-4.15,3.87s-3.97-1.98-3.9-4.21,1.92-3.96,4.15-3.87,3.98,1.98,3.91,4.22Z"/>
      </g>
      <g>
        <path class="cls-11" d="m176.57,303.75l-.2.19c-1.11,1.07-2.81,1.32-4.22.55-2.79-1.53-5.79-2.56-8.89-3.07-1.88-.31-3.31-1.97-3.31-3.9v-.21c0-2.26,1.94-3.96,4.15-3.59,4,.66,7.9,1.99,11.54,3.92,2.3,1.22,2.73,4.38.93,6.11Z"/>
        <path class="cls-23" d="m192.14,288.74l-.19.18c-1.3,1.25-3.32,1.28-4.85.19-7.09-5.08-15.28-8.25-23.79-9.22-1.92-.22-3.37-1.96-3.37-3.91v-.33c0-2.21,1.87-3.87,4.05-3.62,9.62,1.12,19.19,4.78,27.57,10.79,1.99,1.43,2.27,4.28.58,5.91Z"/>
        <path class="cls-12" d="m207.57,273.88l-.22.21c-1.36,1.31-3.49,1.3-5.02.07-11.55-9.27-25.1-14.48-38.75-15.73-2.02-.19-3.63-1.87-3.63-3.92v-.36c0-2.13,1.73-3.82,3.83-3.64,15.67,1.39,30.77,7.47,43.34,17.54,1.86,1.49,2.1,4.22.45,5.81Z"/>
        <path class="cls-24" d="m222.87,259.14l-.23.22c-1.4,1.35-3.6,1.32-5.13,0-15.44-13.24-34.23-21.03-53.91-22.54-2.03-.16-3.65-1.85-3.65-3.91v-.21c0-2.12,1.72-3.81,3.82-3.66,21.55,1.59,42.02,10.07,58.87,24.44,1.73,1.48,1.82,4.12.24,5.65Z"/>
        <path class="cls-21" d="m165.53,318.57c0,2.21-1.77,3.92-3.95,3.81-2.18-.11-3.95-1.99-3.95-4.21s1.77-3.92,3.95-3.81,3.95,1.99,3.95,4.21Z"/>
      </g>
    </g>
  </g>
</svg>